<?xml version="1.0" encoding="utf-8"?>
<!-- Generator: Adobe Illustrator 24.1.0, SVG Export Plug-In . SVG Version: 6.00 Build 0)  -->
<svg version="1.1" id="Layer_1" xmlns="http://www.w3.org/2000/svg" xmlns:xlink="http://www.w3.org/1999/xlink" x="0px" y="0px"
	 viewBox="0 0 1440 794.9" style="enable-background:new 0 0 1440 794.9;" xml:space="preserve">
<style type="text/css">
	.st0{fill-rule:evenodd;clip-rule:evenodd;fill:#FFFFFF;}
	.st1{opacity:0.75;fill-rule:evenodd;clip-rule:evenodd;fill:#E3E7ED;enable-background:new    ;}
	.st2{fill-rule:evenodd;clip-rule:evenodd;fill:#FAFAFA;}
</style>
<g>
	<path class="st0" d="M8.3-0.2c-2.1,0.1-4.1,0.1-6.2,0c-0.7,0-1.4,0-2.1,0l-0.1,334.1h1440.2V-0.2H8.3z"/>
	<g id="Layer_4_1_">
		<g>
			<g>
				<g>
					<polygon class="st1" points="91.1,-0.2 0.1,122.3 0.1,129.6 96.5,-0.2 					"/>
				</g>
				<g>
					<polygon class="st1" points="84.5,-0.2 0.1,113.4 0.1,120.7 89.9,-0.2 					"/>
				</g>
				<g>
					<polygon class="st1" points="64.6,-0.2 0.1,86.6 0.1,93.9 70,-0.2 					"/>
				</g>
				<g>
					<polygon class="st1" points="71.2,-0.2 0.1,95.5 0.1,102.8 76.6,-0.2 					"/>
				</g>
				<g>
					<polygon class="st1" points="77.8,-0.2 0.1,104.5 0.1,111.8 83.3,-0.2 					"/>
				</g>
				<g>
					<path class="st1" d="M1400.6-0.2H980.5L857.8,165l-0.8-0.6L979.2-0.2h-5.4L851.1,165l-0.8-0.6L972.5-0.2h-5.4L844.5,165
						l-0.8-0.6L966-0.2h-5.4L837.9,165l-0.8-0.6L959.4-0.2H954L831.2,165l-0.8-0.6L952.6-0.2h-5.4L824.6,165l-0.8-0.6L946-0.2h-5.4
						L817.9,165l-0.8-0.6L939.3-0.2h-5.4L811.3,165l-0.8-0.6L932.7-0.2h-5.4L804.7,165l-0.8-0.6L926.1-0.2h-5.4L798,165l-0.8-0.6
						L919.4-0.2H914L791.4,165l-0.8-0.6L912.8-0.2h-5.3L784.8,165l-0.8-0.6L906.2-0.2h-5.4L778.1,165l-0.8-0.6L899.5-0.2h-5.4
						L771.5,165l-0.8-0.6L892.9-0.2h-5.4L764.9,165l-0.8-0.6L886.3-0.2h-5.4L758.2,165l-0.8-0.6L879.6-0.2h-5.4L751.6,165l-0.8-0.6
						L873-0.2h-5.4L744.9,165l-0.8-0.6L866.4-0.2H861L738.3,165l-0.8-0.6L859.8-0.2h-5.4L731.7,165l-0.8-0.6L853.1-0.2h-5.4L725,165
						l-0.8-0.6L846.5-0.2H841L718.4,165l-0.8-0.6L839.8-0.2h-5.4L711.8,165l-0.8-0.6L833.2-0.2h-5.4L705.1,165l-0.8-0.6L826.5-0.2
						h-5.3L698.5,165l-0.8-0.6L819.9-0.2h-5.3L691.9,165l-0.8-0.6L813.3-0.2h-5.4L685.2,165l-0.8-0.6L806.7-0.2h-5.4L678.6,165
						l-0.8-0.6L800-0.2h-5.4L671.9,165l-0.8-0.6L793.3-0.2h-5.4L665.3,165l-0.8-0.6L786.7-0.2h-5.3L658.7,165l-0.8-0.6L780.1-0.2
						h-5.3L652,165l-0.8-0.6L773.4-0.2H768L645.4,165l-0.8-0.6L766.8-0.2h-5.4L638.8,165l-0.8-0.6L760.2-0.2h-5.4L632.1,165
						l-0.8-0.6L753.5-0.2h-5.4L625.5,165l-0.8-0.6L746.9-0.2h-5.4L618.8,165l-0.8-0.6L740.2-0.2h-5.4L612.2,165l-0.8-0.6L733.6-0.2
						h-5.4L605.6,165l-0.8-0.6L727-0.2h-5.4L598.9,165l-0.8-0.6L720.4-0.2H715L592.3,165l-0.8-0.6L713.7-0.2h-5.4L585.7,165
						l-0.8-0.6L707.2-0.2h-5.4L579,165l-0.8-0.6L700.4-0.2H695L572.4,165l-0.8-0.6L693.8-0.2h-5.4L565.8,165l-0.8-0.6L687.2-0.2
						h-5.4L559.1,165l-0.8-0.6L680.5-0.2h-5.4L552.5,165l-0.8-0.6L674-0.2h-5.4L545.8,165l-0.8-0.6L667.2-0.2h-5.3L539.2,165
						l-0.8-0.6L660.6-0.2h-5.3L532.6,165l-0.8-0.6L654-0.2h-5.4L525.9,165l-0.8-0.6L647.3-0.2H642L519.3,165l-0.8-0.6L640.7-0.2
						h-5.4L512.7,165l-0.8-0.6L634.1-0.2h-5.4L506,165l-0.8-0.6L627.4-0.2H622L499.4,165l-0.8-0.6L620.9-0.2h-5.4L492.8,165
						l-0.8-0.6L614.2-0.2h-5.4L486.1,165l-0.8-0.6L607.5-0.2h-5.4L479.5,165l-0.8-0.6L600.9-0.2h-5.4L472.8,165l-0.8-0.6L594.2-0.2
						h-5.4L466.2,165l-0.8-0.6L587.6-0.2h-5.4L459.6,165l-0.8-0.6L581-0.2h-5.4L452.9,165l-0.8-0.6L574.3-0.2h-5.4L446.3,165
						l-0.8-0.6L567.7-0.2h-5.4L439.7,165l-0.8-0.6L561.1-0.2h-5.4L433,165l-0.8-0.6L554.5-0.2h-5.4L426.4,165l-0.8-0.6L547.8-0.2
						h-5.4L419.8,165l-0.8-0.6L541.2-0.2h-5.4L413.1,165l-0.8-0.6L534.5-0.2h-5.4L406.5,165l-0.8-0.6L527.9-0.2h-5.5L399.8,165
						l-0.8-0.6L521.2-0.2h-5.4L393.2,165l-0.8-0.6L514.6-0.2h-5.4L386.6,165l-0.8-0.6L508-0.2h-5.4L379.9,165l-0.8-0.6L501.3-0.2
						h-5.4L373.3,165l-0.8-0.6L494.7-0.2h-5.4L366.7,165l-0.8-0.6L488.1-0.2h-5.4L360,165l-0.8-0.6L481.4-0.2h-5.4L353.4,165
						l-0.8-0.6L474.8-0.2h-5.4L346.7,165l-0.8-0.6L468.1-0.2h-5.4L340.1,165l-0.8-0.6L461.6-0.2h-5.4L333.5,165l-0.8-0.6L454.9-0.2
						h-5.4L326.8,165l-0.8-0.6L448.2-0.2h-5.4L320.2,165l-0.8-0.6L441.7-0.2h-5.4L313.6,165l-0.8-0.6L435-0.2h-5.4L306.9,165
						l-0.8-0.6L428.4-0.2H423L300.3,165l-0.8-0.6L421.7-0.2h-5.4L293.7,165l-0.8-0.6L415.1-0.2h-5.4L287,165l-0.8-0.6L408.4-0.2H403
						L280.4,165l-0.8-0.6L401.8-0.2h-5.4L273.7,165l-0.8-0.6L395.2-0.2h-5.3L267.1,165l-0.8-0.6L388.5-0.2h-5.3L260.5,165l-0.8-0.6
						L381.9-0.2h-5.4L253.8,165l-0.8-0.6L375.2-0.2h-5.3L247.2,165l-0.8-0.6L368.7-0.2h-5.3L240.6,165l-0.8-0.6L362-0.2h-5.4
						L233.9,165l-0.8-0.6L355.3-0.2H350L227.3,165l-0.8-0.6L348.7-0.2h-5.3L220.7,165l-0.8-0.6L342.1-0.2h-5.4L214,165l-0.8-0.6
						L335.5-0.2h-5.3L207.4,165l-0.8-0.6L328.8-0.2h-5.3L200.8,165l-0.8-0.6L322.2-0.2h-5.4L194.1,165l-0.8-0.6L315.5-0.2h-5.3
						L187.5,165l-0.8-0.6L308.9-0.2h-5.4L180.8,165l-0.8-0.6L302.2-0.2h-5.3L174.2,165l-0.8-0.6L295.6-0.2h-5.3L167.6,165l-0.8-0.6
						L289.1-0.2h-5.4L160.9,165l-0.8-0.6L282.3-0.2H277L154.3,165l-0.8-0.6L275.7-0.2h-5.3L147.7,165l-0.8-0.6L269.1-0.2h-5.4
						L141,165l-0.8-0.6L262.5-0.2h-5.3L134.4,165l-0.8-0.6L255.8-0.2h-5.4L127.7,165l-0.8-0.6L249.1-0.2h-5.3L121.1,165l-0.8-0.6
						L242.6-0.2h-5.3L114.5,165l-0.8-0.6L235.9-0.2h-5.4L107.8,165l-0.8-0.6L229.2-0.2h-5.3L101.2,165l-0.8-0.6L222.6-0.2h-5.3
						L94.6,165l-0.8-0.6L216-0.2h-5.4L87.9,165l-0.8-0.6L209.3-0.2H204L81.3,165l-0.8-0.6L202.7-0.2h-5.4L74.7,165l-0.8-0.6
						L196.1-0.2h-5.4L68,165l-0.8-0.6L189.4-0.2H184L61.4,165l-0.8-0.6L182.8-0.2h-5.4L54.7,165l-0.8-0.6L176.1-0.2h-5.4L48.1,165
						l-0.8-0.6L169.5-0.2h-5.4L41.5,165l-0.8-0.6L162.9-0.2h-5.4L34.8,165l-0.8-0.6L156.2-0.2h-5.4L28.2,165l-0.8-0.6L149.6-0.2
						h-5.4L21.6,165l-0.8-0.6L143-0.2h-5.4L14.9,165l-0.8-0.6L136.3-0.2h-5.4L8.3,165l-0.8-0.6L129.7-0.2h-5.4L1.6,165l-0.8-0.6
						L123-0.2h-5.3L0.2,158.1v174.8C497,261.6,548.3,510,1294.5,508.1C1254.6,225.3,1398,222.3,1400.6-0.2z"/>
				</g>
				<g>
					<polygon class="st1" points="111,-0.2 0.1,149.1 0.1,156.4 116.4,-0.2 					"/>
				</g>
				<g>
					<path class="st1" d="M2.1-0.2c-0.7,0-1.3,0-2,0v4.8l3.5-4.8C3.1-0.2,2.6-0.2,2.1-0.2z"/>
				</g>
				<g>
					<polygon class="st1" points="104.3,-0.2 0.1,140.2 0.1,147.5 109.8,-0.2 					"/>
				</g>
				<g>
					<polygon class="st1" points="97.8,-0.2 0.1,131.3 0.1,138.6 103.2,-0.2 					"/>
				</g>
				<g>
					<polygon class="st1" points="24.8,-0.2 0.1,33 0.1,40.3 30.2,-0.2 					"/>
				</g>
				<g>
					<polygon class="st1" points="18.1,-0.2 0.1,24.1 0.1,31.4 23.5,-0.2 					"/>
				</g>
				<g>
					<polygon class="st1" points="11.5,-0.2 0.1,15.1 0.1,22.4 16.9,-0.2 					"/>
				</g>
				<g>
					<path class="st1" d="M8.3-0.2C7.1-0.2,6-0.2,4.8-0.2L0.1,6.2v7.3L10.3-0.2H8.3z"/>
				</g>
				<g>
					<polygon class="st1" points="51.3,-0.2 0.1,68.7 0.1,76 56.7,-0.2 					"/>
				</g>
				<g>
					<polygon class="st1" points="44.6,-0.2 0.1,59.8 0.1,67.1 50.1,-0.2 					"/>
				</g>
				<g>
					<polygon class="st1" points="58,-0.2 0.1,77.7 0.1,85 63.3,-0.2 					"/>
				</g>
				<g>
					<polygon class="st1" points="38,-0.2 0.1,50.9 0.1,58.2 43.4,-0.2 					"/>
				</g>
				<g>
					<polygon class="st1" points="31.4,-0.2 0.1,41.9 0.1,49.2 36.8,-0.2 					"/>
				</g>
			</g>
		</g>
	</g>
	<g id="Layer_2_1_">
		<g id="Front_Wave_2_">
			<path class="st2" d="M8.3-0.2c-2.1,0.1-4.1,0.1-6.2,0c-0.7,0-1.4,0-2,0l-0.2,525.4c590.5-59.5,1057.3-20.8,1440.2,19.2
				l-0.7-544.6H8.3z"/>
		</g>
	</g>
</g>
</svg>
