<?xml version="1.0" encoding="utf-8"?>
<!-- Generator: Adobe Illustrator 24.1.0, SVG Export Plug-In . SVG Version: 6.00 Build 0)  -->
<svg version="1.1" id="Layer_1" xmlns="http://www.w3.org/2000/svg" xmlns:xlink="http://www.w3.org/1999/xlink" x="0px" y="0px"
	 viewBox="0 0 1440 386" style="enable-background:new 0 0 1440 386;" xml:space="preserve">
<style type="text/css">
	.st0{fill:#FFFFFF;}
	.st1{fill-rule:evenodd;clip-rule:evenodd;fill:#E3E7ED;}
	.st2{fill-rule:evenodd;clip-rule:evenodd;fill:#FAFAFA;}
</style>
<path class="st0" d="M0,386V227.6c0,0,270.9,85.4,893.5,121l42.1,37.4H0z"/>
<g>
	<path class="st1" d="M415.3,306.1c-1.6-0.2-3.1-0.4-4.7-0.6L350.2,386h5.1L415.3,306.1z"/>
	<path class="st1" d="M409.6,305.3c-1.6-0.2-3.1-0.4-4.7-0.6L343.8,386h5.1L409.6,305.3z"/>
	<path class="st1" d="M421.1,306.9c-1.6-0.2-3.1-0.4-4.7-0.6L356.6,386h5.1L421.1,306.9z"/>
	<path class="st1" d="M426.9,307.6c-1.6-0.2-3.1-0.4-4.7-0.6L363,386h5.1L426.9,307.6z"/>
	<path class="st1" d="M403.8,304.5c-1.6-0.2-3.1-0.4-4.6-0.6L337.5,386h5.1L403.8,304.5z"/>
	<path class="st1" d="M398,303.7c-1.5-0.2-3.1-0.4-4.6-0.6l-62.3,83h5.1L398,303.7z"/>
	<path class="st1" d="M461.9,312.1c-1.6-0.2-3.1-0.4-4.7-0.6L401.3,386h5.1L461.9,312.1z"/>
	<path class="st1" d="M432.8,308.4c-1.6-0.2-3.1-0.4-4.7-0.6L369.4,386h5.1L432.8,308.4z"/>
	<path class="st1" d="M392.2,302.9c-1.5-0.2-3.1-0.4-4.6-0.7L324.7,386h5.1L392.2,302.9z"/>
	<path class="st1" d="M450.2,310.7c-1.6-0.2-3.1-0.4-4.7-0.6l-57,75.9h5.1L450.2,310.7z"/>
	<path class="st1" d="M456,311.4c-1.6-0.2-3.1-0.4-4.7-0.6L394.9,386h5.1L456,311.4z"/>
	<path class="st1" d="M444.4,309.9c-1.6-0.2-3.1-0.4-4.7-0.6L382.1,386h5.1L444.4,309.9z"/>
	<path class="st1" d="M438.6,309.2c-1.6-0.2-3.1-0.4-4.7-0.6L375.8,386h5.1L438.6,309.2z"/>
	<path class="st1" d="M346.2,296.2c-1.5-0.2-3.1-0.5-4.6-0.7l-68,90.5h5.1L346.2,296.2z"/>
	<path class="st1" d="M334.7,294.4c-1.5-0.2-3.1-0.5-4.6-0.7L260.9,386h5.1L334.7,294.4z"/>
	<path class="st1" d="M340.5,295.3c-1.5-0.2-3.1-0.5-4.6-0.7L267.2,386h5.1L340.5,295.3z"/>
	<path class="st1" d="M329,293.5c-1.5-0.2-3.1-0.5-4.6-0.7L254.5,386h5.1L329,293.5z"/>
	<path class="st1" d="M317.6,291.7c-1.5-0.2-3.1-0.5-4.6-0.7l-71.3,95h5.1L317.6,291.7z"/>
	<path class="st1" d="M323.3,292.6c-1.5-0.2-3.1-0.5-4.6-0.7L248.1,386h5.1L323.3,292.6z"/>
	<path class="st1" d="M467.7,312.9c-1.6-0.2-3.1-0.4-4.7-0.6L407.7,386h5.1L467.7,312.9z"/>
	<path class="st1" d="M351.9,297c-1.5-0.2-3.1-0.5-4.6-0.7L280,386h5.1L351.9,297z"/>
	<path class="st1" d="M374.9,300.4c-1.5-0.2-3.1-0.4-4.6-0.7L305.5,386h5.1L374.9,300.4z"/>
	<path class="st1" d="M380.7,301.2c-1.5-0.2-3.1-0.4-4.6-0.7L311.9,386h5.1L380.7,301.2z"/>
	<path class="st1" d="M369.2,299.6c-1.5-0.2-3.1-0.4-4.6-0.7L299.2,386h5.1L369.2,299.6z"/>
	<path class="st1" d="M386.4,302.1c-1.5-0.2-3.1-0.4-4.6-0.7L318.3,386h5.1L386.4,302.1z"/>
	<path class="st1" d="M363.4,298.7c-1.5-0.2-3.1-0.5-4.6-0.7l-66,88h5.1L363.4,298.7z"/>
	<path class="st1" d="M357.7,297.9c-1.5-0.2-3.1-0.5-4.6-0.7L286.4,386h5.1L357.7,297.9z"/>
	<path class="st1" d="M479.4,314.3c-1.6-0.2-3.1-0.4-4.7-0.6L420.4,386h5.1L479.4,314.3z"/>
	<path class="st1" d="M585.5,326c-1.6-0.2-3.2-0.3-4.8-0.5L535.3,386h5.1L585.5,326z"/>
	<path class="st1" d="M590.9,326.5c-1.4-0.1-2.8-0.3-4.2-0.4l-45,59.9h4.6L590.9,326.5z"/>
	<path class="st1" d="M555.9,322.9c-1.6-0.2-3.2-0.3-4.8-0.5L503.4,386h5.1L555.9,322.9z"/>
	<path class="st1" d="M561.8,323.6c-1.6-0.2-3.2-0.3-4.8-0.5L509.8,386h5.1L561.8,323.6z"/>
	<path class="st1" d="M473.6,313.6c-1.6-0.2-3.1-0.4-4.7-0.6l-54.8,73h5.1L473.6,313.6z"/>
	<path class="st1" d="M596.9,327.1c-1.6-0.2-3.2-0.3-4.8-0.5L547.5,386h5.1L596.9,327.1z"/>
	<path class="st1" d="M567.7,324.2c-1.6-0.2-3.2-0.3-4.8-0.5L516.2,386h5.1L567.7,324.2z"/>
	<path class="st1" d="M579.6,325.4c-1.6-0.2-3.2-0.3-4.8-0.5L529,386h5.1L579.6,325.4z"/>
	<path class="st1" d="M626.7,329.9c-1.6-0.1-3.2-0.3-4.8-0.4L579.5,386h5.1L626.7,329.9z"/>
	<path class="st1" d="M620.7,329.4c-1.6-0.1-3.2-0.3-4.8-0.5L573.1,386h5.1L620.7,329.4z"/>
	<path class="st1" d="M632.6,330.5c-1.6-0.1-3.2-0.3-4.8-0.4l-42,56h5.1L632.6,330.5z"/>
	<path class="st1" d="M608.8,328.3c-1.6-0.2-3.2-0.3-4.8-0.5L560.3,386h5.1L608.8,328.3z"/>
	<path class="st1" d="M614.7,328.8c-1.6-0.2-3.2-0.3-4.8-0.5L566.7,386h5.1L614.7,328.8z"/>
	<path class="st1" d="M602.8,327.7c-1.6-0.2-3.2-0.3-4.8-0.5L553.9,386h5.1L602.8,327.7z"/>
	<path class="st1" d="M573.7,324.8c-1.6-0.2-3.2-0.3-4.8-0.5L522.6,386h5.1L573.7,324.8z"/>
	<path class="st1" d="M497,316.4c-1.6-0.2-3.1-0.4-4.7-0.6L439.6,386h5.1L497,316.4z"/>
	<path class="st1" d="M491.1,315.7c-1.6-0.2-3.1-0.4-4.7-0.6L433.2,386h5.1L491.1,315.7z"/>
	<path class="st1" d="M502.8,317.1c-1.6-0.2-3.1-0.4-4.7-0.5L446,386h5.1L502.8,317.1z"/>
	<path class="st1" d="M485.3,315c-1.6-0.2-3.1-0.4-4.7-0.6L426.8,386h5.1L485.3,315z"/>
	<path class="st1" d="M508.7,317.7c-1.6-0.2-3.1-0.4-4.7-0.5L452.4,386h5.1L508.7,317.7z"/>
	<path class="st1" d="M550,322.3c-1.6-0.2-3.2-0.3-4.8-0.5L497,386h5.1L550,322.3z"/>
	<path class="st1" d="M311.9,290.8c-1.5-0.2-3.1-0.5-4.6-0.7l-72,95.9h5.1L311.9,290.8z"/>
	<path class="st1" d="M538.2,321c-1.6-0.2-3.2-0.3-4.7-0.5L484.3,386h5.1L538.2,321z"/>
	<path class="st1" d="M532.3,320.4c-1.6-0.2-3.2-0.3-4.7-0.5L477.9,386h5.1L532.3,320.4z"/>
	<path class="st1" d="M544.1,321.7c-1.6-0.2-3.2-0.3-4.7-0.5L490.7,386h5.1L544.1,321.7z"/>
	<path class="st1" d="M520.5,319.1c-1.6-0.2-3.2-0.4-4.7-0.5L465.1,386h5.1L520.5,319.1z"/>
	<path class="st1" d="M514.6,318.4c-1.6-0.2-3.2-0.4-4.7-0.5L458.7,386h5.1L514.6,318.4z"/>
	<path class="st1" d="M526.4,319.7c-1.6-0.2-3.2-0.4-4.7-0.5L471.5,386h5.1L526.4,319.7z"/>
	<path class="st1" d="M6.9,229.3c-1.4-0.4-2.9-0.7-4.3-1.1L0,231.8v6.8L6.9,229.3z"/>
	<path class="st1" d="M66.6,243.5c-1.5-0.3-2.9-0.7-4.4-1L0,325.3v6.8L66.6,243.5z"/>
	<path class="st1" d="M93.9,249.6c-1.5-0.3-2.9-0.6-4.4-1L0,367.9v6.8L93.9,249.6z"/>
	<path class="st1" d="M82.9,247.2c-1.5-0.3-2.9-0.7-4.4-1L0,350.8v6.8L82.9,247.2z"/>
	<path class="st1" d="M88.4,248.4c-1.5-0.3-2.9-0.6-4.4-1L0,359.3v6.8L88.4,248.4z"/>
	<path class="st1" d="M72,244.7c-1.5-0.3-2.9-0.7-4.4-1L0,333.8v6.8L72,244.7z"/>
	<path class="st1" d="M77.5,245.9c-1.5-0.3-2.9-0.7-4.4-1L0,342.3v6.8L77.5,245.9z"/>
	<path class="st1" d="M99.4,250.8c-1.5-0.3-2.9-0.6-4.4-1L0,376.4v6.8L99.4,250.8z"/>
	<path class="st1" d="M132.4,257.8c-1.5-0.3-3-0.6-4.4-0.9L31.1,386h5.1L132.4,257.8z"/>
	<path class="st1" d="M110.3,253.2c-1.5-0.3-2.9-0.6-4.4-1L5.5,386h5.1L110.3,253.2z"/>
	<path class="st1" d="M126.9,256.7c-1.5-0.3-3-0.6-4.4-0.9L24.7,386h5.1L126.9,256.7z"/>
	<path class="st1" d="M137.9,259c-1.5-0.3-3-0.6-4.4-0.9L37.4,386h5.1L137.9,259z"/>
	<path class="st1" d="M121.3,255.5c-1.5-0.3-3-0.6-4.4-0.9L18.3,386h5.1L121.3,255.5z"/>
	<path class="st1" d="M115.8,254.4c-1.5-0.3-2.9-0.6-4.4-0.9L11.9,386H17L115.8,254.4z"/>
	<path class="st1" d="M12.3,230.7c-1.4-0.4-2.9-0.7-4.3-1.1l-8,10.7v6.8L12.3,230.7z"/>
	<path class="st1" d="M143.4,260.1c-1.5-0.3-3-0.6-4.4-0.9L43.8,386H49L143.4,260.1z"/>
	<path class="st1" d="M23.1,233.3c-1.4-0.3-2.9-0.7-4.3-1.1L0,257.3v6.8L23.1,233.3z"/>
	<path class="st1" d="M17.7,232c-1.4-0.4-2.9-0.7-4.3-1.1L0,248.8v6.8L17.7,232z"/>
	<path class="st1" d="M0,230.1l1.6-2.1c-0.5-0.1-1-0.3-1.6-0.4V230.1z"/>
	<path class="st1" d="M100.4,251L0,384.9v1.1h4.3l100.6-134C103.4,251.7,101.9,251.4,100.4,251z"/>
	<path class="st1" d="M638.6,331c-1.6-0.1-3.2-0.3-4.8-0.4L592.2,386h5.1L638.6,331z"/>
	<path class="st1" d="M28.5,234.6c-1.5-0.3-2.9-0.7-4.4-1L0,265.8v6.8L28.5,234.6z"/>
	<path class="st1" d="M61.1,242.2c-1.5-0.3-2.9-0.7-4.4-1L0,316.8v6.8L61.1,242.2z"/>
	<path class="st1" d="M55.7,241c-1.5-0.3-2.9-0.7-4.4-1L0,308.3v6.8L55.7,241z"/>
	<path class="st1" d="M44.8,238.4c-1.5-0.3-2.9-0.7-4.4-1L0,291.3v6.8L44.8,238.4z"/>
	<path class="st1" d="M50.2,239.7c-1.5-0.3-2.9-0.7-4.4-1L0,299.8v6.8L50.2,239.7z"/>
	<path class="st1" d="M34,235.9c-1.5-0.3-2.9-0.7-4.4-1L0,274.3v6.8L34,235.9z"/>
	<path class="st1" d="M39.4,237.2c-1.5-0.3-2.9-0.7-4.4-1L0,282.8v6.8L39.4,237.2z"/>
	<path class="st1" d="M300.5,289c-1.5-0.2-3-0.5-4.6-0.7L222.6,386h5.1L300.5,289z"/>
	<path class="st1" d="M243.9,279.3c-1.5-0.3-3-0.5-4.5-0.8L158.7,386h5.1L243.9,279.3z"/>
	<path class="st1" d="M266.5,283.3c-1.5-0.3-3-0.5-4.5-0.8L184.3,386h5.1L266.5,283.3z"/>
	<path class="st1" d="M260.8,282.3c-1.5-0.3-3-0.5-4.5-0.8L177.9,386h5.1L260.8,282.3z"/>
	<path class="st1" d="M255.2,281.3c-1.5-0.3-3-0.5-4.5-0.8L171.5,386h5.1L255.2,281.3z"/>
	<path class="st1" d="M238.3,278.3c-1.5-0.3-3-0.5-4.5-0.8L152.3,386h5.1L238.3,278.3z"/>
	<path class="st1" d="M232.6,277.3c-1.5-0.3-3-0.5-4.5-0.8L146,386h5.1L232.6,277.3z"/>
	<path class="st1" d="M289.1,287.1c-1.5-0.3-3-0.5-4.6-0.8L209.8,386h5.1L289.1,287.1z"/>
	<path class="st1" d="M227,276.3c-1.5-0.3-3-0.5-4.5-0.8L139.6,386h5.1L227,276.3z"/>
	<path class="st1" d="M294.8,288c-1.5-0.3-3-0.5-4.6-0.8l-74,98.8h5.1L294.8,288z"/>
	<path class="st1" d="M306.2,289.9c-1.5-0.2-3.1-0.5-4.6-0.7L228.9,386h5.1L306.2,289.9z"/>
	<path class="st1" d="M283.5,286.2c-1.5-0.3-3-0.5-4.6-0.8L203.4,386h5.1L283.5,286.2z"/>
	<path class="st1" d="M272.1,284.3c-1.5-0.3-3-0.5-4.6-0.8L190.6,386h5.1L272.1,284.3z"/>
	<path class="st1" d="M277.8,285.2c-1.5-0.3-3-0.5-4.6-0.8L197,386h5.1L277.8,285.2z"/>
	<path class="st1" d="M149,261.3c-1.5-0.3-3-0.6-4.5-0.9L50.2,386h5.1L149,261.3z"/>
	<path class="st1" d="M165.6,264.6c-1.5-0.3-3-0.6-4.5-0.9L69.4,386h5.1L165.6,264.6z"/>
	<path class="st1" d="M171.2,265.7c-1.5-0.3-3-0.6-4.5-0.9L75.7,386h5.1L171.2,265.7z"/>
	<path class="st1" d="M221.4,275.3c-1.5-0.3-3-0.6-4.5-0.8L133.2,386h5.1L221.4,275.3z"/>
	<path class="st1" d="M182.3,267.9c-1.5-0.3-3-0.6-4.5-0.9L88.5,386h5.1L182.3,267.9z"/>
	<path class="st1" d="M154.5,262.4c-1.5-0.3-3-0.6-4.5-0.9L56.6,386h5.1L154.5,262.4z"/>
	<path class="st1" d="M160,263.5c-1.5-0.3-3-0.6-4.5-0.9L63,386h5.1L160,263.5z"/>
	<path class="st1" d="M176.7,266.8c-1.5-0.3-3-0.6-4.5-0.9L82.1,386h5.1L176.7,266.8z"/>
	<path class="st1" d="M210.2,273.2c-1.5-0.3-3-0.6-4.5-0.8L120.4,386h5.1L210.2,273.2z"/>
	<path class="st1" d="M187.9,269c-1.5-0.3-3-0.6-4.5-0.9L94.9,386h5.1L187.9,269z"/>
	<path class="st1" d="M204.6,272.2c-1.5-0.3-3-0.6-4.5-0.8L114,386h5.1L204.6,272.2z"/>
	<path class="st1" d="M215.8,274.3c-1.5-0.3-3-0.6-4.5-0.8L126.8,386h5.1L215.8,274.3z"/>
	<path class="st1" d="M199,271.1c-1.5-0.3-3-0.6-4.5-0.9L107.7,386h5.1L199,271.1z"/>
	<path class="st1" d="M193.4,270c-1.5-0.3-3-0.6-4.5-0.9L101.3,386h5.1L193.4,270z"/>
	<path class="st1" d="M249.5,280.3c-1.5-0.3-3-0.5-4.5-0.8L165.1,386h5.1L249.5,280.3z"/>
	<path class="st1" d="M1111.1,356.4c-1.7,0-3.4-0.1-5-0.1l-22.3,29.7h5.1L1111.1,356.4z"/>
	<path class="st1" d="M1104.8,356.3c-1.7,0-3.4-0.1-5-0.1l-22.4,29.9h5.1L1104.8,356.3z"/>
	<path class="st1" d="M1117.4,356.6c-1.7,0-3.4-0.1-5-0.1l-22.2,29.6h5.1L1117.4,356.6z"/>
	<path class="st1" d="M1086,355.8c-1.7,0-3.4-0.1-5-0.1l-22.8,30.3h5.1L1086,355.8z"/>
	<path class="st1" d="M1098.5,356.1c-1.7,0-3.4-0.1-5-0.1l-22.5,30h5.1L1098.5,356.1z"/>
	<path class="st1" d="M1079.7,355.6c-1.7,0-3.4-0.1-5-0.1l-22.9,30.5h5.1L1079.7,355.6z"/>
	<path class="st1" d="M1092.3,356c-1.7,0-3.4-0.1-5-0.1l-22.6,30.2h5.1L1092.3,356z"/>
	<path class="st1" d="M1123.6,356.7c-1.7,0-3.4-0.1-5-0.1l-22.1,29.4h5.1L1123.6,356.7z"/>
	<path class="st1" d="M1129.9,356.8c-1.7,0-3.4-0.1-5.1-0.1l-22,29.3h5.1L1129.9,356.8z"/>
	<path class="st1" d="M1161.4,357.4c-1.7,0-3.4-0.1-5.1-0.1l-21.5,28.7h5.1L1161.4,357.4z"/>
	<path class="st1" d="M1148.8,357.2c-1.7,0-3.4-0.1-5.1-0.1L1122,386h5.1L1148.8,357.2z"/>
	<path class="st1" d="M1155.1,357.3c-1.7,0-3.4-0.1-5.1-0.1l-21.6,28.8h5.1L1155.1,357.3z"/>
	<path class="st1" d="M1142.5,357.1c-1.7,0-3.4-0.1-5.1-0.1l-21.8,29h5.1L1142.5,357.1z"/>
	<path class="st1" d="M1136.2,357c-1.7,0-3.4-0.1-5.1-0.1l-21.9,29.2h5.1L1136.2,357z"/>
	<path class="st1" d="M1011.1,353.5c-1.7-0.1-3.3-0.1-5-0.2L981.6,386h5.1L1011.1,353.5z"/>
	<path class="st1" d="M1017.3,353.7c-1.7-0.1-3.3-0.1-5-0.2L988,386h5.1L1017.3,353.7z"/>
	<path class="st1" d="M1167.7,357.5c-1.7,0-3.4-0.1-5.1-0.1l-21.4,28.5h5.1L1167.7,357.5z"/>
	<path class="st1" d="M1023.6,354c-1.7-0.1-3.3-0.1-5-0.2L994.4,386h5.1L1023.6,354z"/>
	<path class="st1" d="M1029.8,354.2c-1.7-0.1-3.3-0.1-5-0.2l-24,32h5.1L1029.8,354.2z"/>
	<path class="st1" d="M1004.9,353.3c-1.7-0.1-3.3-0.1-5-0.2L975.2,386h5.1L1004.9,353.3z"/>
	<path class="st1" d="M998.7,353.1c-1.7-0.1-3.3-0.1-5-0.2L968.8,386h5.1L998.7,353.1z"/>
	<path class="st1" d="M1048.5,354.7c-1.7-0.1-3.3-0.1-5-0.2l-23.6,31.4h5.1L1048.5,354.7z"/>
	<path class="st1" d="M1061,355.1c-1.7,0-3.4-0.1-5-0.1l-23.3,31h5.1L1061,355.1z"/>
	<path class="st1" d="M1067.2,355.3c-1.7,0-3.4-0.1-5-0.1l-23.2,30.9h5.1L1067.2,355.3z"/>
	<path class="st1" d="M644.6,331.6c-1.6-0.1-3.2-0.3-4.8-0.4L598.6,386h5.1L644.6,331.6z"/>
	<path class="st1" d="M1054.7,354.9c-1.7,0-3.3-0.1-5-0.2l-23.4,31.2h5.1L1054.7,354.9z"/>
	<path class="st1" d="M1073.5,355.5c-1.7,0-3.4-0.1-5-0.1l-23,30.7h5.1L1073.5,355.5z"/>
	<path class="st1" d="M1042.3,354.6c-1.7-0.1-3.3-0.1-5-0.2l-23.7,31.6h5.1L1042.3,354.6z"/>
	<path class="st1" d="M1205.5,358.1c-1.7,0-3.4,0-5.1-0.1l-21,27.9h5.1L1205.5,358.1z"/>
	<path class="st1" d="M1287.9,358.9c-1.7,0-3.4,0-5.1,0l-20.4,27.1h5.1L1287.9,358.9z"/>
	<path class="st1" d="M1294.3,358.9c-1.7,0-3.4,0-5.1,0l-20.3,27.1h5.1L1294.3,358.9z"/>
	<path class="st1" d="M1281.6,358.9c-1.7,0-3.4,0-5.1,0l-20.4,27.2h5.1L1281.6,358.9z"/>
	<path class="st1" d="M1275.2,358.8c-1.7,0-3.4,0-5.1,0l-20.4,27.2h5.1L1275.2,358.8z"/>
	<path class="st1" d="M1268.9,358.8c-1.7,0-3.4,0-5.1,0l-20.5,27.3h5.1L1268.9,358.8z"/>
	<path class="st1" d="M1300.7,359c-1.7,0-3.4,0-5.1,0l-20.3,27.1h5.1L1300.7,359z"/>
	<path class="st1" d="M1307,359c-1.7,0-3.4,0-5.1,0l-20.3,27h5.1L1307,359z"/>
	<path class="st1" d="M1174,357.7c-1.7,0-3.4-0.1-5.1-0.1l-21.3,28.4h5.1L1174,357.7z"/>
	<path class="st1" d="M1262.5,358.7c-1.7,0-3.4,0-5.1,0l-20.5,27.3h5.1L1262.5,358.7z"/>
	<path class="st1" d="M1319.1,378.6l-5.6,7.4h5.1C1318.8,383.6,1319,381.1,1319.1,378.6z"/>
	<path class="st1" d="M1319.7,367.7c0.1-2.4,0.2-4.8,0.3-7.2l-19.2,25.6h5.1L1319.7,367.7z"/>
	<path class="st1" d="M1319.8,359c-1.7,0-3.4,0-5.1,0l-20.3,27h5.1L1319.8,359z"/>
	<path class="st1" d="M1313.4,359c-1.7,0-3.4,0-5.1,0l-20.3,27h5.1L1313.4,359z"/>
	<path class="st1" d="M1319.2,376.8c0.1-2.4,0.3-4.9,0.4-7.3l-12.4,16.6h5.1L1319.2,376.8z"/>
	<path class="st1" d="M1199.2,358c-1.7,0-3.4,0-5.1-0.1l-21,28h5.1L1199.2,358z"/>
	<path class="st1" d="M1211.9,358.2c-1.7,0-3.4,0-5.1-0.1l-20.9,27.9h5.1L1211.9,358.2z"/>
	<path class="st1" d="M992.5,352.9c-1.7-0.1-3.3-0.1-5-0.2l-25,33.3h5.1L992.5,352.9z"/>
	<path class="st1" d="M1192.9,357.9c-1.7,0-3.4,0-5.1-0.1l-21.1,28.1h5.1L1192.9,357.9z"/>
	<path class="st1" d="M1256.2,358.7c-1.7,0-3.4,0-5.1,0l-20.5,27.4h5.1L1256.2,358.7z"/>
	<path class="st1" d="M1180.3,357.8c-1.7,0-3.4-0.1-5.1-0.1L1154,386h5.1L1180.3,357.8z"/>
	<path class="st1" d="M1186.6,357.9c-1.7,0-3.4-0.1-5.1-0.1l-21.2,28.2h5.1L1186.6,357.9z"/>
	<path class="st1" d="M1218.2,358.3c-1.7,0-3.4,0-5.1-0.1l-20.8,27.8h5.1L1218.2,358.3z"/>
	<path class="st1" d="M1249.9,358.6c-1.7,0-3.4,0-5.1,0l-20.6,27.4h5.1L1249.9,358.6z"/>
	<path class="st1" d="M1237.2,358.5c-1.7,0-3.4,0-5.1-0.1l-20.7,27.6h5.1L1237.2,358.5z"/>
	<path class="st1" d="M1243.5,358.6c-1.7,0-3.4,0-5.1-0.1l-20.6,27.5h5.1L1243.5,358.6z"/>
	<path class="st1" d="M1230.8,358.4c-1.7,0-3.4,0-5.1-0.1L1205,386h5.1L1230.8,358.4z"/>
	<path class="st1" d="M1224.5,358.4c-1.7,0-3.4,0-5.1-0.1l-20.8,27.7h5.1L1224.5,358.4z"/>
	<path class="st1" d="M1036,354.4c-1.7-0.1-3.3-0.1-5-0.2l-23.9,31.8h5.1L1036,354.4z"/>
	<path class="st1" d="M759.1,340.6c-1.6-0.1-3.3-0.2-4.9-0.3L719.9,386h5.1L759.1,340.6z"/>
	<path class="st1" d="M753,340.2c-1.6-0.1-3.3-0.2-4.9-0.3L713.5,386h5.1L753,340.2z"/>
	<path class="st1" d="M765.2,341c-1.6-0.1-3.3-0.2-4.9-0.3l-34,45.3h5.1L765.2,341z"/>
	<path class="st1" d="M771.2,341.4c-1.6-0.1-3.3-0.2-4.9-0.3L732.7,386h5.1L771.2,341.4z"/>
	<path class="st1" d="M734.9,338.9c-1.6-0.1-3.2-0.2-4.9-0.4L694.4,386h5.1L734.9,338.9z"/>
	<path class="st1" d="M740.9,339.3c-1.6-0.1-3.2-0.2-4.9-0.4l-35.3,47h5.1L740.9,339.3z"/>
	<path class="st1" d="M728.8,338.4c-1.6-0.1-3.2-0.2-4.9-0.4L688,386h5.1L728.8,338.4z"/>
	<path class="st1" d="M747,339.8c-1.6-0.1-3.2-0.2-4.9-0.4l-35,46.6h5.1L747,339.8z"/>
	<path class="st1" d="M777.3,341.9c-1.6-0.1-3.3-0.2-4.9-0.3L739,386h5.1L777.3,341.9z"/>
	<path class="st1" d="M807.7,343.8c-1.6-0.1-3.3-0.2-4.9-0.3L771,386h5.1L807.7,343.8z"/>
	<path class="st1" d="M795.6,343c-1.6-0.1-3.3-0.2-4.9-0.3L758.2,386h5.1L795.6,343z"/>
	<path class="st1" d="M801.7,343.4c-1.6-0.1-3.3-0.2-4.9-0.3L764.6,386h5.1L801.7,343.4z"/>
	<path class="st1" d="M783.4,342.3c-1.6-0.1-3.3-0.2-4.9-0.3l-33.1,44h5.1L783.4,342.3z"/>
	<path class="st1" d="M789.5,342.7c-1.6-0.1-3.3-0.2-4.9-0.3L751.8,386h5.1L789.5,342.7z"/>
	<path class="st1" d="M662.6,333.1c-1.6-0.1-3.2-0.3-4.8-0.4l-40,53.3h5.1L662.6,333.1z"/>
	<path class="st1" d="M668.6,333.6c-1.6-0.1-3.2-0.3-4.8-0.4L624.1,386h5.1L668.6,333.6z"/>
	<path class="st1" d="M813.9,344.2c-1.6-0.1-3.3-0.2-4.9-0.3L777.3,386h5.1L813.9,344.2z"/>
	<path class="st1" d="M680.6,334.6c-1.6-0.1-3.2-0.3-4.8-0.4L636.9,386h5.1L680.6,334.6z"/>
	<path class="st1" d="M674.6,334.1c-1.6-0.1-3.2-0.3-4.8-0.4L630.5,386h5.1L674.6,334.1z"/>
	<path class="st1" d="M656.6,332.6c-1.6-0.1-3.2-0.3-4.8-0.4L611.4,386h5.1L656.6,332.6z"/>
	<path class="st1" d="M650.6,332.1c-1.6-0.1-3.2-0.3-4.8-0.4L605,386h5.1L650.6,332.1z"/>
	<path class="st1" d="M710.7,337.1c-1.6-0.1-3.2-0.3-4.8-0.4l-37,49.3h5.1L710.7,337.1z"/>
	<path class="st1" d="M686.6,335.1c-1.6-0.1-3.2-0.3-4.8-0.4L643.3,386h5.1L686.6,335.1z"/>
	<path class="st1" d="M722.8,338c-1.6-0.1-3.2-0.2-4.9-0.4L681.6,386h5.1L722.8,338z"/>
	<path class="st1" d="M716.7,337.5c-1.6-0.1-3.2-0.2-4.9-0.4L675.2,386h5.1L716.7,337.5z"/>
	<path class="st1" d="M704.7,336.6c-1.6-0.1-3.2-0.3-4.8-0.4L662.4,386h5.1L704.7,336.6z"/>
	<path class="st1" d="M698.6,336.1c-1.6-0.1-3.2-0.3-4.8-0.4L656.1,386h5.1L698.6,336.1z"/>
	<path class="st1" d="M692.6,335.6c-1.6-0.1-3.2-0.3-4.8-0.4L649.7,386h5.1L692.6,335.6z"/>
	<path class="st1" d="M936.7,350.6c-1.7-0.1-3.3-0.1-5-0.2L905,386h5.1L936.7,350.6z"/>
	<path class="st1" d="M930.5,350.3c-1.7-0.1-3.3-0.1-5-0.2L898.6,386h5.1L930.5,350.3z"/>
	<path class="st1" d="M924.3,350.1c-1.7-0.1-3.3-0.2-5-0.2L892.2,386h5.1L924.3,350.1z"/>
	<path class="st1" d="M942.9,350.9c-1.7-0.1-3.3-0.1-5-0.2L911.4,386h5.1L942.9,350.9z"/>
	<path class="st1" d="M986.2,352.6c-1.7-0.1-3.3-0.1-5-0.2L956.1,386h5.1L986.2,352.6z"/>
	<path class="st1" d="M918.2,349.8c-1.7-0.1-3.3-0.2-5-0.2L885.9,386h5.1L918.2,349.8z"/>
	<path class="st1" d="M912,349.5c-1.7-0.1-3.3-0.2-5-0.2L879.5,386h5.1L912,349.5z"/>
	<path class="st1" d="M980,352.4c-1.7-0.1-3.3-0.1-5-0.2L949.7,386h5.1L980,352.4z"/>
	<path class="st1" d="M967.6,351.9c-1.7-0.1-3.3-0.1-5-0.2L936.9,386h5.1L967.6,351.9z"/>
	<path class="st1" d="M973.8,352.2c-1.7-0.1-3.3-0.1-5-0.2l-25.5,34h5.1L973.8,352.2z"/>
	<path class="st1" d="M905.8,349.2c-1.7-0.1-3.3-0.2-5-0.2L873,386h5.1L905.8,349.2z"/>
	<path class="st1" d="M961.4,351.7c-1.7-0.1-3.3-0.1-5-0.2L930.5,386h5.1L961.4,351.7z"/>
	<path class="st1" d="M955.2,351.4c-1.7-0.1-3.3-0.1-5-0.2l-26,34.8h5.1L955.2,351.4z"/>
	<path class="st1" d="M949.1,351.2c-1.7-0.1-3.3-0.1-5-0.2l-26.3,35h5.1L949.1,351.2z"/>
	<path class="st1" d="M899.7,348.9c-1.7-0.1-3.3-0.2-4.9-0.2l-28,37.3h5.1L899.7,348.9z"/>
	<path class="st1" d="M838.3,345.6c-1.6-0.1-3.3-0.2-4.9-0.3L802.9,386h5.1L838.3,345.6z"/>
	<path class="st1" d="M844.4,346c-1.6-0.1-3.3-0.2-4.9-0.3L809.3,386h5.1L844.4,346z"/>
	<path class="st1" d="M856.7,346.7c-1.6-0.1-3.3-0.2-4.9-0.3L822,386h5.1L856.7,346.7z"/>
	<path class="st1" d="M850.5,346.3c-1.6-0.1-3.3-0.2-4.9-0.3l-30,39.9h5.1L850.5,346.3z"/>
	<path class="st1" d="M832.2,345.3c-1.6-0.1-3.3-0.2-4.9-0.3l-30.8,41h5.1L832.2,345.3z"/>
	<path class="st1" d="M826.1,344.9c-1.6-0.1-3.3-0.2-4.9-0.3l-31,41.4h5.1L826.1,344.9z"/>
	<path class="st1" d="M862.8,347c-1.6-0.1-3.3-0.2-4.9-0.3L828.4,386h5.1L862.8,347z"/>
	<path class="st1" d="M887.4,348.3c-1.7-0.1-3.3-0.2-4.9-0.3L854,386h5.1L887.4,348.3z"/>
	<path class="st1" d="M820,344.6c-1.6-0.1-3.3-0.2-4.9-0.3L783.7,386h5.1L820,344.6z"/>
	<path class="st1" d="M893.5,348.6c-1.6-0.1-3.3-0.2-4.9-0.2L860.3,386h5.1L893.5,348.6z"/>
	<path class="st1" d="M881.2,348c-1.6-0.1-3.3-0.2-4.9-0.3L847.6,386h5.1L881.2,348z"/>
	<path class="st1" d="M868.9,347.3c-1.6-0.1-3.3-0.2-4.9-0.3l-29.2,39h5.1L868.9,347.3z"/>
	<path class="st1" d="M875.1,347.7c-1.6-0.1-3.3-0.2-4.9-0.3l-29,38.6h5.1L875.1,347.7z"/>
</g>
<desc>Created with Sketch.</desc>
<g>
	<path class="st2" d="M1440,179.2c-260.8,131.4-599.8,192-980.8,206.8H1440V179.2z"/>
	<path class="st2" d="M52.9,386c-17.6-0.6-35.2-1.3-52.9-2c0,0.7,0,1.3,0,2H52.9z"/>
</g>
</svg>
