<svg viewBox="0 0 1001 354" className="logo-comcast">
          <g stroke="none" strokeWidth="1" fill="none" fillRule="evenodd">
            <g fillRule="nonzero">
              <path
        d="M500.044,17.759 C503.732,11.737 509.851,5.436 516.44,2.771 C527.781,-2.389 542.982,-0.17 552.235,7.995 C561.189,16.107 565.731,27.225 563.588,39.655 C565.784,39.25 568.001,37.844 570.326,37.044 C584.225,33.121 598.925,37.375 607.837,49.292 C614.531,57.799 616.28,71.016 612.262,81.293 C610.268,86.462 606.867,91.11 602.445,95.076 L602.891,95.524 C615.822,96.152 628.53,106.194 632.452,118.506 C636.705,130.925 632.964,144.196 623.882,153.279 C616.462,160.613 606.921,163.151 596.315,162.937 L403.765,162.937 C387.955,163.278 375.739,156.274 369.162,142.215 C364.002,130.147 366.55,114.712 376.186,105.513 C382.262,99.159 389.874,96.557 398.082,95.247 C388.787,86.623 384.309,74.823 386.921,62.169 C388.787,51.915 397.528,41.532 407.569,37.95 C416.416,34.432 428.399,35.05 436.501,39.825 L436.789,39.473 C434.348,25.519 440.531,12.93 452.106,5.212 C462.426,-1.769 478.927,-1.589 489.032,5.832 C493.574,8.613 497.315,13.389 500.044,17.759"
        fill="#FFFFFF"
      />
              <path
        d="M554.558,22.972 C558.695,31.319 556.265,42.256 551.947,49.75 L518.539,124.913 L518.25,125.265 L506.174,49.015 C505.205,41.693 513.028,38.569 517.633,35.051 C517.399,33.975 516.215,34.028 515.47,33.527 L504.182,33.409 L503.839,33.068 C503.903,23.602 508.999,14.861 517.633,10.267 C526.653,5.055 539.358,6.472 547.182,13.156 C550.359,15.99 553.035,19.283 554.558,22.972"
        fill="#888"
      />
              <path
        d="M493.008,20.36 C495.738,25.413 497.316,31.149 496.356,37.501 L482.733,124.806 C482.807,124.912 482.68,125.03 482.572,125.082 L479.044,118.058 L444.9,41.808 C441.723,31.99 444.666,21.725 451.818,14.688 C459.024,7.376 470.878,5.393 480.302,9.359 C485.291,11.513 490.056,15.479 493.008,20.36"
        fill="#888"
      />
              <path
        d="M603.978,57.115 C608.572,64.949 607.539,76.804 602.431,84.074 C599.267,89.18 594.042,91.728 589.618,95.075 L518.87,143.64 L518.708,143.64 L519.498,141.317 L557,56.668 C562.618,46.69 573.342,41.637 584.684,43.161 C592.455,44.58 600.226,49.632 603.978,57.115"
        fill="#888"
      />
              <path
        d="M443.259,56.668 L482.285,143.631 L481.657,143.631 L402.977,89.404 C394.97,82.657 391.688,72.551 394.406,62.339 C396.442,54.685 402.795,47.533 410.353,44.696 C422.728,40.166 436.67,44.984 443.259,56.668"
        fill="#888"
      />
              <path
        d="M624.509,118.505 C628.431,126.788 626.886,138.13 621.279,145.175 C615.716,151.924 608.274,155.612 599.543,155.377 L515.65,155.431 L585.929,106.535 C592.796,102.111 603.232,101.31 610.726,104.892 C616.513,107.163 621.961,112.834 624.509,118.505"
        fill="#888"
      />
              <path
        d="M376.08,118.505 C372.169,126.788 373.703,138.13 379.321,145.175 C384.885,151.924 392.304,155.612 401.046,155.377 L484.939,155.431 L414.659,106.535 C407.794,102.111 397.359,101.31 389.875,104.892 C384.085,107.163 378.639,112.834 376.08,118.505"
        fill="#888"
      />
              <path
        d="M225.435,205.65 C184.672,205.65 151.542,238.802 151.542,279.566 C151.542,320.319 184.672,353.491 225.435,353.491 C266.199,353.491 299.351,320.319 299.351,279.566 C299.351,238.803 266.199,205.65 225.435,205.65 M225.435,338.93 C192.699,338.93 166.06,312.293 166.06,279.567 C166.06,246.85 192.699,220.212 225.435,220.212 C258.172,220.212 284.811,246.851 284.811,279.567 C284.811,312.293 258.172,338.93 225.435,338.93"
        fill="#888"
      />
              <path
        d="M862.724,280.504 C858.759,278.424 834.636,266.006 831.171,264.205 C818.518,257.734 814.03,252.02 814.03,242.341 C814.03,228.889 825.075,220.201 842.203,220.201 C852.257,220.201 861.977,224.625 867.681,227.833 C868.716,228.398 869.942,228.718 871.22,228.718 C875.207,228.718 878.48,225.446 878.48,221.459 C878.48,218.773 877.007,216.416 874.845,215.158 C867.661,211.149 855.411,205.66 842.203,205.66 C817.036,205.66 799.479,220.732 799.479,242.341 C799.479,261.732 812.228,270.878 824.701,277.253 C828.196,279.033 852.597,291.611 856.253,293.54 C865.89,298.582 871.22,306.151 871.22,314.861 C871.22,326.533 861.329,338.941 843.026,338.941 C825.223,338.941 811.398,327.002 807.582,323.324 L806.44,322.236 L795.685,332.043 L796.942,333.301 C801.717,338.036 819.179,353.491 843.026,353.491 C869.761,353.491 885.74,333.845 885.74,314.861 C885.74,300.684 877.361,288.156 862.724,280.504"
        fill="#888"
      />
              <path
        d="M73.895,220.211 C89.767,220.211 104.68,226.395 115.873,237.576 C118.538,240.23 123.548,240.23 126.17,237.576 C127.556,236.222 128.291,234.4 128.291,232.449 C128.291,230.519 127.556,228.675 126.17,227.321 L125.275,226.404 C111.438,213.015 93.178,205.65 73.895,205.65 C33.152,205.65 0,238.813 0,279.555 C0,320.32 33.152,353.492 73.895,353.492 C95.405,353.492 114.785,344.263 128.291,329.55 L118.004,319.253 C107.131,331.32 91.397,338.931 73.894,338.931 C41.168,338.931 14.529,312.283 14.529,279.556 C14.53,246.861 41.169,220.211 73.895,220.211"
        fill="#888"
      />
              <path
        d="M574.941,220.211 C590.793,220.211 605.726,226.395 616.918,237.576 C619.572,240.23 624.584,240.23 627.206,237.576 C628.592,236.222 629.359,234.4 629.359,232.449 C629.359,230.519 628.591,228.675 627.206,227.321 L626.321,226.404 C612.453,213.015 594.214,205.65 574.941,205.65 C534.189,205.65 501.025,238.812 501.025,279.554 C501.025,320.319 534.189,353.491 574.941,353.491 C596.441,353.491 615.821,344.262 629.348,329.549 L619.05,319.252 C608.177,331.319 592.421,338.93 574.941,338.93 C542.204,338.93 515.554,312.282 515.554,279.555 C515.554,246.861 542.204,220.211 574.941,220.211"
        fill="#888"
      />
              <path
        d="M449.741,205.65 C447.012,205.65 444.858,207.409 443.685,209.679 C442.491,211.949 400.193,316.576 400.183,316.576 C400.183,316.576 357.885,211.948 356.701,209.679 C355.518,207.408 353.366,205.65 350.637,205.65 C347.449,205.65 345.051,207.995 344.209,210.949 C343.367,213.922 319.5,345.602 319.5,345.602 C319.414,346.03 319.372,346.478 319.372,346.935 C319.372,350.558 322.325,353.491 325.928,353.491 C329.126,353.491 331.791,351.211 332.366,348.194 L353.035,235.53 C353.035,235.53 392.914,334.048 394.076,336.392 C395.249,338.727 397.423,340.55 400.195,340.55 C402.966,340.55 405.131,338.727 406.292,336.392 C407.465,334.047 447.343,235.53 447.343,235.53 L468.822,352.681 L482.17,352.681 C482.17,352.681 457.023,213.921 456.181,210.949 C455.326,207.995 452.927,205.65 449.741,205.65"
        fill="#888"
      />
              <path
        d="M712.527,205.66 C709.766,205.65 707.625,207.451 706.42,209.796 C705.225,212.131 651.682,344.378 651.682,344.378 C651.362,345.155 651.18,346.02 651.18,346.936 C651.18,350.559 654.112,353.502 657.736,353.502 C660.497,353.502 662.864,351.775 663.835,349.334 L684.62,298.2 L740.445,298.2 L762.619,352.681 L776.785,352.681 C776.785,352.681 719.798,212.13 718.626,209.795 C717.462,207.451 715.298,205.65 712.527,205.66 L712.527,205.66 Z M690.546,283.647 L712.526,229.601 L734.528,283.647 L690.546,283.647 Z"
        fill="#888"
      />
              <path
        d="M992.966,206.438 L910.673,206.438 C906.664,206.438 903.413,209.701 903.413,213.719 C903.413,217.716 906.664,220.978 910.673,220.978 L945.167,220.978 L945.167,352.67 L958.493,352.67 L958.493,220.979 L992.966,220.979 C996.975,220.979 1000.258,217.717 1000.258,213.72 C1000.258,209.701 996.975,206.438 992.966,206.438"
        fill="#888"
      />
            </g>
          </g>
        </svg>
