<svg
  class="header__logo"
  xmlns="http://www.w3.org/2000/svg"
  xmlns:xlink="http://www.w3.org/1999/xlink"
  x="0px"
  y="0px"
  viewBox="0 0 343.5 64"
  style="enable-background:new 0 0 343.5 64;"
  xml:space="preserve"
>
				<g>
					<polygon class="st0" points="42.7,21.4 64.1,21.4 64.1,0" />
					<polygon class="st1" points="21.4,42.7 0,64.1 21.4,64.1 42.7,64.1 42.7,42.7" />
					<polygon class="st2" points="64.1,42.7 42.7,42.7 42.7,64.1" />
					<polygon
      class="st3"
      points="21.4,42.7 21.4,42.7 21.4,42.7 21.4,21.4 0,21.4 0,42.7 0,42.7 0,64 21.3,42.7 21.4,42.7"
    />
					<rect x="21.4" y="21.4" class="st4" width="21.4" height="21.4" />
					<polygon class="st5" points="21.4,21.4 42.7,21.4 64.1,0 42.7,0 42.7,0 21.4,0" />
					<polygon class="st6" points="0,21.4 21.4,21.4 21.4,0" />
					<path
      class="st1"
      d="M99.3,12.9c-4.9,0-9.3,1.9-12.5,5.4c-3.1,3.4-4.8,8-4.8,13c0,5,1.7,9.6,4.8,13c3.1,3.4,7.5,5.3,12.2,5.3
						c5.5,0,9.5-1.9,13.5-6.3l0.2-0.2l-4.1-4.4l-0.2,0.2c-2.8,2.8-5.3,4.5-9.2,4.5c-2.9,0-5.6-1.3-7.5-3.6c-1.9-2.3-3-5.3-3-8.7
						c0-3.3,1.1-6.4,3-8.6c1.9-2.3,4.6-3.5,7.5-3.5c3.3,0,5.9,1.3,9,4.3l0.3,0.2l4.1-5l-0.2-0.2C109.8,15.9,106,12.9,99.3,12.9z"
    />
					<path
      class="st1"
      d="M131,49.7L131,49.7c4.4,0,8.1-1.4,10.5-4c2.6-2.8,3.9-6.8,3.9-12V13.5H139V34c0,3.1-0.7,5.5-2.1,7.1
						c-1.4,1.6-3.3,2.3-5.8,2.4c-2.5,0-4.5-0.8-5.8-2.5c-1.4-1.7-2.1-4.2-2.1-7.3V13.5h-6.4V34c0,5,1.3,9,3.9,11.7
						C123,48.3,126.6,49.7,131,49.7z"
    />
					<polygon
      class="st1"
      points="312.5,13.5 281.5,13.5 281.5,19.8 293.8,19.8 293.8,49.2 300.2,49.2 300.2,19.8 312.5,19.8"
    />
					<polygon
      class="st1"
      points="228.9,43 228.9,13.5 222.6,13.5 222.6,49.2 244.6,49.2 247.2,43 	"
    />
					<polygon
      class="st1"
      points="317.7,49.2 343.5,49.2 343.5,43.1 324.1,43.1 324.1,34.2 336.6,34.2 336.6,28.1 324.1,28.1
						324.1,19.6 341.1,19.6 343.5,13.5 317.7,13.5"
    />
					<path
      class="st1"
      d="M164.1,37l8,12.2h7.5l-9-13.4l0.4-0.1c4.7-1.7,7.3-5.5,7.3-10.7c0-3.5-1.2-6.3-3.4-8.3c-2.2-2-5.4-3.1-9.1-3.1
						H151v35.6h6.4V36.9L164.1,37L164.1,37z M157.4,19.7h8.1c2.1,0,3.7,0.5,4.8,1.4c1.1,1,1.7,2.3,1.7,4.2c0,1.7-0.6,3.1-1.7,4.1
						c-1.1,1-2.8,1.5-4.7,1.5h-8.1V19.7z"
    />
					<path
      class="st1"
      d="M203.4,13.2h-5.8l-14.7,36h6.7l3.4-8.5h15l3.3,8.5h6.9L203.4,13.2z M195.2,34.7l5.2-12.9l0,0.1l5.2,12.8H195.2
						z"
    />
					<path
      class="st1"
      d="M274.2,40.7L274.2,40.7l3.3,8.5h6.8l-14.7-35.9h-5.8l-14.7,35.9h6.6l3.4-8.5H274.2z M266.6,21.8l0,0.1
						l5.2,12.8h-10.4L266.6,21.8z"
    />
				</g>
			</svg>
