<svg viewBox="0 0 118 20"><g fill="#888"><path d="m12.9034526 10.6531736c0 3.5628925-2.8818058 6.4512396-6.43681347 6.4512396-3.55492522 0-6.43673095-2.8883471-6.43673095-6.4512396 0-3.56289261 2.88180573-6.45123972 6.43673095-6.45123972 3.55500767 0 6.43681347 2.88834711 6.43681347 6.45123972z"/><path d="m54.5102938 14.117843-5.9875723 3.4646281-5.9875724-3.4646281v-6.92933887l5.9875724-3.4646281 5.9875723 3.4646281z"/><path d="m20.0526941 4.65219835 3.4568805 6.00099175 3.4569629 6.0009917h-6.9138434-6.9138435l3.456963-6.0009917z"/><path d="m33.46527 17.5825124-6.9138434-6.9293388 6.9138434-6.92933889 6.9138435 6.92933889z"/><path d="m72.9354867 19.8926198v-8.6026446h-11.1335598v8.6026446h-2.2297959v-19.5509917h2.2297959v8.82570248h11.1335598v-8.82570248h2.2291362v19.5509917zm21.2412946.0000248h2.1456044v-19.55099171h-2.1456044zm8.5166727-18.35431402c0 .86545454-.612759 1.50793388-1.420948 1.50793388-.808188 0-1.4215244-.64247934-1.4215244-1.50793388 0-.86661157.6133364-1.50909091 1.4215244-1.50909091.808189 0 1.420948.64247934 1.420948 1.50909091zm-2.494055 18.35423142h2.145604v-14.7186777h-2.145604zm15.011793-14.71865291h2.396365l-4.904545 7.15024791 5.267121 7.5684298h-2.536464l-4.179888-6.0050413-4.319905 6.0050413h-2.452273l5.350653-7.5684298-4.988077-7.15024791h2.50818l3.901422 5.58570251zm-35.1856617 8.21323971c.072812.7533884.2562851 1.423471.5495946 2.0108264.2929798.5879339.6685843 1.0838843 1.1268959 1.487686.4578169.4042148 1.0022991.7119008 1.5706122.9225619.5676534.2115703 1.1946778.3167769 1.8177442.3167769.9893529 0 1.899297-.1832231 2.6049057-.5508264.7053613-.3670248 1.3511866-.8538843 1.9378057-1.4599174l1.3193571 1.1846281c-.7145968.8083471-1.5301244 1.4556198-2.446253 1.9419008-.9164584.4865289-2.1150943.7299174-3.4708986.7299174-.9712118 0-1.9186751-.1790909-2.7797205-.5371075-.8616227-.3579338-1.6440014-.8628925-2.285209-1.5152066-.6414549-.6513223-1.1499846-1.4365289-1.5251768-2.3550413-.3758518-.9181818-.5636128-1.9283471-.5636128-3.0300826 0-1.0283471.1693724-1.9971075.5084472-2.90619838.3388274-.90909091.8109099-1.69842976 1.4155877-2.36909091.6047603-.67008265 1.3548148-1.19809918 2.188731-1.5838843.8335863-.38570248 1.7766792-.57834711 2.7662795-.57834711 1.0444361 0 2.0102879.19760331 2.8348036.59206612.8245982.39512396 1.5518938.93256198 2.1202069 1.61165289.5676534.67942149.998341 1.47834711 1.2916506 2.39652893.2930622.91851236.4396757 1.90066116.4396757 2.94743806v.3167768c0 .1195041-.0093179.2615703-.0273766.4269422zm9.2778015-1.7355372c-.0550832-.6385124-.1924612-1.2460331-.4122991-1.82090912-.2198379-.57504132-.5178477-1.08206612-.8933697-1.52041322-.3758518-.43801653-.8652508-.78495868-1.4055276-1.04066116-.5406065-.25570248-1.1903074-.38338843-1.8865982-.38338843-.6047603 0-1.2040782.11867769-1.7352844.35595041-.5318658.23760331-1.0302529.5707438-1.4332341.99975207-.4032285.4292562-.7376855.93570248-1.0030412 1.52016529-.2659329.58471076-.4356352 1.21413226-.5084472 1.88950416z"/></g></svg>