<svg xmlns="http://www.w3.org/2000/svg" viewBox="0 0 64 64">
  <rect width="64" height="64" fill="#fff" data-element="frame" rx="3" ry="3" />
  <path
    fill="#8A95A4"
    d="M49.58 12.8H14.42c-.9 0-1.62.72-1.62 1.62v35.22c0 .84.72 1.56 1.62 1.56h35.22c.9 0 1.62-.72 1.62-1.62V14.42c-.06-.9-.78-1.62-1.68-1.62zM24.2 45.5h-5.7V27.2h5.7v18.3zm-2.88-20.82c-1.8 0-3.3-1.5-3.3-3.3 0-1.8 1.5-3.3 3.3-3.3 1.8 0 3.3 1.5 3.3 3.3 0 1.86-1.44 3.3-3.3 3.3zM45.5 45.5h-5.7v-8.88c0-2.1-.06-4.86-2.94-4.86-2.94 0-3.42 2.34-3.42 4.68v9.06h-5.7V27.2h5.46v2.52h.06c.78-1.44 2.64-2.94 5.4-2.94 5.76 0 6.84 3.78 6.84 8.7V45.5z"
  />
</svg>
