<svg viewBox="0 0 250 250" xmlns="http://www.w3.org/2000/svg"><g fill="none"><circle cx="125" cy="125" fill="#ea1919" r="125"/><path d="m126.113 163.36c-15.183 0-29.972-4.892-42.198-11.35l-5.915 25.833c11.437 6.46 29.183 11.157 47.521 11.157 32.339 0 50.479-16.44 50.479-39.73 0-23.291-19.718-31.903-38.648-36.992-14.789-4.11-26.028-7.241-26.028-15.266 0-6.654 5.324-10.373 16.169-10.373 12.225 0 27.606 4.306 39.83 10.765l6.114-25.64c-11.831-6.457-26.817-10.764-46.141-10.764-30.564 0-47.324 15.07-47.324 37.774 0 24.465 21.69 32.685 39.634 37.578 16.366 4.501 25.24 7.241 25.24 15.461 0 7.438-7.691 11.548-18.733 11.548z" fill="#fff"/></g></svg>