<svg id="svg" version="1.1" width="400" height="84.25" viewBox="0 0 400 84.25" xmlns="http://www.w3.org/2000/svg" xmlns:xlink="http://www.w3.org/1999/xlink" ><g id="svgg"><path id="path0" d="M40.167 0.474 C 40.167 0.552,39.143 0.664,37.892 0.724 C 36.641 0.784,35.535 0.900,35.434 0.981 C 35.333 1.063,34.762 1.184,34.167 1.250 C 33.571 1.316,33.008 1.429,32.917 1.500 C 32.825 1.571,32.356 1.682,31.875 1.747 C 31.394 1.812,30.961 1.928,30.913 2.006 C 30.865 2.084,30.490 2.198,30.079 2.259 C 29.669 2.321,29.333 2.431,29.333 2.504 C 29.333 2.577,29.034 2.688,28.668 2.750 C 28.301 2.812,27.965 2.922,27.919 2.996 C 27.874 3.069,27.574 3.178,27.252 3.239 C 26.930 3.299,26.667 3.420,26.667 3.508 C 26.667 3.595,26.516 3.667,26.333 3.667 C 26.149 3.667,25.719 3.817,25.377 4.000 C 25.035 4.183,24.660 4.333,24.544 4.333 C 24.428 4.333,24.333 4.402,24.333 4.487 C 24.333 4.571,24.108 4.690,23.833 4.750 C 23.558 4.810,23.333 4.923,23.333 5.000 C 23.333 5.077,23.108 5.190,22.833 5.250 C 22.558 5.310,22.333 5.412,22.333 5.477 C 22.333 5.541,22.127 5.682,21.875 5.791 C 21.383 6.002,20.802 6.353,20.667 6.519 C 20.621 6.576,20.415 6.674,20.208 6.739 C 20.002 6.803,19.833 6.926,19.833 7.011 C 19.833 7.097,19.718 7.167,19.578 7.167 C 19.438 7.167,19.280 7.279,19.227 7.417 C 19.174 7.554,19.026 7.667,18.897 7.667 C 18.769 7.667,18.535 7.817,18.378 8.000 C 18.221 8.183,18.024 8.333,17.940 8.333 C 17.857 8.333,17.614 8.521,17.402 8.750 C 17.190 8.979,16.943 9.167,16.854 9.167 C 16.765 9.167,16.467 9.392,16.192 9.667 C 15.917 9.942,15.641 10.167,15.579 10.167 C 15.395 10.167,10.333 15.293,10.333 15.480 C 10.333 15.573,10.234 15.710,10.113 15.783 C 9.991 15.857,9.710 16.179,9.488 16.500 C 9.265 16.821,8.990 17.143,8.875 17.217 C 8.760 17.290,8.667 17.459,8.667 17.592 C 8.667 17.725,8.607 17.833,8.534 17.833 C 8.460 17.833,8.217 18.131,7.992 18.496 C 7.767 18.860,7.533 19.160,7.472 19.162 C 7.410 19.165,7.312 19.385,7.253 19.653 C 7.194 19.920,7.038 20.180,6.906 20.231 C 6.775 20.281,6.667 20.438,6.667 20.578 C 6.667 20.718,6.600 20.833,6.518 20.833 C 6.436 20.833,6.322 21.021,6.265 21.250 C 6.207 21.479,6.093 21.667,6.010 21.667 C 5.927 21.667,5.810 21.892,5.750 22.167 C 5.690 22.442,5.577 22.667,5.500 22.667 C 5.423 22.667,5.310 22.892,5.250 23.167 C 5.190 23.442,5.077 23.667,5.000 23.667 C 4.923 23.667,4.810 23.892,4.750 24.167 C 4.690 24.442,4.575 24.667,4.494 24.667 C 4.414 24.667,4.299 24.929,4.239 25.250 C 4.179 25.571,4.064 25.833,3.983 25.833 C 3.903 25.833,3.789 26.133,3.731 26.500 C 3.672 26.867,3.562 27.167,3.486 27.167 C 3.410 27.167,3.299 27.429,3.239 27.750 C 3.179 28.071,3.071 28.333,3.000 28.333 C 2.929 28.333,2.821 28.669,2.759 29.079 C 2.698 29.490,2.582 29.866,2.502 29.915 C 2.422 29.965,2.305 30.417,2.242 30.919 C 2.180 31.422,2.068 31.833,1.994 31.833 C 1.920 31.833,1.806 32.340,1.741 32.958 C 1.676 33.577,1.559 34.124,1.481 34.174 C 1.404 34.224,1.290 34.937,1.228 35.758 C 1.167 36.578,1.049 37.294,0.966 37.349 C 0.766 37.480,0.771 46.857,0.971 46.985 C 1.055 47.039,1.178 47.815,1.244 48.708 C 1.310 49.602,1.424 50.333,1.496 50.333 C 1.569 50.333,1.680 50.821,1.744 51.417 C 1.808 52.012,1.920 52.500,1.994 52.500 C 2.068 52.500,2.180 52.913,2.243 53.417 C 2.306 53.921,2.422 54.333,2.502 54.333 C 2.581 54.333,2.697 54.671,2.759 55.083 C 2.821 55.496,2.933 55.833,3.009 55.833 C 3.084 55.833,3.197 56.171,3.259 56.583 C 3.321 56.996,3.434 57.333,3.511 57.333 C 3.588 57.333,3.701 57.596,3.761 57.917 C 3.821 58.237,3.931 58.500,4.005 58.500 C 4.079 58.500,4.190 58.725,4.250 59.000 C 4.310 59.275,4.423 59.500,4.500 59.500 C 4.577 59.500,4.690 59.726,4.750 60.002 C 4.893 60.649,5.318 61.500,5.499 61.500 C 5.577 61.500,5.690 61.725,5.750 62.000 C 5.810 62.275,5.923 62.500,6.000 62.500 C 6.077 62.500,6.190 62.725,6.250 63.000 C 6.310 63.275,6.427 63.500,6.510 63.500 C 6.593 63.500,6.707 63.687,6.765 63.917 C 6.822 64.146,6.936 64.333,7.018 64.333 C 7.100 64.333,7.167 64.448,7.167 64.589 C 7.167 64.729,7.279 64.887,7.417 64.940 C 7.554 64.992,7.667 65.141,7.667 65.269 C 7.667 65.398,7.817 65.632,8.000 65.789 C 8.183 65.946,8.333 66.170,8.333 66.287 C 8.333 66.404,8.390 66.502,8.458 66.504 C 8.527 66.507,8.767 66.807,8.992 67.171 C 9.217 67.535,9.460 67.833,9.534 67.833 C 9.607 67.833,9.667 67.920,9.667 68.025 C 9.667 68.130,9.929 68.471,10.250 68.783 C 10.571 69.094,10.833 69.408,10.833 69.480 C 10.833 69.663,14.670 73.500,14.852 73.500 C 14.934 73.500,15.292 73.800,15.647 74.167 C 16.003 74.533,16.359 74.835,16.439 74.838 C 16.518 74.841,16.800 75.064,17.066 75.334 C 17.331 75.605,17.688 75.870,17.858 75.924 C 18.028 75.978,18.167 76.092,18.167 76.178 C 18.167 76.263,18.282 76.333,18.422 76.333 C 18.562 76.333,18.718 76.439,18.767 76.568 C 18.817 76.698,19.040 76.849,19.262 76.905 C 19.485 76.961,19.667 77.080,19.667 77.170 C 19.667 77.260,19.782 77.333,19.922 77.333 C 20.062 77.333,20.219 77.441,20.269 77.573 C 20.320 77.705,20.580 77.861,20.847 77.920 C 21.115 77.978,21.333 78.094,21.333 78.177 C 21.333 78.259,21.521 78.374,21.750 78.432 C 21.979 78.489,22.167 78.597,22.167 78.671 C 22.167 78.746,22.392 78.856,22.667 78.917 C 22.942 78.977,23.167 79.090,23.167 79.167 C 23.167 79.244,23.392 79.356,23.667 79.417 C 23.942 79.477,24.167 79.590,24.167 79.667 C 24.167 79.744,24.392 79.856,24.667 79.917 C 24.942 79.977,25.167 80.092,25.167 80.172 C 25.167 80.253,25.429 80.367,25.750 80.428 C 26.071 80.488,26.333 80.603,26.333 80.683 C 26.333 80.764,26.633 80.877,27.000 80.936 C 27.367 80.995,27.667 81.105,27.667 81.180 C 27.667 81.256,27.930 81.368,28.252 81.428 C 28.574 81.488,28.874 81.598,28.919 81.671 C 28.965 81.744,29.301 81.855,29.667 81.917 C 30.032 81.978,30.371 82.092,30.418 82.170 C 30.466 82.247,30.917 82.361,31.419 82.424 C 31.922 82.487,32.333 82.599,32.333 82.673 C 32.333 82.746,32.840 82.860,33.458 82.926 C 34.077 82.991,34.622 83.105,34.670 83.179 C 34.718 83.252,35.524 83.366,36.462 83.430 C 37.399 83.495,38.167 83.612,38.167 83.690 C 38.167 83.769,40.117 83.833,42.500 83.833 C 44.883 83.833,46.833 83.769,46.833 83.690 C 46.833 83.612,47.601 83.495,48.538 83.430 C 49.476 83.366,50.282 83.252,50.330 83.179 C 50.378 83.105,50.923 82.991,51.542 82.926 C 52.160 82.860,52.667 82.746,52.667 82.673 C 52.667 82.599,53.078 82.487,53.581 82.424 C 54.083 82.361,54.535 82.245,54.585 82.165 C 54.634 82.085,55.010 81.969,55.421 81.907 C 55.831 81.846,56.167 81.737,56.167 81.666 C 56.167 81.595,56.429 81.488,56.750 81.428 C 57.071 81.367,57.333 81.256,57.333 81.180 C 57.333 81.105,57.633 80.995,58.000 80.936 C 58.367 80.877,58.667 80.764,58.667 80.683 C 58.667 80.603,58.929 80.488,59.250 80.428 C 59.571 80.367,59.833 80.253,59.833 80.172 C 59.833 80.092,60.058 79.977,60.333 79.917 C 60.608 79.856,60.833 79.744,60.833 79.667 C 60.833 79.590,61.058 79.477,61.333 79.417 C 61.608 79.356,61.833 79.244,61.833 79.167 C 61.833 79.090,62.058 78.977,62.333 78.917 C 62.608 78.856,62.833 78.746,62.833 78.671 C 62.833 78.597,63.021 78.489,63.250 78.432 C 63.479 78.374,63.667 78.259,63.667 78.177 C 63.667 78.094,63.885 77.978,64.153 77.920 C 64.420 77.861,64.680 77.705,64.731 77.573 C 64.781 77.441,64.938 77.333,65.078 77.333 C 65.218 77.333,65.333 77.260,65.333 77.170 C 65.333 77.080,65.515 76.961,65.738 76.905 C 65.960 76.849,66.183 76.698,66.233 76.568 C 66.282 76.439,66.438 76.333,66.578 76.333 C 66.718 76.333,66.833 76.263,66.833 76.178 C 66.833 76.092,66.972 75.978,67.142 75.924 C 67.312 75.870,67.669 75.605,67.934 75.334 C 68.200 75.064,68.482 74.841,68.561 74.838 C 68.641 74.835,68.997 74.533,69.353 74.167 C 69.708 73.800,70.065 73.500,70.145 73.500 C 70.337 73.500,73.833 70.001,73.833 69.809 C 73.833 69.728,74.171 69.338,74.583 68.942 C 74.996 68.547,75.333 68.136,75.333 68.029 C 75.333 67.921,75.393 67.833,75.466 67.833 C 75.540 67.833,75.783 67.535,76.008 67.171 C 76.233 66.807,76.473 66.507,76.542 66.504 C 76.610 66.502,76.667 66.404,76.667 66.287 C 76.667 66.170,76.817 65.946,77.000 65.789 C 77.183 65.632,77.333 65.390,77.333 65.252 C 77.333 65.113,77.408 65.000,77.500 65.000 C 77.592 65.000,77.667 64.885,77.667 64.745 C 77.667 64.604,77.772 64.449,77.902 64.399 C 78.031 64.350,78.182 64.127,78.238 63.905 C 78.294 63.682,78.407 63.500,78.490 63.500 C 78.573 63.500,78.690 63.275,78.750 63.000 C 78.810 62.725,78.923 62.500,79.000 62.500 C 79.077 62.500,79.190 62.275,79.250 62.000 C 79.310 61.725,79.423 61.500,79.501 61.500 C 79.682 61.500,80.107 60.649,80.250 60.002 C 80.310 59.726,80.423 59.500,80.500 59.500 C 80.577 59.500,80.690 59.275,80.750 59.000 C 80.810 58.725,80.921 58.500,80.995 58.500 C 81.069 58.500,81.179 58.237,81.239 57.917 C 81.299 57.596,81.412 57.333,81.489 57.333 C 81.566 57.333,81.679 56.996,81.741 56.583 C 81.803 56.171,81.916 55.833,81.991 55.833 C 82.067 55.833,82.179 55.496,82.241 55.083 C 82.303 54.671,82.419 54.333,82.498 54.333 C 82.578 54.333,82.694 53.921,82.757 53.417 C 82.820 52.913,82.932 52.500,83.006 52.500 C 83.080 52.500,83.192 52.012,83.256 51.417 C 83.320 50.821,83.432 50.333,83.506 50.333 C 83.580 50.333,83.693 49.583,83.758 48.667 C 83.823 47.750,83.942 47.000,84.021 47.000 C 84.101 47.000,84.167 44.825,84.167 42.167 C 84.167 39.508,84.103 37.333,84.025 37.333 C 83.947 37.333,83.834 36.644,83.774 35.801 C 83.715 34.959,83.601 34.227,83.522 34.176 C 83.442 34.125,83.324 33.577,83.259 32.958 C 83.194 32.340,83.080 31.833,83.006 31.833 C 82.932 31.833,82.820 31.422,82.758 30.919 C 82.695 30.417,82.578 29.965,82.498 29.915 C 82.418 29.866,82.302 29.490,82.241 29.079 C 82.179 28.669,82.071 28.333,82.000 28.333 C 81.929 28.333,81.821 28.071,81.761 27.750 C 81.701 27.429,81.590 27.167,81.514 27.167 C 81.438 27.167,81.328 26.867,81.269 26.500 C 81.211 26.133,81.097 25.833,81.017 25.833 C 80.936 25.833,80.821 25.571,80.761 25.250 C 80.701 24.929,80.586 24.667,80.506 24.667 C 80.425 24.667,80.310 24.442,80.250 24.167 C 80.190 23.892,80.077 23.667,80.000 23.667 C 79.923 23.667,79.810 23.442,79.750 23.167 C 79.690 22.892,79.577 22.667,79.500 22.667 C 79.423 22.667,79.310 22.442,79.250 22.167 C 79.190 21.892,79.073 21.667,78.990 21.667 C 78.907 21.667,78.793 21.479,78.735 21.250 C 78.678 21.021,78.564 20.833,78.482 20.833 C 78.400 20.833,78.333 20.718,78.333 20.578 C 78.333 20.438,78.228 20.282,78.098 20.233 C 77.969 20.183,77.814 19.946,77.754 19.705 C 77.693 19.464,77.470 19.106,77.258 18.909 C 77.046 18.713,76.821 18.390,76.758 18.193 C 76.696 17.995,76.574 17.833,76.489 17.833 C 76.403 17.833,76.333 17.725,76.333 17.592 C 76.333 17.459,76.240 17.290,76.125 17.217 C 76.010 17.143,75.735 16.821,75.512 16.500 C 75.290 16.179,75.009 15.857,74.887 15.783 C 74.766 15.710,74.667 15.573,74.667 15.480 C 74.667 15.293,69.605 10.167,69.421 10.167 C 69.359 10.167,69.083 9.942,68.808 9.667 C 68.533 9.392,68.235 9.167,68.146 9.167 C 68.057 9.167,67.810 8.979,67.598 8.750 C 67.386 8.521,67.143 8.333,67.060 8.333 C 66.976 8.333,66.779 8.183,66.622 8.000 C 66.465 7.817,66.231 7.667,66.103 7.667 C 65.974 7.667,65.826 7.554,65.773 7.417 C 65.720 7.279,65.562 7.167,65.422 7.167 C 65.282 7.167,65.167 7.097,65.167 7.011 C 65.167 6.926,64.998 6.803,64.792 6.739 C 64.585 6.674,64.379 6.576,64.333 6.519 C 64.198 6.353,63.617 6.002,63.125 5.791 C 62.873 5.682,62.667 5.541,62.667 5.477 C 62.667 5.412,62.442 5.310,62.167 5.250 C 61.892 5.190,61.667 5.077,61.667 5.000 C 61.667 4.923,61.442 4.810,61.167 4.750 C 60.892 4.690,60.667 4.571,60.667 4.487 C 60.667 4.402,60.572 4.333,60.456 4.333 C 60.340 4.333,59.965 4.183,59.623 4.000 C 59.281 3.817,58.851 3.667,58.667 3.667 C 58.484 3.667,58.333 3.595,58.333 3.508 C 58.333 3.420,58.071 3.299,57.750 3.239 C 57.429 3.179,57.167 3.071,57.167 3.000 C 57.167 2.929,56.829 2.821,56.417 2.759 C 56.004 2.697,55.667 2.584,55.667 2.509 C 55.667 2.433,55.331 2.321,54.921 2.259 C 54.510 2.198,54.135 2.084,54.087 2.006 C 54.039 1.928,53.606 1.812,53.125 1.747 C 52.644 1.682,52.175 1.571,52.083 1.500 C 51.992 1.429,51.429 1.316,50.833 1.250 C 50.237 1.184,49.667 1.063,49.566 0.981 C 49.465 0.900,48.359 0.784,47.108 0.724 C 45.857 0.664,44.833 0.552,44.833 0.474 C 44.833 0.397,43.783 0.333,42.500 0.333 C 41.217 0.333,40.167 0.397,40.167 0.474 M38.664 14.107 C 39.536 14.572,41.271 16.382,41.996 17.583 C 42.218 17.950,42.449 18.287,42.510 18.333 C 42.572 18.379,42.679 18.604,42.750 18.833 C 42.821 19.063,42.924 19.287,42.981 19.333 C 43.142 19.464,43.833 20.932,43.833 21.143 C 43.833 21.248,43.902 21.333,43.987 21.333 C 44.071 21.333,44.191 21.563,44.252 21.845 C 44.314 22.126,44.470 22.557,44.598 22.803 C 44.726 23.049,44.832 23.344,44.832 23.458 C 44.833 23.573,44.900 23.667,44.981 23.667 C 45.063 23.667,45.178 23.926,45.238 24.243 C 45.297 24.560,45.455 25.029,45.589 25.285 C 45.722 25.541,45.832 25.881,45.832 26.042 C 45.833 26.202,45.904 26.333,45.990 26.333 C 46.076 26.333,46.197 26.671,46.259 27.083 C 46.321 27.496,46.433 27.833,46.509 27.833 C 46.584 27.833,46.697 28.171,46.759 28.583 C 46.821 28.996,46.929 29.333,47.000 29.333 C 47.071 29.333,47.179 29.671,47.241 30.083 C 47.303 30.496,47.414 30.833,47.489 30.833 C 47.563 30.833,47.673 31.205,47.733 31.660 C 47.794 32.114,47.909 32.527,47.989 32.577 C 48.070 32.626,48.187 33.042,48.250 33.500 C 48.313 33.958,48.423 34.333,48.494 34.333 C 48.565 34.333,48.673 34.705,48.733 35.160 C 48.794 35.614,48.909 36.027,48.989 36.077 C 49.070 36.126,49.189 36.556,49.254 37.032 C 49.421 38.240,49.561 38.333,51.228 38.333 C 52.009 38.333,52.686 38.397,52.734 38.474 C 52.782 38.551,55.842 38.668,59.535 38.733 C 63.342 38.801,66.319 38.920,66.408 39.010 C 66.495 39.096,67.208 39.167,67.992 39.168 C 71.811 39.171,72.750 39.576,72.750 41.219 C 72.750 42.100,72.355 42.833,71.880 42.833 C 71.762 42.833,71.667 42.908,71.667 43.000 C 71.667 43.109,68.131 43.167,61.394 43.167 L 51.121 43.167 51.235 44.287 C 51.299 44.903,51.411 45.447,51.486 45.495 C 51.561 45.544,51.676 46.090,51.741 46.708 C 51.806 47.327,51.922 47.833,51.997 47.833 C 52.072 47.833,52.186 48.283,52.250 48.833 C 52.314 49.383,52.426 49.833,52.500 49.833 C 52.574 49.833,52.686 50.283,52.750 50.833 C 52.814 51.383,52.931 51.833,53.011 51.833 C 53.090 51.833,53.205 52.208,53.266 52.667 C 53.327 53.125,53.433 53.500,53.503 53.500 C 53.572 53.500,53.682 53.856,53.747 54.292 C 53.811 54.727,53.924 55.158,53.996 55.250 C 54.069 55.342,54.181 55.665,54.246 55.970 C 54.312 56.274,54.470 56.724,54.598 56.970 C 54.726 57.215,54.832 57.548,54.832 57.708 C 54.833 57.869,54.907 58.000,54.998 58.000 C 55.089 58.000,55.211 58.300,55.269 58.667 C 55.328 59.033,55.435 59.333,55.508 59.333 C 55.581 59.333,55.690 59.558,55.750 59.833 C 55.810 60.108,55.929 60.333,56.013 60.333 C 56.098 60.333,56.167 60.448,56.167 60.589 C 56.167 60.729,56.279 60.887,56.417 60.940 C 56.554 60.992,56.667 61.131,56.667 61.248 C 56.667 61.903,57.987 62.833,58.916 62.833 C 59.421 62.833,59.833 62.766,59.833 62.685 C 59.833 62.603,60.030 62.487,60.270 62.427 C 60.723 62.313,61.167 61.961,61.167 61.716 C 61.167 61.638,61.317 61.446,61.500 61.289 C 61.683 61.132,61.833 60.890,61.833 60.752 C 61.833 60.613,61.902 60.500,61.987 60.500 C 62.071 60.500,62.190 60.275,62.250 60.000 C 62.310 59.725,62.425 59.500,62.506 59.500 C 62.586 59.500,62.701 59.237,62.761 58.917 C 62.821 58.596,62.936 58.333,63.017 58.333 C 63.097 58.333,63.211 58.033,63.269 57.667 C 63.328 57.300,63.438 57.000,63.514 57.000 C 63.590 57.000,63.701 56.737,63.761 56.417 C 63.821 56.096,63.927 55.833,63.997 55.833 C 64.067 55.833,64.172 55.533,64.231 55.167 C 64.289 54.800,64.407 54.500,64.492 54.500 C 64.577 54.500,64.697 54.163,64.759 53.750 C 64.821 53.337,64.933 53.000,65.009 53.000 C 65.084 53.000,65.197 52.663,65.259 52.250 C 65.321 51.837,65.438 51.500,65.519 51.500 C 65.600 51.500,65.667 51.369,65.668 51.208 C 65.668 51.048,65.778 50.707,65.911 50.451 C 66.045 50.195,66.203 49.727,66.262 49.410 C 66.322 49.093,66.427 48.833,66.497 48.833 C 66.567 48.833,66.672 48.533,66.731 48.167 C 66.789 47.800,66.903 47.500,66.983 47.500 C 67.062 47.500,67.167 47.350,67.215 47.167 C 67.320 46.765,67.711 46.735,68.076 47.100 C 68.344 47.368,68.285 48.473,67.993 48.667 C 67.924 48.712,67.813 49.181,67.748 49.708 C 67.682 50.235,67.569 50.667,67.497 50.667 C 67.425 50.667,67.314 51.117,67.250 51.667 C 67.186 52.217,67.074 52.667,67.000 52.667 C 66.926 52.667,66.814 53.117,66.750 53.667 C 66.686 54.217,66.576 54.667,66.505 54.667 C 66.434 54.667,66.327 55.039,66.267 55.493 C 66.206 55.948,66.093 56.359,66.014 56.408 C 65.936 56.456,65.821 56.833,65.760 57.244 C 65.698 57.656,65.583 58.032,65.505 58.080 C 65.426 58.129,65.312 58.468,65.250 58.833 C 65.188 59.199,65.078 59.535,65.004 59.581 C 64.931 59.626,64.822 59.926,64.761 60.248 C 64.701 60.570,64.580 60.833,64.492 60.833 C 64.405 60.833,64.333 60.958,64.333 61.110 C 64.333 61.468,63.150 63.833,62.970 63.833 C 62.895 63.833,62.833 63.931,62.833 64.049 C 62.833 64.561,60.722 66.732,59.779 67.189 C 59.396 67.375,58.953 67.596,58.794 67.680 C 58.417 67.880,56.333 67.880,56.333 67.680 C 56.333 67.596,56.108 67.477,55.833 67.417 C 55.558 67.356,55.333 67.244,55.333 67.167 C 55.333 67.090,55.071 66.865,54.750 66.667 C 54.429 66.468,54.167 66.234,54.167 66.145 C 54.167 66.057,53.998 65.819,53.792 65.617 C 53.304 65.139,52.667 64.228,52.667 64.007 C 52.667 63.911,52.598 63.833,52.513 63.833 C 52.429 63.833,52.310 63.608,52.250 63.333 C 52.190 63.058,52.077 62.833,52.000 62.833 C 51.923 62.833,51.810 62.608,51.750 62.333 C 51.690 62.058,51.575 61.833,51.494 61.833 C 51.414 61.833,51.299 61.571,51.239 61.250 C 51.179 60.929,51.070 60.667,50.996 60.667 C 50.923 60.667,50.812 60.367,50.750 60.000 C 50.688 59.633,50.572 59.333,50.493 59.333 C 50.413 59.333,50.299 59.070,50.239 58.748 C 50.178 58.426,50.069 58.126,49.996 58.081 C 49.922 58.035,49.812 57.699,49.750 57.332 C 49.688 56.966,49.577 56.667,49.504 56.667 C 49.431 56.667,49.321 56.329,49.259 55.917 C 49.197 55.504,49.084 55.167,49.009 55.167 C 48.933 55.167,48.821 54.829,48.759 54.417 C 48.697 54.004,48.584 53.667,48.509 53.667 C 48.433 53.667,48.321 53.329,48.259 52.917 C 48.197 52.504,48.084 52.167,48.009 52.167 C 47.934 52.167,47.820 51.754,47.757 51.250 C 47.694 50.746,47.583 50.333,47.509 50.333 C 47.436 50.333,47.327 49.958,47.266 49.500 C 47.205 49.042,47.090 48.667,47.011 48.667 C 46.931 48.667,46.814 48.217,46.750 47.667 C 46.686 47.117,46.572 46.667,46.496 46.667 C 46.420 46.667,46.306 46.254,46.243 45.750 C 46.180 45.246,46.072 44.833,46.002 44.833 C 45.933 44.833,45.827 44.458,45.766 44.000 L 45.655 43.167 36.254 43.167 L 26.854 43.167 26.741 43.917 C 26.679 44.329,26.572 44.667,26.503 44.667 C 26.433 44.667,26.327 45.042,26.266 45.500 C 26.205 45.958,26.091 46.333,26.013 46.333 C 25.935 46.333,25.821 46.671,25.759 47.083 C 25.697 47.496,25.581 47.833,25.502 47.833 C 25.422 47.833,25.306 48.246,25.243 48.750 C 25.180 49.254,25.066 49.667,24.991 49.667 C 24.916 49.667,24.803 50.004,24.741 50.417 C 24.679 50.829,24.567 51.167,24.491 51.167 C 24.416 51.167,24.303 51.504,24.241 51.917 C 24.179 52.329,24.072 52.667,24.003 52.667 C 23.933 52.667,23.827 53.042,23.766 53.500 C 23.705 53.958,23.583 54.333,23.494 54.333 C 23.406 54.333,23.332 54.502,23.330 54.708 C 23.328 55.093,22.683 55.833,22.352 55.833 C 22.250 55.833,22.167 55.908,22.167 56.000 C 22.167 56.092,22.054 56.167,21.917 56.167 C 21.779 56.167,21.667 56.092,21.667 56.000 C 21.667 55.908,21.496 55.833,21.287 55.833 C 20.433 55.833,19.737 52.805,20.485 52.342 C 20.569 52.291,20.691 51.630,20.756 50.874 C 20.822 50.119,20.935 49.500,21.007 49.500 C 21.079 49.500,21.191 48.938,21.255 48.250 C 21.320 47.563,21.432 47.000,21.505 47.000 C 21.578 47.000,21.691 46.438,21.755 45.750 C 21.820 45.063,21.939 44.500,22.020 44.500 C 22.100 44.500,22.167 44.200,22.167 43.833 L 22.167 43.167 18.000 43.167 C 15.333 43.167,13.833 43.107,13.833 43.000 C 13.833 42.908,13.747 42.833,13.642 42.833 C 12.705 42.833,11.618 39.656,12.458 39.375 C 12.573 39.337,12.667 39.205,12.667 39.083 C 12.667 38.823,13.665 38.167,14.061 38.167 C 14.211 38.167,14.333 38.092,14.333 38.000 C 14.333 37.777,17.548 37.781,17.771 38.004 C 17.878 38.111,18.996 38.158,20.762 38.129 L 23.583 38.083 23.750 37.167 C 23.842 36.662,23.966 36.175,24.025 36.083 C 24.085 35.992,24.188 35.560,24.253 35.125 C 24.318 34.690,24.429 34.333,24.500 34.333 C 24.570 34.333,24.680 33.921,24.743 33.417 C 24.806 32.912,24.920 32.500,24.996 32.500 C 25.073 32.500,25.187 32.125,25.250 31.667 C 25.313 31.208,25.428 30.833,25.505 30.833 C 25.583 30.833,25.697 30.496,25.759 30.083 C 25.821 29.671,25.929 29.333,26.000 29.333 C 26.071 29.333,26.179 28.996,26.241 28.583 C 26.303 28.171,26.420 27.833,26.500 27.833 C 26.580 27.833,26.697 27.496,26.759 27.083 C 26.821 26.671,26.938 26.333,27.019 26.333 C 27.100 26.333,27.167 26.202,27.168 26.042 C 27.168 25.881,27.274 25.549,27.402 25.303 C 27.530 25.057,27.686 24.626,27.748 24.345 C 27.809 24.063,27.925 23.833,28.006 23.833 C 28.086 23.833,28.201 23.571,28.261 23.250 C 28.321 22.929,28.431 22.667,28.505 22.667 C 28.579 22.667,28.690 22.442,28.750 22.167 C 28.810 21.892,28.923 21.667,29.000 21.667 C 29.077 21.667,29.190 21.442,29.250 21.167 C 29.310 20.892,29.423 20.667,29.500 20.667 C 29.577 20.667,29.690 20.442,29.750 20.167 C 29.810 19.892,29.927 19.667,30.010 19.667 C 30.093 19.667,30.207 19.479,30.265 19.250 C 30.322 19.021,30.436 18.833,30.518 18.833 C 30.600 18.833,30.667 18.755,30.667 18.660 C 30.667 18.440,31.349 17.460,31.625 17.283 C 31.740 17.210,31.833 17.073,31.833 16.978 C 31.833 16.746,33.759 14.833,33.992 14.833 C 34.094 14.833,34.219 14.725,34.269 14.594 C 34.320 14.462,34.580 14.306,34.847 14.247 C 35.115 14.188,35.333 14.076,35.333 13.998 C 35.333 13.581,37.831 13.663,38.664 14.107 M255.583 15.270 C 254.197 15.630,252.732 16.849,252.109 18.160 C 251.447 19.555,251.738 23.333,252.508 23.333 C 252.595 23.333,252.667 23.438,252.667 23.566 C 252.667 23.763,253.085 24.178,254.122 25.009 C 254.235 25.100,254.555 25.219,254.834 25.275 C 255.112 25.331,255.381 25.442,255.430 25.522 C 255.557 25.728,258.833 25.707,258.833 25.500 C 258.833 25.408,259.011 25.333,259.228 25.333 C 259.444 25.333,259.812 25.183,260.045 25.000 C 260.279 24.817,260.519 24.667,260.581 24.667 C 260.804 24.667,261.625 23.726,261.750 23.327 C 261.821 23.101,261.949 22.871,262.035 22.816 C 262.121 22.760,262.234 22.404,262.285 22.024 C 262.336 21.644,262.442 21.333,262.522 21.333 C 262.602 21.333,262.667 20.958,262.667 20.500 C 262.667 20.042,262.600 19.667,262.519 19.667 C 262.438 19.667,262.320 19.254,262.257 18.750 C 262.194 18.246,262.073 17.833,261.988 17.833 C 261.903 17.833,261.833 17.748,261.833 17.644 C 261.833 17.355,260.281 15.892,259.822 15.749 C 259.599 15.679,259.371 15.550,259.315 15.463 C 259.203 15.290,256.121 15.130,255.583 15.270 M235.333 38.583 L 235.333 60.833 239.833 60.833 L 244.333 60.833 244.333 38.583 L 244.333 16.333 239.833 16.333 L 235.333 16.333 235.333 38.583 M355.167 24.250 C 355.167 29.417,355.109 32.167,355.000 32.167 C 354.908 32.167,354.833 32.098,354.833 32.013 C 354.833 31.929,354.608 31.810,354.333 31.750 C 354.058 31.690,353.833 31.575,353.833 31.494 C 353.833 31.414,353.571 31.299,353.250 31.239 C 352.929 31.179,352.667 31.070,352.667 30.997 C 352.667 30.924,352.273 30.811,351.792 30.745 C 351.310 30.680,350.863 30.542,350.798 30.438 C 350.632 30.177,343.537 30.174,343.369 30.435 C 343.304 30.537,342.894 30.673,342.458 30.737 C 342.023 30.801,341.667 30.918,341.667 30.997 C 341.667 31.076,341.442 31.190,341.167 31.250 C 340.892 31.310,340.667 31.423,340.667 31.500 C 340.667 31.577,340.442 31.690,340.167 31.750 C 339.892 31.810,339.667 31.921,339.667 31.995 C 339.667 32.070,339.479 32.178,339.250 32.235 C 339.021 32.293,338.833 32.413,338.833 32.503 C 338.833 32.593,338.718 32.667,338.578 32.667 C 338.438 32.667,338.280 32.779,338.227 32.917 C 338.174 33.054,338.033 33.167,337.912 33.167 C 337.627 33.167,335.167 35.627,335.167 35.912 C 335.167 36.033,335.054 36.174,334.917 36.227 C 334.779 36.280,334.667 36.438,334.667 36.578 C 334.667 36.718,334.593 36.833,334.503 36.833 C 334.413 36.833,334.293 37.021,334.235 37.250 C 334.178 37.479,334.070 37.667,333.995 37.667 C 333.921 37.667,333.810 37.892,333.750 38.167 C 333.690 38.442,333.577 38.667,333.500 38.667 C 333.423 38.667,333.310 38.892,333.250 39.167 C 333.190 39.442,333.078 39.667,333.001 39.667 C 332.925 39.667,332.809 39.985,332.744 40.375 C 332.679 40.765,332.560 41.125,332.480 41.176 C 332.400 41.227,332.286 41.846,332.226 42.551 C 332.167 43.256,332.054 43.833,331.976 43.833 C 331.897 43.833,331.833 44.733,331.833 45.833 C 331.833 46.933,331.898 47.833,331.976 47.833 C 332.055 47.833,332.169 48.374,332.230 49.035 C 332.292 49.695,332.404 50.276,332.479 50.326 C 332.554 50.376,332.662 50.711,332.718 51.070 C 332.775 51.429,332.890 51.767,332.973 51.820 C 333.057 51.873,333.178 52.160,333.242 52.458 C 333.307 52.756,333.423 53.000,333.500 53.000 C 333.577 53.000,333.690 53.225,333.750 53.500 C 333.810 53.775,333.921 54.000,333.995 54.000 C 334.070 54.000,334.178 54.188,334.235 54.417 C 334.293 54.646,334.413 54.833,334.503 54.833 C 334.593 54.833,334.667 54.942,334.667 55.075 C 334.667 55.208,334.762 55.377,334.879 55.450 C 334.996 55.523,335.215 55.777,335.365 56.015 C 335.746 56.614,337.151 57.998,337.388 58.007 C 337.496 58.011,337.767 58.236,337.992 58.507 C 338.217 58.778,338.498 59.000,338.617 59.000 C 338.736 59.000,338.833 59.067,338.833 59.149 C 338.833 59.230,339.021 59.344,339.250 59.402 C 339.479 59.459,339.667 59.574,339.667 59.657 C 339.667 59.739,339.892 59.856,340.167 59.917 C 340.442 59.977,340.667 60.087,340.667 60.161 C 340.667 60.236,340.929 60.345,341.250 60.406 C 341.571 60.466,341.833 60.580,341.833 60.659 C 341.833 60.737,342.227 60.856,342.708 60.921 C 343.190 60.987,343.637 61.125,343.702 61.229 C 343.866 61.488,350.466 61.489,350.632 61.229 C 350.697 61.129,351.106 60.994,351.542 60.930 C 351.977 60.865,352.333 60.751,352.333 60.675 C 352.333 60.600,352.671 60.487,353.083 60.425 C 353.496 60.364,353.833 60.248,353.833 60.170 C 353.833 60.091,354.058 59.977,354.333 59.917 C 354.608 59.856,354.833 59.738,354.833 59.653 C 354.833 59.569,354.908 59.500,355.000 59.500 C 355.092 59.500,355.167 59.800,355.167 60.167 L 355.167 60.833 359.750 60.833 L 364.333 60.833 364.333 38.583 L 364.333 16.333 359.750 16.333 L 355.167 16.333 355.167 24.250 M112.042 18.083 C 111.927 18.213,111.833 18.417,111.833 18.537 C 111.833 18.657,111.683 19.035,111.500 19.377 C 111.317 19.719,111.167 20.149,111.167 20.333 C 111.167 20.516,111.098 20.667,111.013 20.667 C 110.929 20.667,110.810 20.892,110.750 21.167 C 110.690 21.442,110.579 21.667,110.505 21.667 C 110.431 21.667,110.321 21.929,110.261 22.250 C 110.201 22.571,110.081 22.833,109.994 22.833 C 109.908 22.833,109.789 23.133,109.731 23.500 C 109.672 23.867,109.565 24.167,109.492 24.167 C 109.419 24.167,109.310 24.392,109.250 24.667 C 109.190 24.942,109.079 25.167,109.005 25.167 C 108.931 25.167,108.821 25.429,108.761 25.750 C 108.701 26.071,108.590 26.333,108.514 26.333 C 108.438 26.333,108.328 26.633,108.269 27.000 C 108.211 27.367,108.092 27.667,108.006 27.667 C 107.919 27.667,107.799 27.929,107.739 28.250 C 107.679 28.571,107.569 28.833,107.495 28.833 C 107.421 28.833,107.310 29.058,107.250 29.333 C 107.190 29.608,107.081 29.833,107.008 29.833 C 106.935 29.833,106.828 30.133,106.769 30.500 C 106.711 30.867,106.592 31.167,106.506 31.167 C 106.419 31.167,106.299 31.429,106.239 31.750 C 106.179 32.071,106.069 32.333,105.995 32.333 C 105.921 32.333,105.810 32.558,105.750 32.833 C 105.690 33.108,105.581 33.333,105.508 33.333 C 105.435 33.333,105.328 33.633,105.269 34.000 C 105.211 34.367,105.092 34.667,105.006 34.667 C 104.919 34.667,104.799 34.929,104.739 35.250 C 104.679 35.571,104.569 35.833,104.495 35.833 C 104.421 35.833,104.310 36.058,104.250 36.333 C 104.190 36.608,104.081 36.833,104.008 36.833 C 103.935 36.833,103.828 37.133,103.769 37.500 C 103.711 37.867,103.592 38.167,103.506 38.167 C 103.419 38.167,103.299 38.429,103.239 38.750 C 103.179 39.071,103.069 39.333,102.995 39.333 C 102.921 39.333,102.810 39.558,102.750 39.833 C 102.690 40.108,102.581 40.333,102.508 40.333 C 102.435 40.333,102.328 40.633,102.269 41.000 C 102.211 41.367,102.092 41.667,102.006 41.667 C 101.919 41.667,101.799 41.929,101.739 42.250 C 101.679 42.571,101.569 42.833,101.495 42.833 C 101.421 42.833,101.310 43.058,101.250 43.333 C 101.190 43.608,101.081 43.833,101.008 43.833 C 100.935 43.833,100.828 44.133,100.769 44.500 C 100.711 44.867,100.592 45.167,100.506 45.167 C 100.419 45.167,100.299 45.429,100.239 45.750 C 100.179 46.071,100.069 46.333,99.995 46.333 C 99.921 46.333,99.810 46.558,99.750 46.833 C 99.690 47.108,99.581 47.333,99.508 47.333 C 99.435 47.333,99.328 47.633,99.269 48.000 C 99.211 48.367,99.092 48.667,99.006 48.667 C 98.919 48.667,98.799 48.929,98.739 49.250 C 98.679 49.571,98.569 49.833,98.495 49.833 C 98.421 49.833,98.310 50.058,98.250 50.333 C 98.190 50.608,98.081 50.833,98.008 50.833 C 97.935 50.833,97.828 51.133,97.769 51.500 C 97.711 51.867,97.592 52.167,97.506 52.167 C 97.419 52.167,97.299 52.429,97.239 52.750 C 97.179 53.071,97.069 53.333,96.995 53.333 C 96.921 53.333,96.810 53.558,96.750 53.833 C 96.690 54.108,96.581 54.333,96.508 54.333 C 96.435 54.333,96.328 54.633,96.269 55.000 C 96.211 55.367,96.092 55.667,96.006 55.667 C 95.919 55.667,95.799 55.929,95.739 56.250 C 95.679 56.571,95.569 56.833,95.495 56.833 C 95.421 56.833,95.310 57.058,95.250 57.333 C 95.190 57.608,95.071 57.833,94.987 57.833 C 94.902 57.833,94.831 57.965,94.828 58.125 C 94.825 58.285,94.677 58.717,94.500 59.083 C 94.323 59.450,94.175 59.881,94.172 60.042 C 94.169 60.202,94.092 60.333,94.000 60.333 C 93.908 60.333,93.833 60.446,93.833 60.583 C 93.833 60.800,94.518 60.833,98.998 60.833 L 104.163 60.833 104.269 60.167 C 104.328 59.800,104.438 59.500,104.514 59.500 C 104.590 59.500,104.701 59.237,104.761 58.917 C 104.821 58.596,104.936 58.333,105.017 58.333 C 105.097 58.333,105.211 58.033,105.269 57.667 C 105.328 57.300,105.438 57.000,105.514 57.000 C 105.590 57.000,105.701 56.737,105.761 56.417 C 105.821 56.096,105.936 55.833,106.017 55.833 C 106.097 55.833,106.211 55.533,106.269 55.167 C 106.328 54.800,106.438 54.500,106.514 54.500 C 106.590 54.500,106.701 54.237,106.761 53.917 C 106.821 53.596,106.937 53.333,107.019 53.333 C 107.100 53.333,107.167 53.221,107.167 53.083 C 107.167 52.826,125.246 52.682,125.904 52.935 C 126.053 52.992,126.214 53.321,126.272 53.685 C 126.329 54.042,126.438 54.333,126.514 54.333 C 126.590 54.333,126.701 54.596,126.761 54.917 C 126.821 55.237,126.936 55.500,127.017 55.500 C 127.097 55.500,127.211 55.800,127.269 56.167 C 127.328 56.533,127.438 56.833,127.514 56.833 C 127.590 56.833,127.701 57.096,127.761 57.417 C 127.821 57.737,127.931 58.000,128.005 58.000 C 128.079 58.000,128.191 58.230,128.252 58.511 C 128.314 58.792,128.470 59.224,128.598 59.470 C 128.726 59.715,128.832 60.016,128.832 60.137 C 128.835 60.795,129.129 60.833,134.238 60.833 C 139.006 60.833,139.167 60.823,139.167 60.510 C 139.167 60.332,139.100 60.145,139.019 60.095 C 138.938 60.045,138.822 59.740,138.761 59.419 C 138.701 59.097,138.583 58.833,138.500 58.833 C 138.417 58.833,138.299 58.571,138.239 58.250 C 138.179 57.929,138.069 57.667,137.995 57.667 C 137.921 57.667,137.810 57.442,137.750 57.167 C 137.690 56.892,137.581 56.667,137.508 56.667 C 137.435 56.667,137.328 56.367,137.269 56.000 C 137.211 55.633,137.092 55.333,137.006 55.333 C 136.919 55.333,136.799 55.071,136.739 54.750 C 136.679 54.429,136.569 54.167,136.495 54.167 C 136.421 54.167,136.310 53.942,136.250 53.667 C 136.190 53.392,136.081 53.167,136.008 53.167 C 135.935 53.167,135.828 52.867,135.769 52.500 C 135.711 52.133,135.592 51.833,135.506 51.833 C 135.419 51.833,135.299 51.571,135.239 51.250 C 135.179 50.929,135.069 50.667,134.995 50.667 C 134.921 50.667,134.810 50.442,134.750 50.167 C 134.690 49.892,134.581 49.667,134.508 49.667 C 134.435 49.667,134.328 49.367,134.269 49.000 C 134.211 48.633,134.092 48.333,134.006 48.333 C 133.919 48.333,133.799 48.071,133.739 47.750 C 133.679 47.429,133.569 47.167,133.495 47.167 C 133.421 47.167,133.310 46.942,133.250 46.667 C 133.190 46.392,133.081 46.167,133.008 46.167 C 132.935 46.167,132.828 45.867,132.769 45.500 C 132.711 45.133,132.597 44.833,132.517 44.833 C 132.436 44.833,132.321 44.571,132.261 44.250 C 132.201 43.929,132.086 43.667,132.006 43.667 C 131.925 43.667,131.809 43.437,131.748 43.155 C 131.686 42.874,131.530 42.443,131.402 42.197 C 131.274 41.951,131.168 41.656,131.168 41.542 C 131.167 41.427,131.100 41.333,131.019 41.333 C 130.937 41.333,130.821 41.071,130.761 40.750 C 130.701 40.429,130.586 40.167,130.506 40.167 C 130.425 40.167,130.309 39.937,130.248 39.655 C 130.186 39.374,130.030 38.943,129.902 38.697 C 129.774 38.451,129.668 38.156,129.668 38.042 C 129.667 37.927,129.600 37.833,129.519 37.833 C 129.437 37.833,129.321 37.571,129.261 37.250 C 129.201 36.929,129.086 36.667,129.006 36.667 C 128.925 36.667,128.809 36.437,128.748 36.155 C 128.686 35.874,128.530 35.443,128.402 35.197 C 128.274 34.951,128.168 34.656,128.168 34.542 C 128.167 34.427,128.100 34.333,128.019 34.333 C 127.937 34.333,127.821 34.071,127.761 33.750 C 127.701 33.429,127.586 33.167,127.506 33.167 C 127.425 33.167,127.309 32.937,127.248 32.655 C 127.186 32.374,127.030 31.943,126.902 31.697 C 126.774 31.451,126.668 31.156,126.668 31.042 C 126.667 30.927,126.600 30.833,126.519 30.833 C 126.437 30.833,126.321 30.571,126.261 30.250 C 126.201 29.929,126.081 29.667,125.994 29.667 C 125.908 29.667,125.789 29.367,125.731 29.000 C 125.672 28.633,125.565 28.333,125.492 28.333 C 125.419 28.333,125.310 28.108,125.250 27.833 C 125.190 27.558,125.079 27.333,125.005 27.333 C 124.931 27.333,124.821 27.071,124.761 26.750 C 124.701 26.429,124.581 26.167,124.494 26.167 C 124.408 26.167,124.289 25.867,124.231 25.500 C 124.172 25.133,124.062 24.833,123.986 24.833 C 123.910 24.833,123.799 24.571,123.739 24.250 C 123.679 23.929,123.569 23.667,123.495 23.667 C 123.421 23.667,123.310 23.442,123.250 23.167 C 123.190 22.892,123.081 22.667,123.008 22.667 C 122.935 22.667,122.828 22.367,122.769 22.000 C 122.711 21.633,122.592 21.333,122.506 21.333 C 122.419 21.333,122.299 21.071,122.239 20.750 C 122.179 20.429,122.069 20.167,121.995 20.167 C 121.921 20.167,121.810 19.942,121.750 19.667 C 121.690 19.392,121.571 19.167,121.487 19.167 C 121.402 19.167,121.333 19.012,121.333 18.822 C 121.333 17.821,121.392 17.833,116.619 17.840 C 113.060 17.845,112.211 17.890,112.042 18.083 M36.188 18.784 C 35.822 18.929,34.667 20.185,34.667 20.437 C 34.667 20.563,34.592 20.667,34.500 20.667 C 34.408 20.667,34.333 20.782,34.333 20.922 C 34.333 21.062,34.225 21.219,34.094 21.269 C 33.962 21.320,33.806 21.580,33.747 21.847 C 33.688 22.115,33.577 22.333,33.500 22.333 C 33.423 22.333,33.310 22.558,33.250 22.833 C 33.190 23.108,33.072 23.333,32.989 23.333 C 32.905 23.333,32.789 23.633,32.731 24.000 C 32.672 24.367,32.565 24.667,32.492 24.667 C 32.419 24.667,32.310 24.892,32.250 25.167 C 32.190 25.442,32.076 25.667,31.997 25.667 C 31.918 25.667,31.803 26.004,31.741 26.417 C 31.679 26.829,31.566 27.167,31.489 27.167 C 31.412 27.167,31.299 27.429,31.239 27.750 C 31.179 28.071,31.071 28.333,31.000 28.333 C 30.929 28.333,30.821 28.671,30.759 29.083 C 30.697 29.496,30.584 29.833,30.509 29.833 C 30.433 29.833,30.321 30.171,30.259 30.583 C 30.197 30.996,30.081 31.333,30.002 31.333 C 29.922 31.333,29.806 31.746,29.743 32.250 C 29.680 32.754,29.564 33.167,29.487 33.167 C 29.409 33.167,29.295 33.542,29.234 34.000 C 29.173 34.458,29.065 34.833,28.994 34.833 C 28.923 34.833,28.811 35.227,28.745 35.708 C 28.680 36.190,28.572 36.621,28.506 36.667 C 28.276 36.825,28.174 38.014,28.384 38.079 C 28.494 38.112,32.090 38.187,36.375 38.246 L 44.167 38.352 44.167 37.759 C 44.167 37.433,44.097 37.167,44.012 37.167 C 43.927 37.167,43.806 36.754,43.743 36.250 C 43.680 35.746,43.572 35.333,43.502 35.333 C 43.433 35.333,43.327 34.958,43.266 34.500 C 43.205 34.042,43.091 33.667,43.013 33.667 C 42.936 33.667,42.820 33.254,42.757 32.750 C 42.694 32.246,42.583 31.833,42.509 31.833 C 42.436 31.833,42.327 31.458,42.266 31.000 C 42.205 30.542,42.090 30.167,42.010 30.167 C 41.930 30.167,41.813 29.792,41.750 29.334 C 41.687 28.875,41.572 28.461,41.494 28.413 C 41.416 28.365,41.302 27.990,41.241 27.579 C 41.179 27.169,41.067 26.833,40.991 26.833 C 40.916 26.833,40.803 26.496,40.741 26.083 C 40.679 25.671,40.571 25.333,40.500 25.333 C 40.429 25.333,40.322 25.074,40.262 24.757 C 40.203 24.440,40.045 23.971,39.911 23.715 C 39.778 23.459,39.668 23.119,39.668 22.958 C 39.667 22.798,39.593 22.667,39.502 22.667 C 39.411 22.667,39.289 22.367,39.231 22.000 C 39.172 21.633,39.065 21.333,38.992 21.333 C 38.919 21.333,38.810 21.108,38.750 20.833 C 38.690 20.558,38.579 20.333,38.505 20.333 C 38.430 20.333,38.321 20.139,38.261 19.902 C 38.038 19.011,37.011 18.457,36.188 18.784 M272.667 25.417 L 272.667 30.667 269.500 30.667 L 266.333 30.667 266.333 34.500 L 266.333 38.333 269.486 38.333 L 272.638 38.333 272.694 45.340 C 272.734 50.308,272.805 52.380,272.938 52.465 C 273.042 52.530,273.180 52.977,273.245 53.458 C 273.311 53.940,273.424 54.333,273.497 54.333 C 273.570 54.333,273.679 54.596,273.739 54.917 C 273.799 55.237,273.920 55.500,274.008 55.500 C 274.095 55.500,274.167 55.607,274.167 55.738 C 274.167 55.869,274.269 56.079,274.395 56.204 C 274.520 56.330,274.673 56.592,274.735 56.786 C 274.875 57.228,277.411 59.783,277.846 59.921 C 278.023 59.977,278.167 60.086,278.167 60.165 C 278.167 60.243,278.392 60.356,278.667 60.417 C 278.942 60.477,279.167 60.596,279.167 60.680 C 279.167 60.764,279.298 60.834,279.458 60.834 C 279.619 60.835,279.970 60.950,280.238 61.090 C 280.507 61.230,281.163 61.390,281.697 61.446 C 282.230 61.502,282.667 61.612,282.667 61.690 C 282.667 61.769,283.829 61.833,285.250 61.833 C 286.671 61.833,287.833 61.769,287.833 61.691 C 287.833 61.612,288.374 61.498,289.035 61.436 C 289.695 61.375,290.276 61.259,290.326 61.179 C 290.376 61.099,290.848 60.980,291.375 60.914 C 291.902 60.849,292.333 60.729,292.333 60.647 C 292.333 60.566,292.521 60.500,292.750 60.500 C 293.172 60.500,293.376 59.816,293.020 59.596 C 292.939 59.546,292.820 58.791,292.754 57.919 C 292.689 57.047,292.575 56.333,292.500 56.333 C 292.426 56.333,292.312 55.548,292.246 54.588 C 292.144 53.091,292.083 52.829,291.816 52.744 C 291.388 52.609,289.944 52.838,289.798 53.065 C 289.633 53.322,284.534 53.321,284.369 53.064 C 284.304 52.962,284.078 52.824,283.867 52.759 C 283.372 52.604,282.396 51.628,282.241 51.133 C 282.176 50.922,282.038 50.697,281.936 50.631 C 281.806 50.548,281.733 48.664,281.694 44.423 L 281.638 38.333 286.986 38.333 L 292.333 38.333 292.333 34.500 L 292.333 30.667 287.000 30.667 L 281.667 30.667 281.667 25.417 L 281.667 20.167 277.167 20.167 L 272.667 20.167 272.667 25.417 M116.761 30.417 C 116.821 30.738,116.937 31.000,117.019 31.000 C 117.100 31.000,117.169 31.131,117.172 31.292 C 117.175 31.452,117.323 31.883,117.500 32.250 C 117.677 32.617,117.825 33.010,117.828 33.125 C 117.831 33.240,117.908 33.333,118.000 33.333 C 118.092 33.333,118.167 33.465,118.168 33.625 C 118.168 33.785,118.274 34.118,118.402 34.364 C 118.530 34.610,118.686 35.041,118.748 35.322 C 118.809 35.603,118.929 35.833,119.013 35.833 C 119.098 35.833,119.169 35.965,119.172 36.125 C 119.175 36.285,119.323 36.717,119.500 37.083 C 119.677 37.450,119.825 37.881,119.828 38.042 C 119.831 38.202,119.902 38.333,119.987 38.333 C 120.071 38.333,120.193 38.575,120.258 38.870 C 120.323 39.164,120.439 39.521,120.515 39.661 C 120.849 40.272,121.333 41.503,121.333 41.741 C 121.333 41.883,121.400 42.000,121.482 42.000 C 121.564 42.000,121.682 42.205,121.745 42.457 C 121.808 42.708,121.917 42.952,121.987 42.998 C 122.057 43.045,122.162 43.327,122.220 43.625 L 122.325 44.167 116.511 44.167 C 110.780 44.167,110.699 44.162,110.785 43.833 C 110.833 43.650,110.930 43.500,111.001 43.500 C 111.072 43.500,111.179 43.237,111.239 42.917 C 111.299 42.596,111.420 42.333,111.508 42.333 C 111.595 42.333,111.667 42.202,111.668 42.042 C 111.668 41.881,111.774 41.549,111.902 41.303 C 112.030 41.057,112.186 40.626,112.248 40.345 C 112.309 40.063,112.429 39.833,112.513 39.833 C 112.598 39.833,112.667 39.702,112.668 39.542 C 112.668 39.381,112.774 39.049,112.902 38.803 C 113.030 38.557,113.186 38.126,113.248 37.845 C 113.309 37.563,113.429 37.333,113.513 37.333 C 113.598 37.333,113.667 37.202,113.668 37.042 C 113.668 36.881,113.774 36.549,113.902 36.303 C 114.030 36.057,114.186 35.626,114.248 35.345 C 114.309 35.063,114.429 34.833,114.513 34.833 C 114.598 34.833,114.669 34.702,114.672 34.542 C 114.675 34.381,114.823 33.950,115.000 33.583 C 115.177 33.217,115.325 32.785,115.328 32.625 C 115.331 32.465,115.402 32.333,115.487 32.333 C 115.571 32.333,115.691 32.103,115.752 31.822 C 115.814 31.541,115.970 31.110,116.098 30.864 C 116.226 30.618,116.332 30.285,116.332 30.125 C 116.334 29.604,116.649 29.817,116.761 30.417 M156.833 29.978 C 156.833 30.058,156.480 30.163,156.047 30.212 C 155.615 30.261,155.233 30.383,155.200 30.484 C 155.166 30.584,154.968 30.667,154.759 30.667 C 154.549 30.667,154.188 30.817,153.955 31.000 C 153.721 31.183,153.476 31.333,153.409 31.333 C 153.343 31.333,153.114 31.521,152.902 31.750 C 152.381 32.313,152.333 32.285,152.333 31.417 L 152.333 30.667 147.833 30.667 L 143.333 30.667 143.333 45.750 L 143.333 60.833 147.833 60.833 L 152.333 60.833 152.333 51.144 L 152.333 41.455 152.750 41.069 C 152.979 40.856,153.167 40.617,153.167 40.537 C 153.167 40.457,153.440 40.172,153.773 39.904 C 154.107 39.636,154.512 39.293,154.674 39.141 C 154.835 38.990,155.143 38.811,155.359 38.744 C 155.574 38.677,155.804 38.538,155.869 38.436 C 156.070 38.121,159.318 38.213,159.917 38.550 C 160.192 38.705,160.496 38.832,160.592 38.832 C 161.356 38.837,163.144 41.440,163.294 42.765 C 163.339 43.169,163.442 43.500,163.522 43.500 C 163.602 43.500,163.667 47.364,163.667 52.167 L 163.667 60.833 168.167 60.833 L 172.667 60.833 172.667 50.918 L 172.667 41.002 173.394 40.293 C 174.440 39.273,174.954 38.870,175.377 38.738 C 175.582 38.674,175.804 38.538,175.869 38.436 C 175.946 38.316,176.702 38.250,178.000 38.250 C 179.298 38.250,180.054 38.316,180.131 38.436 C 180.196 38.538,180.432 38.679,180.654 38.748 C 181.112 38.891,181.298 39.027,182.087 39.796 C 182.395 40.096,182.694 40.490,182.751 40.671 C 182.809 40.852,182.920 41.000,182.998 41.000 C 183.076 41.000,183.192 41.244,183.256 41.542 C 183.320 41.840,183.457 42.189,183.561 42.317 C 183.695 42.483,183.764 45.191,183.800 51.692 L 183.849 60.833 188.508 60.833 L 193.167 60.833 193.167 52.000 C 193.167 47.142,193.103 43.167,193.025 43.167 C 192.947 43.167,192.837 42.404,192.780 41.471 C 192.724 40.539,192.609 39.733,192.526 39.680 C 192.442 39.627,192.321 39.265,192.256 38.875 C 192.191 38.485,192.075 38.167,191.999 38.167 C 191.922 38.167,191.810 37.941,191.750 37.665 C 191.609 37.025,191.183 36.167,191.006 36.167 C 190.931 36.167,190.819 35.964,190.757 35.717 C 190.694 35.469,190.461 35.098,190.238 34.891 C 190.016 34.685,189.833 34.451,189.833 34.372 C 189.833 34.184,188.316 32.667,188.128 32.667 C 188.049 32.667,187.818 32.498,187.616 32.292 C 187.180 31.848,186.752 31.560,186.125 31.291 C 185.873 31.182,185.667 31.038,185.667 30.971 C 185.667 30.904,185.385 30.797,185.042 30.734 C 184.698 30.670,184.372 30.550,184.318 30.467 C 184.263 30.383,183.795 30.271,183.276 30.217 C 182.758 30.164,182.333 30.056,182.333 29.977 C 182.333 29.898,181.058 29.833,179.500 29.833 C 177.942 29.833,176.667 29.898,176.667 29.976 C 176.667 30.055,176.206 30.167,175.642 30.226 C 175.079 30.285,174.535 30.400,174.434 30.481 C 174.333 30.562,174.006 30.680,173.708 30.744 C 173.410 30.808,173.167 30.923,173.167 31.000 C 173.167 31.077,172.942 31.190,172.667 31.250 C 172.392 31.310,172.167 31.421,172.167 31.495 C 172.167 31.570,171.979 31.678,171.750 31.735 C 171.521 31.793,171.333 31.913,171.333 32.003 C 171.333 32.093,171.218 32.167,171.078 32.167 C 170.938 32.167,170.781 32.276,170.729 32.410 C 170.678 32.544,170.481 32.703,170.292 32.763 C 170.103 32.823,169.782 33.051,169.580 33.269 C 169.113 33.773,169.008 33.762,168.508 33.160 C 168.283 32.888,168.002 32.667,167.883 32.667 C 167.764 32.667,167.667 32.607,167.667 32.534 C 167.667 32.460,167.369 32.217,167.004 31.992 C 166.640 31.767,166.340 31.533,166.338 31.472 C 166.335 31.410,166.108 31.310,165.833 31.250 C 165.558 31.190,165.333 31.075,165.333 30.994 C 165.333 30.914,165.071 30.799,164.750 30.739 C 164.429 30.679,164.167 30.567,164.167 30.490 C 164.167 30.413,163.717 30.299,163.167 30.237 C 162.617 30.175,162.167 30.058,162.167 29.978 C 162.167 29.899,160.967 29.833,159.500 29.833 C 158.033 29.833,156.833 29.899,156.833 29.978 M381.333 29.981 C 381.333 30.062,380.846 30.180,380.250 30.244 C 379.654 30.308,379.167 30.420,379.167 30.494 C 379.167 30.568,378.829 30.679,378.417 30.741 C 378.004 30.803,377.667 30.918,377.667 30.997 C 377.667 31.076,377.442 31.190,377.167 31.250 C 376.892 31.310,376.667 31.423,376.667 31.500 C 376.667 31.577,376.442 31.690,376.167 31.750 C 375.892 31.810,375.667 31.929,375.667 32.013 C 375.667 32.098,375.553 32.167,375.415 32.167 C 375.277 32.167,375.035 32.317,374.878 32.500 C 374.721 32.683,374.528 32.833,374.449 32.833 C 374.240 32.833,371.416 35.698,371.287 36.042 C 371.227 36.202,371.108 36.333,371.023 36.333 C 370.939 36.333,370.822 36.521,370.765 36.750 C 370.707 36.979,370.593 37.167,370.510 37.167 C 370.427 37.167,370.310 37.392,370.250 37.667 C 370.190 37.942,370.075 38.167,369.994 38.167 C 369.914 38.167,369.799 38.429,369.739 38.750 C 369.679 39.071,369.573 39.333,369.503 39.333 C 369.433 39.333,369.325 39.650,369.263 40.037 C 369.202 40.424,369.078 40.785,368.989 40.840 C 368.900 40.895,368.780 41.553,368.722 42.303 C 368.665 43.053,368.553 43.667,368.475 43.667 C 368.397 43.667,368.333 44.642,368.333 45.833 C 368.333 47.025,368.398 48.000,368.476 48.000 C 368.555 48.000,368.669 48.541,368.730 49.201 C 368.792 49.862,368.904 50.443,368.979 50.493 C 369.054 50.543,369.162 50.877,369.218 51.237 C 369.275 51.596,369.388 51.933,369.470 51.987 C 369.552 52.040,369.670 52.365,369.734 52.708 C 369.797 53.052,369.904 53.333,369.971 53.333 C 370.038 53.333,370.182 53.540,370.291 53.792 C 370.512 54.306,370.814 54.791,371.125 55.130 C 371.240 55.255,371.333 55.412,371.333 55.478 C 371.333 55.545,371.618 55.896,371.966 56.258 C 372.314 56.620,372.649 57.048,372.711 57.208 C 372.773 57.369,372.903 57.500,373.001 57.500 C 373.099 57.500,373.492 57.800,373.873 58.167 C 374.255 58.533,374.622 58.833,374.688 58.833 C 374.755 58.833,374.912 58.927,375.037 59.042 C 375.593 59.552,377.421 60.500,377.847 60.500 C 378.023 60.500,378.167 60.568,378.167 60.652 C 378.167 60.736,378.485 60.857,378.875 60.922 C 379.265 60.988,379.624 61.105,379.674 61.183 C 379.724 61.261,380.305 61.375,380.965 61.436 C 381.626 61.498,382.167 61.612,382.167 61.691 C 382.167 61.887,386.768 61.872,387.127 61.675 C 387.286 61.587,387.923 61.469,388.542 61.411 C 389.160 61.354,389.667 61.242,389.667 61.164 C 389.667 61.085,390.004 60.970,390.417 60.908 C 390.829 60.846,391.167 60.735,391.167 60.661 C 391.167 60.587,391.392 60.477,391.667 60.417 C 391.942 60.356,392.167 60.244,392.167 60.167 C 392.167 60.090,392.392 59.977,392.667 59.917 C 392.942 59.856,393.167 59.738,393.167 59.653 C 393.167 59.569,393.282 59.500,393.422 59.500 C 393.562 59.500,393.720 59.387,393.773 59.250 C 393.826 59.112,393.974 59.000,394.103 59.000 C 394.231 59.000,394.465 58.850,394.622 58.667 C 394.779 58.483,394.972 58.333,395.050 58.333 C 395.236 58.333,396.667 56.903,396.667 56.717 C 396.667 56.638,396.817 56.446,397.000 56.289 C 397.183 56.132,397.333 55.898,397.333 55.769 C 397.333 55.641,397.446 55.492,397.583 55.440 C 397.721 55.387,397.833 55.229,397.833 55.089 C 397.833 54.948,397.902 54.833,397.987 54.833 C 398.071 54.833,398.190 54.608,398.250 54.333 C 398.310 54.058,398.428 53.833,398.511 53.833 C 398.595 53.833,398.711 53.533,398.769 53.167 C 398.828 52.800,398.941 52.500,399.021 52.500 C 399.101 52.500,399.167 52.350,399.167 52.167 C 399.167 51.841,399.056 51.833,394.268 51.833 L 389.369 51.833 389.266 52.247 C 389.203 52.498,389.003 52.701,388.760 52.763 C 388.538 52.818,388.317 52.969,388.267 53.098 C 388.218 53.228,388.069 53.333,387.936 53.333 C 387.803 53.333,387.663 53.427,387.625 53.542 C 387.529 53.829,382.044 53.842,381.867 53.555 C 381.801 53.448,381.541 53.308,381.290 53.245 C 381.039 53.182,380.833 53.064,380.833 52.982 C 380.833 52.900,380.748 52.833,380.644 52.833 C 380.386 52.833,378.675 51.136,378.670 50.875 C 378.668 50.760,378.597 50.667,378.511 50.667 C 378.426 50.667,378.303 50.498,378.239 50.292 C 378.174 50.085,378.060 49.877,377.985 49.828 C 377.910 49.780,377.798 49.424,377.737 49.037 L 377.624 48.333 388.499 48.333 L 399.374 48.333 399.305 44.656 C 399.261 42.298,399.173 40.938,399.058 40.865 C 398.960 40.802,398.827 40.394,398.763 39.958 C 398.699 39.523,398.585 39.167,398.511 39.167 C 398.437 39.167,398.328 38.867,398.269 38.500 C 398.211 38.133,398.095 37.833,398.011 37.833 C 397.928 37.833,397.810 37.608,397.750 37.333 C 397.690 37.058,397.571 36.833,397.487 36.833 C 397.402 36.833,397.333 36.718,397.333 36.578 C 397.333 36.438,397.221 36.280,397.083 36.227 C 396.946 36.174,396.833 36.032,396.833 35.912 C 396.833 35.791,396.608 35.467,396.333 35.192 C 396.058 34.917,395.833 34.640,395.833 34.577 C 395.833 34.385,394.554 33.167,394.353 33.167 C 394.250 33.167,394.167 33.107,394.167 33.034 C 394.167 32.960,393.869 32.717,393.504 32.492 C 393.140 32.267,392.840 32.033,392.838 31.972 C 392.835 31.910,392.608 31.810,392.333 31.750 C 392.058 31.690,391.833 31.577,391.833 31.500 C 391.833 31.423,391.608 31.310,391.333 31.250 C 391.058 31.190,390.833 31.071,390.833 30.987 C 390.833 30.902,390.702 30.833,390.542 30.832 C 390.381 30.832,390.030 30.717,389.762 30.577 C 389.493 30.437,388.837 30.276,388.303 30.221 C 387.770 30.165,387.333 30.055,387.333 29.976 C 387.333 29.898,385.983 29.833,384.333 29.833 C 382.683 29.833,381.333 29.900,381.333 29.981 M212.625 30.279 C 212.190 30.319,211.833 30.413,211.833 30.488 C 211.833 30.562,211.458 30.673,211.000 30.734 C 210.542 30.795,210.167 30.911,210.167 30.992 C 210.167 31.074,209.929 31.192,209.639 31.256 C 209.349 31.320,208.787 31.545,208.389 31.756 L 207.667 32.140 207.667 31.403 L 207.667 30.667 203.167 30.667 L 198.667 30.667 198.667 53.000 L 198.667 75.333 203.167 75.333 L 207.667 75.333 207.667 67.417 C 207.667 60.491,207.698 59.500,207.917 59.500 C 208.054 59.500,208.167 59.569,208.167 59.653 C 208.167 59.738,208.392 59.856,208.667 59.917 C 208.942 59.977,209.167 60.087,209.167 60.161 C 209.167 60.236,209.429 60.345,209.750 60.406 C 210.071 60.466,210.333 60.578,210.333 60.655 C 210.333 60.732,210.765 60.849,211.292 60.914 C 211.819 60.980,212.302 61.118,212.366 61.221 C 212.528 61.481,218.964 61.491,219.131 61.231 C 219.196 61.130,219.606 60.994,220.042 60.930 C 220.477 60.865,220.833 60.752,220.833 60.678 C 220.833 60.603,221.133 60.495,221.500 60.436 C 221.867 60.377,222.167 60.261,222.167 60.178 C 222.167 60.095,222.392 59.977,222.667 59.917 C 222.942 59.856,223.167 59.746,223.167 59.671 C 223.167 59.597,223.335 59.493,223.542 59.440 C 223.748 59.387,224.120 59.154,224.368 58.922 C 224.616 58.690,224.867 58.500,224.926 58.500 C 225.113 58.500,227.833 55.708,227.833 55.517 C 227.833 55.416,227.907 55.333,227.997 55.333 C 228.087 55.333,228.206 55.151,228.262 54.929 C 228.318 54.706,228.469 54.484,228.598 54.434 C 228.728 54.384,228.833 54.229,228.833 54.089 C 228.833 53.948,228.902 53.833,228.987 53.833 C 229.071 53.833,229.190 53.608,229.250 53.333 C 229.310 53.058,229.428 52.833,229.511 52.833 C 229.595 52.833,229.711 52.533,229.769 52.167 C 229.828 51.800,229.937 51.500,230.011 51.500 C 230.085 51.500,230.199 51.144,230.263 50.708 C 230.327 50.273,230.463 49.863,230.565 49.798 C 230.826 49.630,230.824 41.868,230.562 41.702 C 230.459 41.637,230.321 41.265,230.256 40.875 C 230.191 40.485,230.079 40.167,230.007 40.167 C 229.935 40.167,229.828 39.867,229.769 39.500 C 229.711 39.133,229.595 38.833,229.511 38.833 C 229.428 38.833,229.310 38.608,229.250 38.333 C 229.190 38.058,229.088 37.833,229.023 37.833 C 228.959 37.833,228.818 37.627,228.709 37.375 C 228.376 36.599,228.160 36.314,226.572 34.542 C 226.141 34.060,225.704 33.663,225.602 33.660 C 225.500 33.656,225.233 33.431,225.008 33.160 C 224.783 32.888,224.502 32.667,224.383 32.667 C 224.264 32.667,224.167 32.593,224.167 32.503 C 224.167 32.413,223.979 32.293,223.750 32.235 C 223.521 32.178,223.333 32.070,223.333 31.995 C 223.333 31.921,223.108 31.810,222.833 31.750 C 222.558 31.690,222.333 31.575,222.333 31.494 C 222.333 31.414,222.071 31.299,221.750 31.239 C 221.429 31.179,221.167 31.073,221.167 31.003 C 221.167 30.933,220.850 30.825,220.463 30.763 C 220.076 30.702,219.708 30.567,219.645 30.464 C 219.526 30.272,214.219 30.132,212.625 30.279 M252.667 45.750 L 252.667 60.833 257.167 60.833 L 261.667 60.833 261.667 45.750 L 261.667 30.667 257.167 30.667 L 252.667 30.667 252.667 45.750 M297.199 41.173 C 297.235 48.645,297.303 51.713,297.435 51.798 C 297.537 51.863,297.673 52.273,297.737 52.708 C 297.801 53.144,297.918 53.500,297.997 53.500 C 298.076 53.500,298.189 53.722,298.248 53.993 C 298.432 54.827,299.183 56.185,299.792 56.783 C 299.998 56.985,300.167 57.226,300.167 57.318 C 300.167 57.509,301.993 59.333,302.184 59.333 C 302.253 59.333,302.412 59.427,302.537 59.542 C 303.087 60.046,304.481 60.767,305.215 60.926 C 305.509 60.990,305.793 61.109,305.845 61.191 C 305.898 61.273,306.442 61.387,307.054 61.444 C 307.666 61.501,308.167 61.612,308.167 61.691 C 308.167 61.769,309.104 61.833,310.250 61.833 C 311.396 61.833,312.333 61.769,312.333 61.691 C 312.333 61.612,312.834 61.501,313.446 61.444 C 314.058 61.387,314.602 61.273,314.655 61.191 C 314.707 61.109,314.994 60.989,315.292 60.924 C 315.590 60.860,315.833 60.744,315.833 60.667 C 315.833 60.590,316.058 60.477,316.333 60.417 C 316.608 60.356,316.833 60.244,316.833 60.167 C 316.833 60.090,317.058 59.977,317.333 59.917 C 317.608 59.856,317.833 59.750,317.833 59.680 C 317.833 59.611,318.021 59.468,318.250 59.364 C 318.664 59.175,318.667 59.179,318.667 60.004 L 318.667 60.833 323.167 60.833 L 327.667 60.833 327.667 45.750 L 327.667 30.667 323.167 30.667 L 318.667 30.667 318.664 40.208 L 318.662 49.750 317.456 50.928 C 316.793 51.575,316.119 52.154,315.958 52.214 C 315.798 52.274,315.667 52.394,315.667 52.482 C 315.667 52.569,315.442 52.690,315.167 52.750 C 314.892 52.810,314.667 52.923,314.667 53.001 C 314.667 53.079,314.254 53.194,313.750 53.257 C 313.246 53.320,312.833 53.438,312.833 53.519 C 312.833 53.600,312.571 53.667,312.250 53.667 C 311.929 53.667,311.667 53.602,311.667 53.523 C 311.667 53.444,311.242 53.336,310.724 53.283 C 310.205 53.229,309.737 53.116,309.682 53.032 C 309.628 52.947,309.399 52.820,309.173 52.750 C 308.310 52.480,306.667 50.319,306.667 49.454 C 306.667 49.311,306.573 49.163,306.458 49.125 C 306.296 49.071,306.239 47.031,306.198 39.861 L 306.146 30.667 301.647 30.667 L 297.148 30.667 297.199 41.173 M385.407 37.484 C 385.458 37.567,385.875 37.687,386.334 37.750 C 386.792 37.813,387.167 37.933,387.167 38.016 C 387.167 38.099,387.245 38.167,387.340 38.167 C 387.539 38.167,388.555 38.853,388.640 39.045 C 388.671 39.115,388.796 39.272,388.917 39.393 C 389.206 39.682,389.833 40.857,389.833 41.109 C 389.833 41.217,389.902 41.331,389.986 41.361 C 390.070 41.392,390.191 41.698,390.255 42.042 L 390.370 42.667 384.019 42.667 C 376.775 42.667,377.310 42.812,378.239 41.093 C 379.212 39.291,380.940 37.949,382.579 37.725 C 382.994 37.668,383.333 37.557,383.333 37.477 C 383.333 37.285,385.288 37.292,385.407 37.484 M215.736 37.978 C 215.786 38.058,216.134 38.172,216.511 38.232 C 217.750 38.431,219.886 40.100,220.603 41.431 C 220.771 41.744,220.964 42.000,221.030 42.000 C 221.097 42.000,221.203 42.281,221.266 42.625 C 221.330 42.969,221.464 43.304,221.566 43.369 C 221.686 43.447,221.750 44.303,221.750 45.833 C 221.750 47.364,221.686 48.220,221.566 48.298 C 221.464 48.363,221.331 48.691,221.270 49.026 C 221.208 49.360,221.047 49.677,220.912 49.729 C 220.777 49.780,220.667 49.938,220.667 50.078 C 220.667 50.218,220.597 50.333,220.511 50.333 C 220.426 50.333,220.307 50.487,220.247 50.675 C 220.107 51.116,219.116 52.107,218.675 52.247 C 218.487 52.307,218.333 52.426,218.333 52.511 C 218.333 52.597,218.218 52.667,218.078 52.667 C 217.938 52.667,217.783 52.771,217.734 52.899 C 217.684 53.027,217.312 53.182,216.905 53.243 C 216.499 53.304,216.167 53.424,216.167 53.510 C 216.167 53.598,215.396 53.667,214.417 53.667 C 213.454 53.667,212.667 53.602,212.667 53.522 C 212.667 53.442,212.356 53.336,211.976 53.285 C 211.596 53.234,211.239 53.117,211.183 53.026 C 211.126 52.935,210.874 52.808,210.623 52.745 C 210.372 52.682,210.167 52.564,210.167 52.482 C 210.167 52.400,210.060 52.333,209.930 52.333 C 209.800 52.333,209.234 51.874,208.673 51.313 L 207.652 50.292 207.701 45.688 L 207.750 41.083 208.367 40.472 C 209.525 39.324,211.526 38.170,212.366 38.164 C 212.577 38.163,212.862 38.089,213.000 38.000 C 213.311 37.799,215.614 37.781,215.736 37.978 M350.250 38.151 C 351.327 38.393,352.524 38.846,352.804 39.119 C 352.925 39.237,353.080 39.333,353.149 39.333 C 353.219 39.333,353.701 39.756,354.221 40.272 L 355.167 41.210 355.167 45.851 L 355.167 50.493 354.232 51.413 C 353.717 51.919,353.199 52.333,353.079 52.333 C 352.959 52.333,352.836 52.390,352.806 52.458 C 352.725 52.641,351.259 53.333,350.954 53.333 C 350.811 53.333,350.666 53.418,350.632 53.521 C 350.546 53.777,346.866 53.819,346.702 53.566 C 346.637 53.464,346.302 53.330,345.958 53.266 C 345.615 53.203,345.333 53.088,345.333 53.011 C 345.333 52.933,345.149 52.823,344.925 52.767 C 344.395 52.634,342.366 50.605,342.233 50.075 C 342.177 49.851,342.072 49.667,342.000 49.667 C 341.928 49.667,341.818 49.461,341.755 49.210 C 341.692 48.959,341.570 48.710,341.483 48.656 C 341.397 48.603,341.280 48.058,341.222 47.446 C 341.165 46.834,341.054 46.333,340.976 46.333 C 340.897 46.333,340.833 46.108,340.833 45.833 C 340.833 45.558,340.897 45.333,340.976 45.333 C 341.054 45.333,341.165 44.832,341.222 44.220 C 341.280 43.608,341.391 43.064,341.471 43.012 C 341.550 42.960,341.670 42.692,341.738 42.418 C 341.805 42.144,341.910 41.882,341.972 41.835 C 342.130 41.715,342.833 40.698,342.833 40.590 C 342.833 40.297,345.057 38.667,345.456 38.667 C 345.572 38.667,345.667 38.596,345.667 38.510 C 345.667 38.424,346.023 38.302,346.458 38.239 C 346.894 38.177,347.363 38.058,347.500 37.977 C 347.791 37.804,349.060 37.885,350.250 38.151 " stroke="none" fill="#04a4cc" fill-rule="evenodd"></path><path id="path1" d="" stroke="none" fill="#08a4cc" fill-rule="evenodd"></path><path id="path2" d="" stroke="none" fill="#08a4cc" fill-rule="evenodd"></path><path id="path3" d="" stroke="none" fill="#08a4cc" fill-rule="evenodd"></path><path id="path4" d="" stroke="none" fill="#08a4cc" fill-rule="evenodd"></path></g></svg>