<svg xmlns="http://www.w3.org/2000/svg" viewBox="0 0 250 250">
        <g fill="none" fill-rule="nonzero">
          <circle cx="125" cy="125" r="125" fill="#EA1919" />
          <path
      fill="#FFF"
      d="M126.113 163.36c-15.183 0-29.972-4.892-42.198-11.35L78 177.843C89.437 184.303 107.183 189 125.521 189 157.86 189 176 172.56 176 149.27c0-23.291-19.718-31.903-38.648-36.992-14.789-4.11-26.028-7.241-26.028-15.266 0-6.654 5.324-10.373 16.169-10.373 12.225 0 27.606 4.306 39.83 10.765l6.114-25.64C161.606 65.307 146.62 61 127.296 61c-30.564 0-47.324 15.07-47.324 37.774 0 24.465 21.69 32.685 39.634 37.578 16.366 4.501 25.24 7.241 25.24 15.461 0 7.438-7.691 11.548-18.733 11.548z"
    />
        </g>
      </svg>
