<svg xmlns="http://www.w3.org/2000/svg" viewBox="0 0 1224 466.84">
  <defs />
  <defs>
    <style>
      .cls-1{fill:#383c43}.cls-2{fill:#1cbc97}
    </style>
  </defs>
  <path
    d="M884.76 311.36l-41.13-106.19h36.91l23.71 69.28 23.92-69.28H964l-40.59 106.19zM155.87 311.35V205.17h33.88v106.18zM304.88 241.65v69.71H271v-57.7c0-12.66-6.27-19.59-16.77-19.59-9.42 0-17.21 6.28-17.21 20.13v57.16h-33.88V205.17h32.47v13.31c6.82-11.25 17.32-16.23 31.61-16.23 21.21 0 37.66 14.83 37.66 39.4zM391.78 215.34v-59.85h33.77v155.87h-32.69v-11.48c-6.5 8.34-16.13 14.29-30.53 14.29-28.25 0-49.36-24.57-49.36-56.07 0-31.17 21-55.85 49.47-55.85 13.56 0 22.84 5.3 29.34 13.09zm-43.95 42.87c0 13.86 9.09 24.36 22.62 24.36 13.31 0 22.73-10.29 22.73-24.36s-9.42-24.35-22.73-24.35c-13.53 0-22.62 10.5-22.62 24.35z"
    class="cls-1"
  />
  <path d="M438.93 277.48h33.88v33.88h-33.88zM155.87 155.49h33.88v33.88h-33.88z" class="cls-2" />
  <path
    d="M588.82 225.08l-26.52 18.51c-5.31-6.93-11.37-10.18-19.59-10.18-11.8 0-21.87 9.2-21.87 24.36 0 15.37 9.85 24.35 21.65 24.35 7.9 0 14.61-3.46 20-10.28l26.41 18.83c-10.28 14.4-25.65 23.06-45.46 23.06-33.88 0-57.26-23.49-57.26-56s23.38-56 57.26-56c19.83.08 35.09 8.73 45.38 23.35zM672.11 311.36v-11.48c-6.5 8.34-16.13 14.29-30.53 14.29-28.25 0-49.36-24.57-49.36-56.07 0-31.17 21-55.85 49.47-55.85 14.29 0 24 6.06 30.42 14.39v-11.47h32.8v106.19zm-45-53.15c0 13.86 9.09 24.36 22.62 24.36 13.32 0 22.73-10.29 22.73-24.36s-9.46-24.35-22.76-24.35c-13.53 0-22.62 10.5-22.62 24.35zM801.72 254.85h33.88v56.5h-33.88zM1068.2 258.8a73.23 73.23 0 01-.64 10.5h-72c2.93 11.69 11 17 22.73 17 7.91 0 16.35-3.25 23.17-9.31l21.86 20.35c-11.14 11.15-26.95 17.43-46.76 17.43-33.34 0-56-22.19-56-55.32 0-33.33 22.08-56.61 54.45-56.61 31.55-.01 53.19 22.72 53.19 55.96zm-72.52-10.94h38.65c-2.71-10.71-9.21-16.23-19.16-16.23-10.5 0-16.89 5.73-19.49 16.23z"
    class="cls-1"
  />
  <path d="M801.72 239.05v-33.88h33.88v33.88z" class="cls-2" />
  <path
    d="M438.93 261.67v-56.5h33.88v56.5zM788.33 276.34c-5 3.92-12.57 6.27-21.18 6.27-9.74 0-15-4.11-15-16.32v-30.63h36.2v-30.34h-36.2v-30.91h-33.86v96.2c0 26.48 16.11 43.56 41.3 43.56a75.69 75.69 0 0028.74-5.17z"
    class="cls-1"
  />
</svg>
