<svg viewBox="0 0 276.808 60.363" className="logo-mlb">
          <path
    d="M8.728 57.456C3.91 57.456 0 53.554 0 48.734V8.732C0 3.912 3.91 0 8.728 0L265.43.017c4.827 0 8.736 3.91 8.736 8.73v40c0 4.82-3.91 8.722-8.735 8.722L8.73 57.455z"
    fill="#FFF"
  />
          <path
    d="M269.548 4.635c-1.098-1.104-2.562-1.706-4.117-1.706h-31.107l14.39 24.006 1.32.157.764 1.102v1.04l.934.16.823 1.154v.986l.928.163.933 1.04v2.238s2.034 1.87 3.84 2.576c1.265.494 1.43 2.525 2.143 3.618.987 1.538 2.303 2.19 2.025 3.067-.652 2.357-3.063 6.306-5.306 6.524 0 0-5.59.004-8.883.004l.003 3.8h17.198c3.213 0 5.823-2.617 5.823-5.823v-40c0-1.554-.61-3.017-1.705-4.11z"
    fill="#888"
  />
          <path
    d="M225.8 2.93L8.727 2.91c-1.548 0-3.017.603-4.112 1.705-1.1 1.102-1.703 2.56-1.703 4.118v40.002c0 1.544.604 3.012 1.703 4.11 1.095 1.1 2.563 1.7 4.112 1.7l197.477.027c-.915-1.525-1.93-3.254-2.252-3.775h-4.328c-.002-10.743 3.665-16.713 7.993-17.868.606-.113.328-3.073-.443-3.946 0 0-2.08.055-2.517-.057-.55-.16-.163-.705-.163-.705l2.023-4.39-.27-1.204h-7.51l6.19-4.33c.32-11.395 11.996-12.28 19.064-7.574 4.167 2.792 4.497 8.275 4.176 12.116l-1.102.05s-.708 4.168 1.157 4.168l8.215-.01c3.34-.105 6.578 2.14 6.578 2.14l.822-2.852-18.04-23.406z"
    fill="#888"
  />
          <path
    d="M105.516 37.82c1.123 0 2.074.4 2.87 1.172.793.78 1.19 1.73 1.19 2.847 0 1.11-.397 2.065-1.19 2.848-.796.794-1.748 1.19-2.87 1.19-1.12 0-2.072-.395-2.866-1.19-.794-.784-1.187-1.737-1.187-2.85 0-1.118.392-2.065 1.187-2.846.795-.772 1.746-1.172 2.866-1.172zM132.582 28.045l-5.67 1.17c-.194-1.257-.632-2.207-1.315-2.842-.67-.637-1.553-.958-2.64-.958-1.438 0-2.59.56-3.45 1.67-.86 1.116-1.29 2.975-1.29 5.59 0 2.895.437 4.948 1.314 6.145.867 1.193 2.04 1.794 3.51 1.794 1.1 0 2-.354 2.704-1.062.697-.716 1.19-1.938 1.48-3.67l5.668 1.11c-.587 2.927-1.714 5.14-3.383 6.64-1.668 1.497-3.905 2.245-6.71 2.245-3.186 0-5.724-1.125-7.62-3.385-1.89-2.252-2.84-5.373-2.84-9.364 0-4.036.952-7.175 2.848-9.42 1.9-2.25 4.468-3.372 7.703-3.372 2.647 0 4.755.632 6.32 1.9 1.567 1.273 2.69 3.21 3.372 5.81zM142.594 27.526c1.03-1.288 2.3-1.936 3.803-1.936 1.512 0 2.77.648 3.794 1.936 1.022 1.296 1.53 3.135 1.53 5.536 0 2.453-.508 4.328-1.53 5.618-1.022 1.294-2.28 1.934-3.793 1.934-1.502 0-2.773-.64-3.803-1.934-1.025-1.29-1.536-3.15-1.536-5.58 0-2.422.51-4.278 1.536-5.574zm-6 12.376c.937 1.955 2.32 3.445 4.13 4.453 1.813 1.015 3.716 1.52 5.714 1.52 3.226 0 5.902-1.21 8.03-3.65 2.124-2.427 3.183-5.49 3.183-9.19 0-3.666-1.052-6.702-3.153-9.1-2.106-2.402-4.805-3.6-8.1-3.6-2.135 0-4.062.53-5.795 1.586-1.73 1.058-3.07 2.594-4.006 4.6-.94 2.015-1.417 4.09-1.417 6.243-.002 2.798.474 5.186 1.415 7.14zM159.94 21.386h5.303v3.34c1.905-2.58 4.17-3.87 6.794-3.87 1.398 0 2.612.327 3.633.97 1.025.65 1.87 1.628 2.525 2.933.96-1.306 1.994-2.285 3.1-2.933 1.11-.644 2.29-.97 3.552-.97 1.593 0 2.953.37 4.068 1.095 1.1.73 1.928 1.803 2.474 3.214.397 1.046.594 2.733.594 5.065v15.646h-5.775v-13.97c0-2.423-.19-3.988-.595-4.696-.53-.922-1.354-1.383-2.46-1.383-.804 0-1.56.275-2.272.833-.716.55-1.224 1.364-1.534 2.424-.32 1.068-.473 2.748-.473 5.052v11.74H173.1V32.484c0-2.382-.098-3.92-.303-4.606-.212-.695-.528-1.203-.956-1.544-.433-.337-1.01-.506-1.747-.506-.896 0-1.69.265-2.394.805-.715.534-1.22 1.312-1.528 2.324-.31 1.015-.456 2.697-.456 5.04v11.88h-5.78v-24.49h.003zM84.488 18.11c1.496 0 3.513.314 4.242.93.737.624 1.108 1.465 1.108 2.524 0 1.135-.394 2.03-1.165 2.688-.77.66-2.854.99-4.442.99h-3.228V18.11h3.486zm2.305 27.767c2.746 0 4.9-.39 6.453-1.17 1.562-.775 2.83-1.95 3.818-3.52.983-1.564 1.48-3.302 1.48-5.206 0-1.986-.473-3.7-1.425-5.16-.95-1.45-2.448-2.662-4.497-3.633 1.22-.92 2.106-1.906 2.648-2.955.543-1.053.817-2.224.817-3.51 0-1.977-.604-3.694-1.805-5.157-1.204-1.457-2.824-2.45-4.864-2.99-1.428-.393-6.402-.603-9.504-.603h-5.35v33.905h12.23zm-2.637-14.85c2.57 0 5.31.427 6.413 1.278 1.11.847 1.66 2 1.66 3.462 0 1.292-.47 2.275-1.413 2.957-.942.676-3.67 1.013-6.38 1.013h-3.435v-8.71h3.154zM13.484 45.877V12.092h10.224l6.11 23.037L35.82 12.09h10.272v33.785h-6.31l-.028-26.592-6.682 26.592H26.5l-6.677-26.592-.026 26.592h-6.313M49.685 11.972h6.432v27.765H70.98v6.14H49.686V11.972M275.846 58.08c0-.527-.307-.612-.764-.612h-.96v1.983h.413v-.787h.343l.458.788h.453l-.477-.787c.35-.035.533-.228.533-.582zm-.756.226h-.555v-.485h.458c.2 0 .447 0 .447.22 0 .215-.128.266-.35.266z"
    fill="#FFF"
  />
          <path
    d="M274.916 56.562c-1.06 0-1.892.847-1.892 1.91 0 1.043.833 1.89 1.892 1.89 1.057 0 1.892-.846 1.892-1.89 0-1.062-.835-1.91-1.892-1.91zm0 3.39c-.816 0-1.475-.636-1.475-1.48 0-.857.66-1.494 1.476-1.494.807 0 1.476.637 1.476 1.493 0 .846-.67 1.482-1.476 1.482z"
    fill="#FFF"
  />
        </svg>
