<svg height="40" viewBox="0 0 81 40" width="81" xmlns="http://www.w3.org/2000/svg"><g fill="none" fill-rule="evenodd"><g fill="#1428a0"><path d="m62.4318937 15.3846154v5.9790297h6.1188414v18.6363549h6.2290886v-18.6363549h6.1504089v-5.9790297z"/><path d="m14.6311442 15.3846154v13.0717078l-8.32994652-13.0717078h-6.30119768v24.6153846h6.17924973v-13.5591154l8.60919317 13.5591154h6.0221883v-24.6153846z"/><path d="m22.3521595 40h15.4152824v-5.9790872h-9.2399224v-3.4014374h9.2399224v-5.9786137h-9.2399224v-3.2776325h9.2399224v-5.9786138h-15.4152824z"/></g><path d="m53.9389259 27.7151512.0145625-.022015-8.1288434-12.3085208h-7.286439l7.8338907 12.3071005-.013822.022015-7.8200687 12.2862691h7.3214878z" fill="#00b9e8"/><path d="m53.1827243 15.3846154h8.4784053l-4.3115516 6.1538461z" fill="#1428a0"/><path d="m53.1827243 39.2307692h8.4784053l-4.3115516-6.1538461z" fill="#1428a0"/><path d="m75.9399761 5.47575244v1.7146639h1.2225342v1.70179178c.0034493.1517939-.0051739.31573131-.0315365.44688124-.0482904.31816001-.3542935.85757484-1.2222878.85757484-.8625741 0-1.1634032-.53941483-1.2151429-.85757484-.0219277-.13114993-.0312902-.29508734-.0312902-.44688124v-5.37447556c0-.18992452.0130582-.39830719.0539571-.55544424.0591311-.28682975.3165975-.85150306 1.1858237-.85150306.9128354 0 1.1404899.59551783 1.1924759.85150306.0344931.16903769.0364642.45392448.0364642.45392448v.65186373h3.0045958v-.38592081s.0130581-.40267886-.0229132-.77839912c-.2259299-2.20550466-2.0695864-2.9037566-4.1837673-2.9037566-2.1178767 0-3.9248227.70456657-4.187463 2.9037566-.0236525.20182517-.060363.56345895-.060363.77839912v4.94410948c0 .21542591.0068986.38227776.0475512.77524181.1963644 2.14551569 2.0823981 2.90618529 4.1916515 2.90618529 2.1228042 0 3.9955335-.7606696 4.1953471-2.90618529.0352323-.39296405.0384352-.5598159.0438555-.77524181v-3.15051276zm-20.4486342-5.47575244h-2.7753924v8.28418379c.0045331.14409489 0 .30646184-.0247054.42557719-.0573437.27778164-.2887587.81345379-1.0543998.81345379-.7556683 0-.9927496-.53567215-1.0466935-.81345379-.0278786-.11911535-.0308251-.2814823-.0278786-.42557719v-8.28418379h-2.7744858v8.02744973c-.0031732.20654371.0126927.62957669.0247054.73967166.1917503 2.09203571 1.806895 2.77134011 3.8243525 2.77134011 2.0215374 0 3.6362287-.6793044 3.8306989-2.77134011.0158658-.11009497.0358115-.53312795.0237987-.73967166zm-25.8736635 0-1.4871006 9.01924149-1.4858835-9.01924149h-4.8089169l-.2543821 11.5384615h2.9459637l.0793575-10.68196005 2.0265367 10.68196005h2.9885635l2.0292144-10.68196005.0796009 10.68196005h2.9537534l-.2638758-11.5384615zm-17.4933148 0-2.10443 11.5384615h3.0686672l1.585478-10.68196005 1.5477063 10.68196005h3.0473179l-2.0957496-11.5384615zm53.9032039 9.38755359-2.5924961-9.38755359h-4.0862342v11.5384615h2.7030087l-.1569005-9.68908045 2.7846424 9.68908045h3.9184188v-11.5384615h-2.7205178zm-25.9142602-6.06289943c-.0531439-.22939395-.0374701-.47269056-.010041-.60021154.0844913-.37153669.3394349-.77687124 1.0743873-.77687124.6849924 0 1.0861427.41827841 1.0861427 1.04557617v.70975493h2.9236464v-.80923089c0-2.5008015-2.2908182-2.89367159-3.949543-2.89367159-2.088039 0-3.793785.67427917-4.1057909 2.55497395-.0822872.51248093-.102859.96767331.0284087 1.54703085.5079279 2.34595459 4.680822 3.0271851 5.2869557 4.51093486.1067775.28068998.0761647.63928282.0220413.85069918-.0911038.38639816-.3565781.77447426-1.1429601.77447426-.738626 0-1.1821445-.41540202-1.1821445-1.04078217l-.0012245-1.11389098h-3.1465077v.88545584c0 2.56456201 2.0530179 3.33879651 4.2642428 3.33879651 2.1176721 0 3.866766-.7078373 4.1479141-2.62856218.1334718-.99188312.0328169-1.63787756-.0208168-1.88117417-.4905397-2.40635927-4.9379696-3.12977717-5.2747105-4.47330179zm-36.99586606.00246095c-.05693182-.23132976-.04336509-.47570889-.01187089-.60335547.08018908-.36561965.33383852-.77347181 1.07370995-.77347181.68608903 0 1.08994157.41734261 1.08994157 1.04252612v.71083483h2.92605342v-.80668839c0-2.49883594-2.30101468-2.89696039-3.95906317-2.89696039-2.0837047 0-3.78632959.67690647-4.0978799 2.55316877-.08503434.51461975-.10005465.96778882.02325725 1.54860446.50851019 2.34841228 4.67688866 3.02769136 5.28375766 4.51342158.11362138.2764094.07922002.63158956.02253046.84820912-.09593617.38626138-.36072971.77655617-1.14541981.77655617-.73260354 0-1.17109971-.41829162-1.17109971-1.04584774l-.00436073-1.1051631h-3.14699734v.87810404c0 2.567879 2.05923613 3.340639 4.26383011 3.340639 2.11955964 0 3.85973531-.7075132 4.14366763-2.63027869.14148164-.99104042.03561267-1.63615387-.01259768-1.88029574-.4947012-2.41104926-4.9436203-3.12496849-5.27745882-4.47000276z" fill="#1428a0"/></g></svg>