<svg viewBox="0 0 199.3 42.5"><path d="m191 25.2h4.9l-2.4-10.8z" fill="#fff"/><path d="m172.9 14.2h-3v16.2h3c2.1 0 3.2-1.3 3.2-4.1v-7.9c.1-2.9-1-4.2-3.2-4.2z" fill="#fff"/><path d="m98.3 25h2.5l-1.2-8.2z" fill="#fff"/><g fill="#888"><path d="m144.7 25.1-5.1-13.1h-4.8l-2 9.2-2.1-9.2h-4.8l4.7 14.7v5.7h4.3v-5.6l2.6-8v13.6h2.1v-14.6l4.6 10.9h1.1l4.5-10.9v14.6h2.2v-20.4h-2.2z"/><path d="m158 22.8h5.3v-1.9h-5.3v-6.7h6.7v-2.2h-9.1v20.4h9.4v-2.1h-7z"/><path d="m172.9 12h-5.4v20.4h5.4c3.6 0 5.6-2.3 5.6-6.2v-8c0-3.9-2-6.2-5.6-6.2zm3.3 14.2c0 2.8-1.1 4.1-3.2 4.1h-3v-16.1h3c2.2 0 3.2 1.3 3.2 4.2z"/><path d="m182 12h2.4v20.4h-2.4z"/><path d="m194.8 12h-2.8l-5.2 20.4h2.4l1.2-5.3h5.8l1.2 5.3h2.4zm-3.8 13.2 2.5-10.8 2.5 10.8z"/><path d="m10.7 16.1h3.3v16.3h4.4v-16.3h3.3v-4.1h-11z"/><path d="m27.6 23.7h3.8v-3.5h-3.8v-4.2h5.2v-4h-9.6v20.4h9.7v-3.9h-5.3z"/><path d="m40.1 29c-1.1 0-1.5-.8-1.5-2.2v-8.7c0-1.7.4-2.5 1.5-2.5.9 0 1.4.6 1.6 2.2l3.3-1.1c-.4-3-2.4-5-5.3-5-3.3 0-5.5 2.4-5.5 6.4v8.7c0 3.6 2.1 5.9 5.5 5.9 3.1 0 4.8-1.6 5.3-5l-3.4-1c-.1 1.7-.6 2.3-1.5 2.3z"/><path d="m53.9 19.9h-2.9v-7.9h-4.4v20.4h4.4v-8.4h2.9v8.4h4.4v-20.4h-4.4z"/><path d="m68.6 21.8-4.7-9.8h-3.2v20.4h3.8v-10.3l5 10.3h2.9v-20.4h-3.8z"/><path d="m75 12h4.4v20.4h-4.4z"/><path d="m87.4 29c-1.1 0-1.5-.8-1.5-2.2v-8.7c0-1.7.4-2.5 1.5-2.5.9 0 1.4.6 1.6 2.2l3.3-1.1c-.4-3-2.4-5-5.3-5-3.3 0-5.5 2.4-5.5 6.4v8.7c0 3.6 2.1 5.9 5.5 5.9 3.1 0 4.8-1.6 5.3-5l-3.4-1c-.1 1.7-.6 2.3-1.5 2.3z"/><path d="m97 12-4.3 20.4h4.4l.6-4.1h3.6l.7 4.1h4.5l-4.3-20.4zm1.3 13 1.3-8.1 1.3 8.1z"/><path d="m112.1 12h-4.3v20.4h9.3v-4h-5z"/><path d="m122.9 12h-4.3v20.4h9.3v-4h-5z"/><path d="m8.1 25.2 3.7-2v-5l-3.7 2.1z"/><path d="m4.8 28.3v5.2l7-3.9v-5.1z"/><path d="m.1 37.4-.1 5.2 11.7-6.5v-5z"/><path d="m12.6 0h1.8v10h-1.8z"/></g></svg>