<svg viewBox="0 0 199.3 42.5" className="logo-technically">
          <polygon fill="#fff" points="191,25.2 195.9,25.2 193.5,14.4" />
          <path
    fill="#fff"
    d="M172.9,14.2h-3v16.2h3c2.1,0,3.2-1.3,3.2-4.1v-7.9C176.2,15.5,175.1,14.2,172.9,14.2z"
  />
          <polygon fill="#fff" points="98.3,25 100.8,25 99.6,16.8" />
          <polygon
    fill="#888"
    points="144.7,25.1 139.6,12 139.6,12 139.6,12 134.8,12 132.8,21.2 130.7,12 125.9,12 130.6,26.7
        130.6,32.4 134.9,32.4 134.9,26.8 137.5,18.8 137.5,32.4 139.6,32.4 139.6,17.8 144.2,28.7 145.3,28.7 149.8,17.8 149.8,32.4
        152,32.4 152,12 149.8,12"
  />
          <polygon
    fill="#888"
    points="158,22.8 163.3,22.8 163.3,20.9 158,20.9 158,14.2 164.7,14.2 164.7,12 155.6,12
        155.6,32.4 165,32.4 165,30.3 158,30.3"
  />
          <path
    fill="#888"
    d="M172.9,12h-5.4v20.4h5.4c3.6,0,5.6-2.3,5.6-6.2v-8C178.5,14.3,176.5,12,172.9,12z M176.2,26.2
        c0,2.8-1.1,4.1-3.2,4.1h-3V14.2h3c2.2,0,3.2,1.3,3.2,4.2V26.2z"
  />
          <rect x="182" y="12" fill="#888" width="2.4" height="20.4" />
          <path
    fill="#888"
    d="M194.8,12h-2.8l-5.2,20.4h2.4l1.2-5.3h5.8l1.2,5.3h2.4L194.8,12z M191,25.2l2.5-10.8l2.5,10.8H191z"
  />
          <polygon
    fill="#888"
    points="10.7,16.1 14,16.1 14,32.4 18.4,32.4 18.4,16.1 21.7,16.1 21.7,12 10.7,12"
  />
          <polygon
    fill="#888"
    points="27.6,23.7 31.4,23.7 31.4,20.2 27.6,20.2 27.6,16 32.8,16 32.8,12 23.2,12 23.2,32.4
        32.9,32.4 32.9,28.5 27.6,28.5"
  />
          <path
    fill="#888"
    d="M40.1,29c-1.1,0-1.5-0.8-1.5-2.2v-8.7c0-1.7,0.4-2.5,1.5-2.5c0.9,0,1.4,0.6,1.6,2.2l3.3-1.1
        c-0.4-3-2.4-5-5.3-5c-3.3,0-5.5,2.4-5.5,6.4v8.7c0,3.6,2.1,5.9,5.5,5.9c3.1,0,4.8-1.6,5.3-5l-3.4-1C41.5,28.4,41,29,40.1,29z"
  />
          <polygon
    fill="#888"
    points="53.9,19.9 51,19.9 51,12 46.6,12 46.6,32.4 51,32.4 51,24 53.9,24 53.9,32.4 58.3,32.4
        58.3,12 53.9,12"
  />
          <polygon
    fill="#888"
    points="68.6,21.8 63.9,12 60.7,12 60.7,32.4 64.5,32.4 64.5,22.1 69.5,32.4 72.4,32.4 72.4,12
        68.6,12"
  />
          <rect x="75" y="12" fill="#888" width="4.4" height="20.4" />
          <path
    fill="#888"
    d="M87.4,29c-1.1,0-1.5-0.8-1.5-2.2v-8.7c0-1.7,0.4-2.5,1.5-2.5c0.9,0,1.4,0.6,1.6,2.2l3.3-1.1
        c-0.4-3-2.4-5-5.3-5c-3.3,0-5.5,2.4-5.5,6.4v8.7c0,3.6,2.1,5.9,5.5,5.9c3.1,0,4.8-1.6,5.3-5l-3.4-1C88.8,28.4,88.3,29,87.4,29z"
  />
          <path
    fill="#888"
    d="M97,12l-4.3,20.4h4.4l0.6-4.1h3.6l0.7,4.1h4.5L102.2,12H97z M98.3,25l1.3-8.1l1.3,8.1H98.3z"
  />
          <polygon
    fill="#888"
    points="112.1,12 107.8,12 107.8,32.4 117.1,32.4 117.1,28.4 112.1,28.4"
  />
          <polygon
    fill="#888"
    points="122.9,12 118.6,12 118.6,32.4 127.9,32.4 127.9,28.4 122.9,28.4"
  />
          <polygon fill="#888" points="8.1,25.2 11.8,23.2 11.8,18.2 8.1,20.3" />
          <polygon fill="#888" points="4.8,28.3 4.8,33.5 11.8,29.6 11.8,24.5" />
          <polygon fill="#888" points="0.1,37.4 0,42.6 11.7,36.1 11.7,31.1" />
          <rect x="12.6" fill="#888" width="1.8" height="10" />
        </svg>
