<svg viewBox="0 0 432 107"><g fill="none"><g fill="#888"><path d="m263.5 63v-13.8c-4.5 1.9-16 4.7-16 10.7 0 4 3 7.3 7.1 7.3 3.9 0 6.1-2 8.9-4.2zm.2-16.2v-10.6c0-3.9-2.5-4.9-6.2-4.9-3.6 0-8.7 2.4-8.7 4.5 0 .6.2 1.3.2 2.3 0 3.7-.9 6.2-5.2 6.2-1.8 0-3-1.7-3-3.3 0-2.1 1.5-4.2 3.6-5.9 4.5-3.7 11.6-6.7 17.5-6.7 6.1 0 9.3 3.6 9.3 9.4v25.9c0 1.6 0 4.6 2.3 4.6 1.6 0 2.5-2 2.8-3.3h1.6c-.5 4.6-2.5 7.4-7.2 7.4-3.7 0-6.8-3.3-6.9-6.7-4.7 3.4-7.8 6.7-14 6.7-4.6 0-8.8-3.6-8.8-8.2-.1-10.7 14.6-14 22.7-17.4z"/><path d="m349.9 50.4c0 7.5 2.8 19.8 12.5 19.8 9.4 0 12.7-9.8 12.7-17.4 0-8.2-1.2-22.3-12.6-22.3-9.8-.1-12.6 12.6-12.6 19.9zm-8.5-.4c0-11.7 8.4-21.7 20.7-21.7 13 0 21.3 9.8 21.3 22.1 0 12.6-8.1 21.9-21.2 21.9-13.2-.1-20.8-10-20.8-22.3z"/><path d="m100.3 6.5v-2.2h22.6v2.2c-4.2.1-5.8.1-5.8 2.6 0 .1.1.8.5 1.7l13.6 46.2 19.1-55h1.6l16.7 54.3s13.2-39.7 13.2-45.3c0-4.4-2.8-4.1-6.4-4.5v-2.2h13.8c6.1 0 12.3-2.1 15.8-4.2v35.1c4.3-3.8 7.9-6.9 14.1-6.9 4.6 0 8.8 2 11.1 5.9 2.1 3.4 2.5 6.6 2.5 10.4v19.4c0 5 1.3 5 5.7 5.3v1.8h-18.9v-1.8c4.1-.3 5.4-.3 5.4-5.3v-19.5c0-3.1 0-4.5-1.4-7.4-1.6-2.8-4.4-5.5-8-4.9-5.5.9-7.6 3.4-10.4 6.1v25.7c0 5 1.3 5 5.5 5.3v1.8h-19.1v-1.8c4.5-.3 5.8-.3 5.8-5.3v-57c.1-.1-1.5 0-3.6 0-7.6.5-7.8 6.3-10.2 13.2l-17.1 52.1h-1.8l-16.9-52.2-19.5 52.2h-1.7l-18-57.3c-1.1-3-1.6-5.5-3.2-7.2-1-.8-1.1-1.4-5-1.3z"/><path d="m403.5 71.2v-1.8c-4.3-.3-5.6-.3-5.6-5.3v-22.9c0-4.5 6-8.5 10.2-8.5 6.4 0 9.9 4.1 9.9 10.2v21.1c0 5-1.3 5-5.8 5.3v1.8h19.6v-1.8c-3.4-.3-6.1-.3-6.1-5.3v-22.9c0-7.3-7.3-12.8-14.5-12.8-6.3 0-9.4 2.9-13.5 7v-7c-4.3 1.5-8.8 3.8-13.4 4.4v1.5c4.1.4 5.6 1.8 5.6 5.4v24.4c0 5-1.3 5-5.8 5.3v1.8h19.4z"/><path d="m299.8 71.2v-1.8c-5.1-.3-6.3-.3-6.3-5.3v-25.7c0-1.6 2.6-4 5.4-4 2.6 0 3 3 6.3 3 4 0 4.9-2.1 4.9-5 0-3-3.2-4.7-6.9-4.7-4.3 0-7.6 3.7-9.9 7v-6.7c-4.5 2.1-9.4 4-13.8 4.7v1.5c4.4.5 6.2 1.5 6.2 5.3v24.5c0 5-1.3 5-5.6 5.3v1.8h19.7z"/><path d="m341.2 30.7 1.4-5.3h-17.1v-8.6h-1c-4 4.7-7.8 8.8-12.4 12.8v1.1h5.4v29.2c0 6.9 3.1 12.7 10.6 12.7 6.4 0 11.3-4.7 14-7.8l-1.2-1.6c-2.3 2.6-5.4 4.1-8.2 4.1-5.7 0-7.2-3.1-7.2-8.4v-28.1z"/><path d="m104.6 93.6c0 3.3.9 5.8 4.4 5.8 3.2 0 4.9-2.2 4.9-6v-6.6c0-.5-.1-.9-.1-1.3-.1-.8-.9-1.2-2-1.3v-.6h5.6v.6c-1.1.1-1.9.4-2 1.3 0 .4-.1.8-.1 1.3v6.7c0 5.1-3.2 7-6.3 7-5 0-6.6-2.6-6.6-6.8v-7.1c0-2.2.1-2.1-2-2.3v-.6h6.4v.6c-2.1.3-2 .1-2 2.3v7z" stroke="#004784"/><path d="m130.8 100.3c-2.9-3.4-5.9-7-8.9-10.5v8.1c0 .4.1.7.1 1 .1.7.7.9 1.9 1v.5h-4.5v-.5c.9-.1 1.5-.3 1.6-1 0-.3.1-.6.1-1v-8.6c-.5-.7-1.1-1.2-2.1-1.2v-.5h3.3c2.7 3.3 5.5 6.7 8.3 10v-7.5c0-.4-.1-.7-.1-1-.1-.7-.7-.9-1.9-1v-.5h4.5v.5c-.9.1-1.5.3-1.6 1 0 .3-.1.6-.1 1v10.3h-.6z" stroke="#004784"/><path d="m139.8 98c0 1.7-.1 1.6 1.6 1.8v.5h-4.9v-.5c1.6-.2 1.6-.1 1.6-1.8v-8.2c0-1.7.1-1.6-1.6-1.8v-.5h4.9v.5c-1.6.2-1.6.1-1.6 1.8z" stroke="#004784"/><path d="m149.3 88c-1 0-1.7.3-1.1 2 .7 2.2 1.8 5.3 2.7 8.1 1.2-2.8 2.3-5.6 3.4-8.4.5-1.2 0-1.7-1.3-1.7v-.5h3.9v.5c-.5 0-1.1.2-1.5 1.1-1.5 3.7-3.1 7.5-4.6 11.2h-.9c-1.1-3.2-2.4-6.7-3.5-9.8-.7-2-1.2-2.5-2.1-2.5v-.5h5z" stroke="#004784"/><path d="m159.8 99.8c1.6-.2 1.6-.1 1.6-1.8v-8.2c0-1.7.1-1.6-1.6-1.8v-.5h8.2v2.9h-.5c-.2-1.4-.6-2.4-1.9-2.4h-2.5v5.2h1.5c1.2 0 1.6-.5 1.7-1.6h.5v3.9h-.5c0-1.1-.5-1.7-1.7-1.7h-1.5v4.1c0 1.6.7 1.7 2.4 1.7 2.7 0 2.5-.8 3.4-2.7h.5l-.5 3.3h-9z" stroke="#004784"/><path d="m172.5 87.5h5.3c1.8 0 3.7 1 3.7 3.1 0 1.9-1.1 3.2-2.6 3.7l1.8 2.7c.9 1.3 1.9 2.6 2.6 3v.2h-1.9c-1.1 0-1.7-2-3.9-5.7h-1.7v3.4c0 1.7-.1 1.6 1.6 1.8v.5h-4.9v-.5c1.6-.2 1.6-.1 1.6-1.8v-8.2c0-1.7.1-1.6-1.6-1.8zm3.3 6.5h1.5c1.6 0 2.3-1.2 2.3-3.3 0-2-1.1-2.7-2.4-2.7h-1.4z" stroke="#004784"/><path d="m192.5 90.2c-.1-1.3-.8-2.3-2.3-2.3-1.1 0-2 .5-2 1.9 0 1.3 1.3 2 3.1 3.4 1.9 1.4 2.6 2.4 2.6 3.9 0 2.2-2.2 3.4-4.4 3.4-1.2 0-2.2-.2-3.1-.6-.1 0-.1-.1-.1-.3v-2.6h.5c.2 2 1.5 2.8 2.9 2.8 1.3 0 2.3-1 2.3-2.3 0-1.2-.6-2.2-3.4-4-1-.7-2.2-1.4-2.2-3.4 0-1.6 1.8-2.9 3.9-2.9.8 0 1.8.1 2.6.3.1 0 .1.1.1.2v2.4h-.5z" stroke="#004784"/><path d="m201 98c0 1.7-.1 1.6 1.6 1.8v.5h-4.9v-.5c1.6-.2 1.6-.1 1.6-1.8v-8.2c0-1.7.1-1.6-1.6-1.8v-.5h4.9v.5c-1.6.2-1.6.1-1.6 1.8z" stroke="#004784"/><path d="m211.9 98c0 1.7-.1 1.6 1.6 1.8v.5h-4.9v-.5c1.6-.2 1.6-.1 1.6-1.8v-9.9h-1.6c-1.6 0-2 1-2.6 2.2h-.5l.5-2.8h10.1l.5 2.8h-.5c-.6-1.2-1-2.2-2.6-2.2h-1.6z" stroke="#004784"/><path d="m221.9 99.8c1.7-.2 1.6-.1 1.6-1.8v-2.8l-2.8-5.6c-.6-1.2-1.1-1.6-2-1.6v-.5h4.7v.5c-1.4 0-1.3.7-.8 1.6l2.2 4.6 2.5-4.6c.6-1.1 0-1.6-1-1.6v-.5h3.8v.5c-.5 0-1 .2-1.5 1.1l-3.1 5.5c-.2.4-.2.9-.2 1.3v2c0 1.7-.1 1.6 1.6 1.8v.5h-4.9v-.4z" stroke="#004784"/><path d="m239.3 95.9c0-3.1 2.7-7.7 6.6-7.7 3.1 0 3.8 2.1 3.8 4.3 0 2.6-2.1 8.1-6.6 8.1-3-.1-3.8-2.5-3.8-4.7zm8.3-4.6c0-2.5-1.5-2.6-1.9-2.6-2.6 0-4.2 4.6-4.2 7.7 0 1.2.2 3.5 2 3.5 2.6-.1 4.1-4.5 4.1-8.6z"/><path d="m260.8 88.9-.6.5h-3.1c-1.2 5.6-3 13.1-4.4 16.7h-1.1l3.4-16.7h-2.2l.2-1h2.2c1.2-5 5.4-5.6 6.4-5.6.5 0 1.7.1 2 .4l-.3 1.6-.6.3c-.3-.6-1.1-1.4-2.1-1.4-1.4 0-2.5 1-3.1 3.5l-.3 1.1h3.5z"/><path d="m275 97.3c0 2.2-.1 2.1 2 2.3v.6h-6.4v-.6c2.1-.3 2-.1 2-2.3v-10.7c0-2.2.1-2.1-2-2.3v-.6h6.2c3.9 0 5.9 1.6 5.9 4.4 0 3.4-3.1 5.3-6.7 5v-.5c3 0 4.3-1.7 4.3-4.3s-1.3-3.9-3.9-3.9h-1.4z" stroke="#004784"/><path d="m286 99.8c1.6-.2 1.6-.1 1.6-1.8v-8.2c0-1.7.1-1.6-1.6-1.8v-.5h8.2v2.9h-.5c-.2-1.4-.5-2.4-1.9-2.4h-2.5v5.2h1.5c1.1 0 1.6-.5 1.7-1.6h.5v3.9h-.5c0-1.1-.5-1.7-1.7-1.7h-1.5v4.1c0 1.6.7 1.7 2.4 1.7 2.6 0 2.5-.8 3.4-2.7h.5l-.6 3.3h-9z" stroke="#004784"/><path d="m309.7 100.3c-2.9-3.4-5.9-7-8.9-10.5v8.1c0 .4.1.7.1 1 .1.7.7.9 1.9 1v.5h-4.5v-.5c.9-.1 1.5-.3 1.6-1 0-.3.1-.6.1-1v-8.6c-.5-.7-1.1-1.2-2.1-1.2v-.5h3.3c2.7 3.3 5.6 6.7 8.3 10v-7.5c0-.4-.1-.7-.1-1-.1-.7-.7-.9-1.9-1v-.5h4.5v.5c-.9.1-1.5.3-1.6 1 0 .3-.1.6-.1 1v10.3h-.6z" stroke="#004784"/><path d="m326.4 100.3c-2.9-3.4-5.9-7-8.9-10.5v8.1c0 .4.1.7.1 1 .1.7.7.9 1.9 1v.5h-4.5v-.5c.9-.1 1.5-.3 1.6-1 0-.3.1-.6.1-1v-8.6c-.5-.7-1.1-1.2-2.1-1.2v-.5h3.3c2.7 3.3 5.6 6.7 8.3 10v-7.5c0-.4-.1-.7-.1-1-.1-.7-.7-.9-1.9-1v-.5h4.5v.5c-.9.1-1.5.3-1.6 1 0 .3-.1.6-.1 1v10.3h-.6z" stroke="#004784"/><path d="m338.3 90.2c-.1-1.3-.8-2.3-2.3-2.3-1.1 0-2 .5-2 1.9 0 1.3 1.3 2 3.1 3.4 1.9 1.4 2.6 2.4 2.6 3.9 0 2.2-2.2 3.4-4.4 3.4-1.2 0-2.2-.2-3.1-.6-.1 0-.1-.1-.1-.3v-2.6h.5c.2 2 1.5 2.8 2.9 2.8 1.3 0 2.4-1 2.4-2.3 0-1.2-.6-2.2-3.4-4-1-.7-2.2-1.4-2.2-3.4 0-1.6 1.8-2.9 3.9-2.9.8 0 1.8.1 2.6.3.1 0 .1.1.1.2v2.4h-.6z" stroke="#004784"/><path d="m345.6 99.8c1.6-.2 1.6-.1 1.6-1.8v-2.8l-2.8-5.6c-.6-1.2-1.1-1.6-1.9-1.6v-.5h4.7v.5c-1.4 0-1.3.7-.8 1.6l2.2 4.6 2.5-4.6c.6-1.1 0-1.6-1-1.6v-.5h3.8v.5c-.5 0-1 .2-1.5 1.1l-3 5.5c-.2.4-.2.9-.2 1.3v2c0 1.7-.1 1.6 1.6 1.8v.5h-4.9v-.4z" stroke="#004784"/><path d="m356.9 99.8c1.6-.2 1.6-.1 1.6-1.8v-8.2c0-1.7.1-1.6-1.6-1.8v-.5h4.9v.5c-1.6.2-1.6.1-1.6 1.8v8.5c0 1.3.7 1.4 2.3 1.4 2.6 0 2.5-.8 3.4-2.7h.5l-.5 3.3h-9z" stroke="#004784"/><path d="m371.7 88c-1 0-1.7.3-1.1 2 .7 2.2 1.8 5.3 2.7 8.1 1.2-2.8 2.3-5.6 3.4-8.4.5-1.2 0-1.7-1.3-1.7v-.5h3.9v.5c-.5 0-1.1.2-1.5 1.1-1.5 3.7-3.1 7.5-4.6 11.2h-.9c-1.1-3.2-2.4-6.7-3.5-9.8-.7-2-1.2-2.5-2.1-2.5v-.5h5z" stroke="#004784"/><path d="m382.8 96-.8 2.4c-.2.7.1 1.3.9 1.3v.5h-3.3v-.5c.5 0 1-.3 1.3-.9.8-1.6 2.9-7.6 4.4-11.6h1c1.2 3.7 3.1 9.3 3.7 10.9.4 1 .7 1.6 1.5 1.6v.5h-4.3v-.5c1.2 0 1.3-.6 1-1.4l-.8-2.4zm4.4-.7-1.9-5.9-2.2 5.9z" stroke="#004784"/><path d="m405.3 100.3c-2.9-3.4-5.9-7-8.9-10.5v8.1c0 .4.1.7.1 1 .1.7.7.9 1.9 1v.5h-4.5v-.5c.9-.1 1.5-.3 1.6-1 0-.3.1-.6.1-1v-8.6c-.5-.7-1.1-1.2-2.1-1.2v-.5h3.3c2.7 3.3 5.5 6.7 8.3 10v-7.5c0-.4-.1-.7-.1-1-.1-.7-.7-.9-1.9-1v-.5h4.5v.5c-.9.1-1.5.3-1.6 1 0 .3-.1.6-.1 1v10.3h-.6z" stroke="#004784"/><path d="m413.9 98c0 1.7-.1 1.6 1.6 1.8v.5h-4.9v-.5c1.6-.2 1.6-.1 1.6-1.8v-8.2c0-1.7.1-1.6-1.6-1.8v-.5h4.9v.5c-1.6.2-1.6.1-1.6 1.8z" stroke="#004784"/><path d="m421.5 96-.8 2.4c-.2.7.1 1.3.9 1.3v.5h-3.3v-.5c.5 0 1-.3 1.3-.9.8-1.6 2.9-7.6 4.4-11.6h1c1.2 3.7 3.1 9.3 3.7 10.9.4 1 .7 1.6 1.5 1.6v.5h-4.2v-.5c1.2 0 1.3-.6 1-1.4l-.8-2.4zm4.4-.7-1.9-5.9-2.2 5.9z" stroke="#004784"/></g><g transform="translate(0 4)"><path d="m1.1 1.4h88.8v44.3s1.1 17.4-12.2 32.6c-16.5 18.8-32 22.9-32 22.9s-13.7-3.7-30.1-20.3c-15.8-16-14.5-34.6-14.5-34.6z" fill="#fff"/><path d="m2.4 28.9c0-1.9 0-24.5 0-26.4h86.5v26.4zm40.3-8.1c.6.2 2.6 1.2 4.2 2.1l2.6 1.3c.1 0 .3.1.5.2 1.3.7 4.3 2.3 8.6 1.5.1 0 3.4-.5 5.2-3.1 1.1-1.6 1.7-3.7.9-6.1-2.1-6.7.4-9.6.4-9.6s-2.3-.9-4.5.5c-1.3.8-1.9 2.3-2 4.6-.8.2-2.1.5-2.8 1.7-.7 1.1-.6 2.5.1 4.2l.4.9.6-.8c.5-.8 2.1-1.2 2.8-.8.8.5.8 1.4.7 2-.1.5-.2 1-.5 1.3-.6.5-1.7.7-3 .5-.7-.1-1.6-.4-2.4-1.1-.4-.4-.4-.8-.9-1.2-.4-.3-.1-1 0-1.3.2-.6.4-1.4 0-2.2-.6-1-1.2-1.2-1.7-1.3-.3-.1-.4-.1-.6-.3s-.2-.6-.1-1.1c.1-.7.2-1.6-.4-2.3-.9-1-1.7-.9-2.4-.9-.4 0-.8 0-1.3-.2-.2-.1-.2-.2-.3-.6-.2-.6-.4-1.6-2-2.2-1-.4-1.7 0-2.2.2-.3.2-.6.3-.9.3-.2 0-.2 0-.5-.4-.4-.5-.9-1.2-2.4-1-.8.1-1.4.8-1.7 1.3-.1.1-.2.3-.3.3s-.1 0-.2-.1c-.6-.4-1.6-1-2.8-.3-.7.4-1.4 1.4-1.4 1.4-.2.4-.4.6-.6.7l-.4-.7c-1.6.8-4.7 8-4.7 9.5 0 .9.5 1.3.8 1.5s.4.3.4.7c0 .2-.3.5-.5.8-.3.4-1.4 1.9-.1 3.2l.8.2c.3 1.2 1.2 1.6 2.5 1.6 2.1 0 4.1-1.4 5.4-2.4l.2-.1c.8-.6 1.7-1.1 2-2.4.3-.2 1-.5 2.2-.5.3 0 1.2.2 2.3.5z" fill="#a80533"/><path d="m50 24.5c-.2-.1-.4-.2-.5-.2-.4-.2-1.4-.7-2.6-1.3-1.6-.8-3.6-1.9-4.2-2.1-2.9-.9-4.4-.3-4.8.1-.2 1.3-1.1 1.8-2 2.4l-.2.1c-1.3.9-3.3 2.4-5.4 2.4-1.3 0-2.2-.4-2.5-1.6l-.8-.3c-1.3-1.3-.2-2.8.1-3.2.2-.3.5-.6.5-.8 0-.5-.1-.5-.4-.7s-.8-.6-.8-1.5c0-1.5 3.1-8.7 4.7-9.5l.4.7c.3-.1.4-.3.6-.7 0 0 .6-1.1 1.4-1.4 1.2-.6 2.2 0 2.8.3.1.1.1.2.2.1s.2-.2.3-.3c.4-.5.9-1.2 1.7-1.3 1.5-.1 2.1.6 2.4 1 .3.3.3.4.5.4.4 0 .6-.2.9-.3.5-.3 1.1-.6 2.2-.2 1.7.6 1.9 1.5 2 2.2.1.4.1.5.3.6.5.2.8.2 1.3.2.7 0 1.5-.1 2.4.9.7.7.5 1.6.4 2.3-.1.6-.1.9.1 1.1s.4.2.6.3c.5.1 1.1.3 1.7 1.3.4.8.2 1.6 0 2.2-.1.4-.4 1.1 0 1.3.6.4.5.9.9 1.2.8.7 1.8 1 2.4 1.1 1.3.2 2.4 0 3-.5.3-.3.4-.8.5-1.3s.1-1.5-.7-2c-.7-.4-2.2.1-2.8.8l-.6.8-.4-.9c-.7-1.7-.7-3.1-.1-4.2.7-1.2 2-1.6 2.8-1.7 0-2.3.7-3.8 2-4.6 2.2-1.4 4.5-.5 4.5-.5s-2.5 2.8-.4 9.6c.7 2.4.2 4.5-.9 6.1-1.8 2.6-5.1 3.1-5.2 3.1-.8.1-1.5.2-2.2.2-2.9 0-5.1-1.2-6.1-1.7m-19.4.3c1.8-.3 3.3-1.4 4.5-2.3l.2-.1c.5-.4 1.1-.7 1.4-1.2.1-.2.1-.6 0-.6-.2-.1-.4-.2-.8-.2-.2 0-.6-.2-.6-.6-.1-.4.4-.7.7-.9 1.2-.5 2-1 2.2-1.2v-.1.1c-.5-.5-.9-1-1.1-1.4-.2-.2-.3-.4-.4-.6-.5-.5-1-.8-1.8-.8-.5 0-1.1.8-1.7 1-.8.3-1-.5-.8-1s.7-.5.7-1.1c0-1-.5-2.1-1.1-3.1-.2-.6-.8-.6-.8-.6-1.1.5-3.6 6.1-3.6 7.5 0 .4.1.4.3.6.3.2.8.6.8 1.6 0 .6-.4 1.1-.8 1.5-.2.2-.5.5-.5.7 0 .6 0 1 1.4 1 .8 0 1.5-.2 2-.4.8-.4 1.7-1.2 2-1.8.4-.5 1.1-.1 1 .4-.4 1-1.8 1.6-2.6 2.2-1 .7-2.3.5-2.3.5-.2.4.7 1.1 1.7.9" fill="#888"/><g fill="#fff"><path d="m52.3 18.1c-1.3-1.6-2.5-3.3-3-4-.2-.2-.2-.3-.3-.4l-.1-.2c-.8-1-3.1-4-9-4.4-.6 0-5.2.1-6.8 1.6-.1-.1-.1-.2-.2-.4l-.3-.8c.3-.3.4-.6.6-.8.2-.4.4-.8.9-1 .7-.3 1.1-.1 1.7.3.2.1.4.2.5.3.6.2 1-.3 1.4-.8.3-.4.6-.8 1-.8.9-.1 1.2.2 1.5.6.3.3.7.8 1.5.8.6 0 1-.3 1.3-.4.4-.2.7-.4 1.3-.2 1.1.4 1.2.8 1.3 1.4.1.4.2 1 .9 1.3.7.4 1.4.4 1.9.3.6 0 1-.1 1.5.5.3.3.3.8.2 1.4s-.2 1.4.4 2.1c.4.4.8.5 1.1.6.4.1.7.2 1 .8.2.4.1.8-.1 1.3-.1.3-.2.6-.2.9z"/><path d="m37.5 15.2c.3-.3.7-.5 1.2-.7.2-.1.5 0 .8.2.4.3.7.7.8 1.2l.2.9.7-.5c.2-.2 1-.6 1.5-.4.4.1.7.6.9 1.3l.2.8.7-.5c.4-.3.8-.5 1-.4.3.1.5.6.7 1 .1.2.2.4.3.5.3.6.9.6 1.3.6s.6 0 .7.7c.1.4 1.3.5 1.1-.2-.4-1.5-1.3-1.6-1.8-1.6-.3 0-.3 0-.4-.1s-.1-.3-.2-.4c-.3-.6-.7-1.4-1.5-1.6-.4-.1-.8 0-1.3.2-.3-.7-.8-1.2-1.3-1.4-.7-.2-1.4 0-1.9.2-.2-.5-.6-1-1.1-1.3-.6-.3-1.2-.5-1.7-.3-.7.2-1.2.5-1.6.9-.4-.4-2.6-.4-2.6-.4 0-.8-.2-1.5-.5-2.2.1-.8 4.4-1.6 6.3-1.5 5.4.3 7.4 2.9 8.2 3.9l.1.2s.1.2.2.3c.6.9 2 2.9 3.6 4.6.4.5 1.3 1.4 1.7 1.7 1 .8 2 1.2 3 1.3 1.7.3 3.1 0 4-.8.6-.5.7-1.3.8-2.1.1-1.1 0-2.9-1.8-3.1-1.1-.1-2.2.2-2.9.9-.3-1-.2-2 .1-2.7.6-1.1 2-1.3 2.4-1.3l.5-.1v-.5c0-1.9.4-3.3 1.3-4 .7-.5 1.6-.9 2.4-.9-.4 1.5-1.3 4.2.2 9.1.6 2.1.2 3.9-.7 5.2-1.5 2.2-4.5 2.7-4.5 2.7h.1-.1-.1c-3.9.7-6.6-.7-7.9-1.4-.2-.1-.4-.2-.6-.3-.4-.2-1.4-.7-2.5-1.3-2.2-1.1-3.7-2-4.4-2.2-3.1-1-4.8-.4-5.6.1l-.4-.1c1.7-.7 2.1-1.2 2.2-1.9.1-.3 0-.7-.3-.9-.4-.4-.8-.9-1.1-1.3-.1.2-.3 0-.4-.1"/><path d="m29 24s1.3.2 2.3-.5c.8-.6 2.2-1.2 2.6-2.2.1-.5-.6-.9-1-.4-.3.6-1.2 1.4-2 1.8-.5.2-1.2.4-2 .4-1.4 0-1.4-.4-1.4-1 0-.2.3-.4.5-.7.4-.4.8-.9.8-1.5 0-1-.5-1.4-.8-1.6s-.3-.2-.3-.6c0-1.4 2.5-7 3.6-7.5 0 0 .6.1.8.6.5 1 1.1 2 1.1 3.1 0 .6-.5.6-.7 1.1-.2.4 0 1.2.8 1 .6-.2 1.2-1 1.7-1 .8 0 1.3.2 1.8.8.1.1.3.3.4.6.3.4.7.9 1.1 1.4-.2.2-1 .8-2.2 1.2-.3.2-.8.4-.7.9 0 .3.4.5.6.6.3 0 .6.1.8.2.1 0 .1.5 0 .6-.3.5-.8.9-1.4 1.2l-.2.1c-1.2.9-2.7 2-4.5 2.3-.1 0-.2 0-.3 0-.9-.1-1.6-.6-1.4-.9"/></g><path d="m30.7 19.7c-.1-.1-.1-.6 0-.8.1-.5.4-.9.7-1.1 0 0 1.2-.8 1.4-.7.1 0-.3.8-.3.9.1.7-.2 1.1-.2 1.1s-.3.7-.7.9c-.1 0-.2.1-.3.1-.3 0-.5-.1-.6-.4" fill="#004784"/><path d="m0 .1v45.6c0 37.2 40.5 56.1 45.6 56.2 5.2-.2 45.7-19 45.7-56.2v-45.6zm16.6 65.1c0-4.6 3.9-8.3 8.8-8.3 4.8 0 8.8 3.7 8.8 8.3s-3.9 8.3-8.8 8.3-8.8-3.7-8.8-8.3zm4.8 19.8 24.3-25.1 24.3 25.1c-10.5 9.6-21.9 14.6-24.3 14.7-2.5-.1-13.9-5.1-24.3-14.7zm15.2-37.5c0-4.7 4-8.5 8.9-8.5s9 3.8 9 8.5-4 8.5-9 8.5c-4.9-.1-8.9-3.9-8.9-8.5zm29.1 26c-4.8 0-8.8-3.7-8.8-8.3s3.9-8.3 8.8-8.3 8.8 3.7 8.8 8.3-4 8.3-8.8 8.3zm23.2-27.7c0 8-2 15.1-5.2 21.4l-38-36.2-38.1 36.2c-3.2-6.3-5.2-13.4-5.2-21.4v-14.8h86.5zm0-16.9h-86.5v-26.4h86.5z" fill="#888"/><g transform="translate(4 6)"><path d="m10.6 1.7c.9 0 1.5-.8 2.8-.8 1.7 0 2.3 1 4 1.4h2.3v1.5c0 .6 1.2.5 1.2 1.8 0 1.4-1.1 1.3-1.1 1.8v3.6c0 .5 1.2.5 1.2 1.7 0 1-1.2 1.1-1.2 1.8v2h-18.1v-2c0-.7-1.2-.8-1.2-1.8 0-1.2 1.2-1.3 1.2-1.7v-3.6c0-.6-1.1-.5-1.1-1.8s1.2-1.2 1.2-1.8 0-1.2 0-1.5h2.3c1.7-.4 2.3-1.4 4.1-1.4 1 0 1.5.8 2.4.8z" fill="#fff"/><path d="m10 .8h1.2c1-.6 2-.8 2.9-.7s2 1.1 3.2 1.3h1.1v12.5h-6.5c0 .8-1 .9-1.2.9s-1.2-.1-1.2-.9h-6.5v-12.5h1.1c1.2-.2 2.3-1.2 3.2-1.3.8-.1 1.7.1 2.7.7z" fill="#888"/><g fill="#fff"><path d="m4 12.8v-10.5c1.2-.2 2.3-1.2 3.2-1.3s1.9.1 2.9.7v10.1c-.8 0-2 .6-2.6.9-.7.2-3.5.1-3.5.1z"/><path d="m17.2 12.8s-2.8.1-3.4-.2-1.9-.9-2.6-.9v-10.1c1-.6 2-.8 2.9-.7s2 1.1 3.2 1.3v10.6z"/></g></g><g transform="translate(66 6)"><path d="m10.3 1.7c.9 0 1.5-.8 2.8-.8 1.7 0 2.3 1 4.1 1.4h2.3v1.5c0 .6 1.2.5 1.2 1.8 0 1.4-1.1 1.3-1.1 1.8v3.6c0 .5 1.2.5 1.2 1.7 0 1-1.2 1.1-1.2 1.8v2h-18.1v-2c0-.7-1.2-.8-1.2-1.8 0-1.2 1.2-1.3 1.2-1.7v-3.6c0-.6-1.1-.5-1.1-1.8s1.2-1.2 1.2-1.8 0-1.2 0-1.5h2.3c1.7-.4 2.3-1.4 4-1.4 1 0 1.6.8 2.4.8z" fill="#fff"/><path d="m9.8.8h1.2c1-.6 2-.8 2.9-.7s2 1.1 3.2 1.3h1.1v12.5h-6.5c0 .8-1 .9-1.2.9s-1.2-.1-1.2-.9h-6.5v-12.5h1.1c1.2-.2 2.3-1.2 3.2-1.3.7-.1 1.7.1 2.7.7z" fill="#888"/><g fill="#fff"><path d="m3.7 12.8v-10.5c1.2-.2 2.3-1.2 3.2-1.3s1.9.1 2.9.7v10.1c-.8 0-2 .6-2.6.9-.7.2-3.5.1-3.5.1z"/><path d="m16.9 12.8s-2.8.1-3.4-.2-1.9-.9-2.6-.9v-10.1c1-.6 2-.8 2.9-.7s2 1.1 3.2 1.3z"/></g></g></g></g></svg>