<?xml version="1.0" standalone="no"?>
<!DOCTYPE svg PUBLIC "-//W3C//DTD SVG 20010904//EN"
 "http://www.w3.org/TR/2001/REC-SVG-20010904/DTD/svg10.dtd">
<svg version="1.0" xmlns="http://www.w3.org/2000/svg"
 width="700.000000pt" height="700.000000pt" viewBox="0 0 700.000000 700.000000"
 preserveAspectRatio="xMidYMid meet">
<metadata>
Created by potrace 1.11, written by Peter Selinger 2001-2013
</metadata>
<g transform="translate(0.000000,700.000000) scale(0.100000,-0.100000)"
fill="#000000" stroke="none">
<path d="M3215 6989 c-745 -64 -1437 -353 -1995 -835 -551 -475 -938 -1101
-1114 -1799 -34 -137 -72 -346 -88 -490 -17 -154 -17 -585 0 -730 66 -554 238
-1049 523 -1502 334 -531 829 -980 1384 -1256 387 -192 742 -300 1170 -354
169 -21 615 -24 770 -5 450 55 841 170 1203 354 343 174 600 358 881 633 584
570 933 1289 1033 2130 16 139 16 595 0 730 -61 497 -198 932 -418 1327 -538
964 -1489 1620 -2569 1772 -249 35 -546 45 -780 25z m630 -1709 c241 -22 518
-80 701 -148 145 -54 304 -133 304 -152 0 -19 -160 -693 -166 -699 -2 -2 -48
16 -101 42 -247 116 -516 197 -765 232 -136 19 -352 19 -439 1 -170 -36 -259
-131 -259 -272 1 -126 105 -222 337 -310 37 -14 177 -56 309 -94 289 -83 415
-127 551 -190 321 -151 509 -355 584 -635 29 -106 31 -340 5 -459 -70 -316
-255 -555 -548 -706 -115 -59 -266 -111 -403 -139 -500 -100 -1186 -12 -1657
212 l-115 54 82 357 c45 196 84 359 87 362 3 3 47 -15 97 -40 250 -126 565
-222 841 -256 127 -15 348 -13 438 6 209 42 323 149 324 303 1 169 -126 263
-507 376 -104 31 -244 72 -310 91 -347 102 -570 219 -736 383 -125 125 -187
230 -232 396 -30 109 -31 359 -3 480 68 296 245 519 524 659 135 68 334 123
522 145 107 12 406 13 535 1z"/>
</g>
</svg>
